<svg xmlns="http://www.w3.org/2000/svg" width="110" height="38" viewBox="0 0 110 38">
  <path id="btn" class="cls-1" d="M105,38H15c-4.5,0-6.342-4.423-9.026-9C3.1,24.088,0,19,0,19S3.12,13.854,6.023,8.918C8.7,4.37,10.5,0,15,0h90a5,5,0,0,1,5,5V33A5,5,0,0,1,105,38Zm3.915-33a4,4,0,0,0-4-4h-90c-3.332,0-4.994,2.936-7.1,6.652C7.488,8.234,7.152,8.828,6.8,9.425,4.459,13.406,1.95,17.566,1.085,19c0.862,1.422,3.349,5.539,5.668,9.495,0.345,0.589.676,1.174,1,1.748C9.887,34.018,11.573,37,14.915,37h90a4,4,0,0,0,4-4V5Z"/>
</svg>
