<?xml version="1.0" encoding="UTF-8" standalone="no"?>
<svg width="20px" height="18px" viewBox="0 0 20 18" version="1.1" xmlns="http://www.w3.org/2000/svg" xmlns:xlink="http://www.w3.org/1999/xlink" xmlns:sketch="http://www.bohemiancoding.com/sketch/ns">
    <g id="Page-1" stroke="none" stroke-width="1" fill="none" fill-rule="evenodd" sketch:type="MSPage">
        <g id="18-camera" sketch:type="MSLayerGroup" transform="translate(0.000000, -1.000000)">
            <path d="M3,19 C1.34314575,19 2.02906125e-16,17.6568542 0,16 L0,7 C-2.02906125e-16,5.34314575 1.34314575,4 3,4 L4.431,4 L5.457,2.488 C5.9439188,1.54038083 6.93534373,0.960262737 8,1 L12,1 C13.0622712,0.961421444 14.0511983,1.54004899 14.538,2.485 L15.566,4 L17,4 C18.6568542,4 20,5.34314575 20,7 L20,16 C20,17.6568542 18.6568542,19 17,19 L3,19 L3,19 Z" id="camera" opacity="0.5" fill="#000000" sketch:type="MSShapeGroup"></path>
            <path d="M3,19 C1.34314575,19 2.02906125e-16,17.6568542 0,16 L0,7 C-2.02906125e-16,5.34314575 1.34314575,4 3,4 L4.431,4 L5.457,2.488 C5.9439188,1.54038083 6.93534373,0.960262737 8,1 L12,1 C13.0622712,0.961421444 14.0511983,1.54004899 14.538,2.485 L15.566,4 L17,4 C18.6568542,4 20,5.34314575 20,7 L20,16 C20,17.6568542 18.6568542,19 17,19 L3,19 L3,19 Z M17,18 L3,18 C1.8954305,18 1,17.1045695 1,16 L1,7 C1,5.8954305 1.8954305,5 3,5 L4.96,5 L6.284,3.05 C6.58216838,2.37736064 7.26536168,1.95932278 8,2 L12,2 C12.7335697,1.96060135 13.4152259,2.37842916 13.713,3.05 L15.036,5 L17,5 C18.1045695,5 19,5.8954305 19,7 L19,16 C19,17.1045695 18.1045695,18 17,18 L17,18 Z" id="camera-2" opacity="0.85" fill="#FFFFFF" sketch:type="MSShapeGroup"></path>
        </g>
    </g>
</svg>