<?xml version="1.0" encoding="UTF-8" standalone="no"?>
<svg width="16px" height="16px" viewBox="0 0 16 16" version="1.1" xmlns="http://www.w3.org/2000/svg" xmlns:xlink="http://www.w3.org/1999/xlink" xmlns:sketch="http://www.bohemiancoding.com/sketch/ns">
    <g id="Page-1" stroke="none" stroke-width="1" fill="none" fill-rule="evenodd" sketch:type="MSPage">
        <g id="color-fb" sketch:type="MSLayerGroup" fill="#335C9C">
            <path d="M8,16 C12.418278,16 16,12.418278 16,8 C16,3.581722 12.418278,0 8,0 C3.581722,0 0,3.581722 0,8 C0,12.418278 3.581722,16 8,16 Z M12.094,5 L10,5 C9.44771525,5 9,5.44771525 9,6 L9,7 L12,7 L11.781,9 L9,9 L9,14 L7,14 L7,9 L5,9 L5,7 L7,7 L7,5 C7,3.8954305 7.8954305,3 9,3 L11.783,3 L12.096,5 L12.094,5 Z" id="Oval" sketch:type="MSShapeGroup"></path>
        </g>
    </g>
</svg>