<?xml version="1.0" encoding="UTF-8" standalone="no"?>
<svg width="16px" height="16px" viewBox="0 0 16 16" version="1.1" xmlns="http://www.w3.org/2000/svg" xmlns:xlink="http://www.w3.org/1999/xlink" xmlns:sketch="http://www.bohemiancoding.com/sketch/ns">
    <g id="Page-1" stroke="none" stroke-width="1" fill="none" fill-rule="evenodd" sketch:type="MSPage">
        <g id="color-ok" sketch:type="MSLayerGroup" fill="#FB8400">
            <path d="M8,16 C12.418278,16 16,12.418278 16,8 C16,3.581722 12.418278,0 8,0 C3.581722,0 0,3.581722 0,8 C0,12.418278 3.581722,16 8,16 Z M10.988,9.839 C10.423918,10.1865714 9.80314356,10.4323087 9.154,10.565 L10.889,12.3 C11.1672658,12.5042056 11.3042353,12.8495637 11.2415717,13.1889824 C11.1789081,13.5284012 10.9276508,13.8020846 10.5948132,13.8934681 C10.2619756,13.9848515 9.90619414,13.8778358 9.679,13.618 L7.979,11.918 L6.327,13.568 C6.12146306,13.8446665 5.77597361,13.9796545 5.43731677,13.915613 C5.09865993,13.8515714 4.82631823,13.5997486 4.73599912,13.2671343 C4.64568001,12.9345201 4.75324738,12.5795356 5.013,12.353 L5.031,12.335 L6.8,10.565 C6.18861612,10.4405994 5.60202793,10.2158983 5.064,9.9 C4.765654,9.76170172 4.56844584,9.46954056 4.55175941,9.14112266 C4.53507299,8.81270476 4.70165348,8.50206004 4.98444581,8.33423499 C5.26723814,8.16640993 5.61971852,8.1690144 5.9,8.341 L5.9,8.332 C7.16854631,9.12520009 8.77845369,9.12520009 10.047,8.332 C10.3161996,8.16390652 10.6546271,8.15219804 10.9348002,8.30128502 C11.2149732,8.45037201 11.3943268,8.73760459 11.4053002,9.05478504 C11.4162736,9.37196549 11.2571996,9.67090655 10.988,9.839 Z M7.978,8.047 C6.2869041,8.047 4.916,6.6760959 4.916,4.985 C4.916,3.2939041 6.2869041,1.923 7.978,1.923 C9.6690959,1.923 11.04,3.2939041 11.04,4.985 C11.04,6.6760959 9.6690959,8.047 7.978,8.047 L7.978,8.047 Z M7.978,3.697 C7.26665724,3.697 6.69,4.27365724 6.69,4.985 C6.69,5.69634276 7.26665724,6.273 7.978,6.273 C8.68934276,6.273 9.266,5.69634276 9.266,4.985 C9.26434587,4.2748291 8.68817283,3.69999807 7.978,3.7 L7.978,3.697 Z" id="ok" sketch:type="MSShapeGroup"></path>
        </g>
    </g>
</svg>