<?xml version="1.0" encoding="UTF-8" standalone="no"?>
<svg width="16px" height="16px" viewBox="0 0 16 16" version="1.1" xmlns="http://www.w3.org/2000/svg" xmlns:xlink="http://www.w3.org/1999/xlink" xmlns:sketch="http://www.bohemiancoding.com/sketch/ns">
    <g id="Page-1" stroke="none" stroke-width="1" fill="none" fill-rule="evenodd" sketch:type="MSPage">
        <g id="color-vk" sketch:type="MSLayerGroup" transform="translate(0.000000, -1.000000)" fill="#5C82AC">
            <path d="M8,17 C12.418278,17 16,13.418278 16,9 C16,4.581722 12.418278,1 8,1 C3.581722,1 0,4.581722 0,9 C0,13.418278 3.581722,17 8,17 Z M11.3,9.221 C10.9781847,8.88481249 10.5580474,8.65933884 10.1,8.577 L10.1,8.533 C10.4367554,8.39742825 10.7227434,8.16003716 10.918,7.854 C11.118886,7.53917813 11.2231779,7.17241823 11.218,6.799 C11.2239038,6.48561211 11.1499126,6.17588175 11.003,5.899 C10.8525822,5.63122325 10.6264674,5.41380519 10.353,5.274 C10.0846053,5.12918009 9.79282446,5.03270963 9.491,4.989 C9.04273273,4.93568788 8.59135488,4.91296864 8.14,4.921 L5.273,4.921 L5.273,13.015 L8.513,13.015 C8.9801519,13.0248624 9.44654932,12.9727415 9.9,12.86 C10.2639153,12.7576498 10.6038418,12.5839473 10.9,12.349 C11.1594272,12.1469027 11.3694063,11.8883616 11.514,11.593 C11.6718686,11.2623655 11.7499612,10.8993036 11.742,10.533 C11.7696063,10.0549999 11.6112185,9.58485337 11.3,9.221 Z M9.051,7.674 C8.98058058,7.81639124 8.86081419,7.92833905 8.714,7.989 C8.5786165,8.05427992 8.43196582,8.0929794 8.282,8.103 C8.14266667,8.11033333 7.899,8.114 7.551,8.114 L7.3,8.114 L7.3,6.4 L7.437,6.4 C7.79966667,6.4 8.07233333,6.40266667 8.255,6.408 C8.41856401,6.41092149 8.58008797,6.44485509 8.731,6.508 C8.86870645,6.56605949 8.98015461,6.67287881 9.044,6.808 C9.10729817,6.93200127 9.14149779,7.06879974 9.144,7.208 C9.147034,7.3682283 9.11530574,7.52721075 9.051,7.674 L9.051,7.674 Z M9.527,11.02 C9.43573855,11.1795656 9.29291683,11.3033444 9.122,11.371 C8.92633802,11.4583217 8.7160381,11.5081831 8.502,11.518 C8.302,11.5253333 7.93533333,11.529 7.402,11.529 L7.3,11.529 L7.3,9.5 L7.671,9.5 C8.033,9.5 8.322,9.50266667 8.538,9.508 C8.71050546,9.50649473 8.88209836,9.53317945 9.046,9.587 C9.22779657,9.64430107 9.38742296,9.75642377 9.503,9.908 C9.61369121,10.0830062 9.66684161,10.2882647 9.655,10.495 C9.6581334,10.6780891 9.61405035,10.8588985 9.527,11.02 L9.527,11.02 Z" id="vk" sketch:type="MSShapeGroup"></path>
        </g>
    </g>
</svg>