<?xml version="1.0" encoding="UTF-8" standalone="no"?>
<svg width="15px" height="11px" viewBox="0 0 15 11" version="1.1" xmlns="http://www.w3.org/2000/svg" xmlns:xlink="http://www.w3.org/1999/xlink" xmlns:sketch="http://www.bohemiancoding.com/sketch/ns">
    <g id="Page-1" stroke="none" stroke-width="1" fill="none" fill-rule="evenodd" sketch:type="MSPage">
        <path d="M10.518,9.157 L9.81,8.45 L12.261,6 L4,6 L4,5 L12.26,5 L9.81,2.549 L10.517,1.843 L14.174,5.5 L10.518,9.157 Z M5,1 L3,1 C1.8954305,1 1,1.8954305 1,3 L1,8 C1,9.1045695 1.8954305,10 3,10 L5,10 C6.1045695,10 7,9.1045695 7,8 L8,8 C8,9.65685425 6.65685425,11 5,11 L3,11 C1.34314575,11 2.02906125e-16,9.65685425 0,8 L0,3 C-2.02906125e-16,1.34314575 1.34314575,3.04359188e-16 3,0 L5,0 C6.65685425,1.01453063e-16 8,1.34314575 8,3 L7,3 C7,1.8954305 6.1045695,1 5,1 L5,1 Z" id="exit_icon" fill="#FFFFFF" sketch:type="MSShapeGroup"></path>
    </g>
</svg>