<?xml version="1.0" encoding="UTF-8" standalone="no"?>
<svg width="23px" height="11px" viewBox="0 0 23 11" version="1.1" xmlns="http://www.w3.org/2000/svg" xmlns:xlink="http://www.w3.org/1999/xlink" xmlns:sketch="http://www.bohemiancoding.com/sketch/ns">
    <g id="Page-1" stroke="none" stroke-width="1" fill="none" fill-rule="evenodd" sketch:type="MSPage">
        <path d="M1.565,2.053 C1.78161684,1.65862064 2.02171543,1.27760188 2.284,0.912 C2.47069897,1.30093563 2.68178616,1.67768618 2.916,2.04 C2.907,2.054 2.896,2.066 2.888,2.079 C4.14772653,4.0496091 6.06531963,5.50977192 8.3,6.2 C8.407,6.233 8.515,6.27 8.625,6.3 C8.788,6.346 8.952,6.388 9.119,6.426 C9.447,6.506 9.78033333,6.56966667 10.119,6.617 L10.19,6.628 C10.6489233,6.69215134 11.1116211,6.72555912 11.575,6.728 C13.7119639,6.72868354 15.7962334,6.06468084 17.539,4.828 C17.633,4.762 17.724,4.692 17.815,4.622 C18.039,4.45266667 18.255,4.27433333 18.463,4.087 C18.538,4.019 18.615,3.953 18.688,3.887 C19.5658713,3.05353625 20.2899502,2.07184898 20.827,0.987 C21.0728351,1.33291986 21.2988643,1.69249662 21.504,2.064 C21.075256,2.8645292 20.5521996,3.61084135 19.946,4.287 L22.216,6.56 C21.916,6.88466667 21.6016667,7.195 21.273,7.491 L19.005,5.223 C17.8520069,6.23750185 16.5042027,7.0061688 15.044,7.482 L15.875,10.582 C15.456,10.712 15.026,10.82 14.592,10.912 L13.762,7.82 C13.0299891,7.96593201 12.2854154,8.03961901 11.539,8.04 C10.7604979,8.03932346 9.98411258,7.95890374 9.222,7.8 L8.395,10.889 C7.961,10.789 7.533,10.683 7.114,10.549 L7.945,7.449 C6.5018389,6.96596442 5.1711975,6.19621967 4.033,5.186 L1.767,7.452 C1.43966667,7.15466667 1.12666667,6.843 0.828,6.517 L3.094,4.251 C2.49958043,3.58108138 1.98635926,2.84330498 1.565,2.053 L1.565,2.053 Z" id="eye_closed" fill="#2B3F4E" sketch:type="MSShapeGroup"></path>
    </g>
</svg>