<?xml version="1.0" encoding="UTF-8" standalone="no"?>
<svg width="17px" height="9px" viewBox="0 0 17 9" version="1.1" xmlns="http://www.w3.org/2000/svg" xmlns:xlink="http://www.w3.org/1999/xlink" xmlns:sketch="http://www.bohemiancoding.com/sketch/ns">
    <g id="Page-1" stroke="none" stroke-width="1" fill="none" fill-rule="evenodd" sketch:type="MSPage">
        <path d="M1.011,1.486 C1.15957949,1.21529907 1.32282224,0.952908873 1.5,0.7 C1.63383358,0.970858427 1.78342328,1.23364211 1.948,1.487 L1.945,1.5 C2.84620673,2.91187343 4.19741088,3.97839102 5.78,4.527 C5.98,4.599 6.174,4.665 6.38,4.721 L6.54,4.763 C7.17262758,4.9273507 7.82337671,5.01167596 8.477,5.014 C9.1465385,5.01166302 9.81299954,4.92327208 10.46,4.751 L10.5,4.74 C10.7711758,4.66787622 11.0382356,4.5810818 11.3,4.48 C11.351,4.461 11.4,4.444 11.453,4.424 C11.662,4.338 11.865,4.24 12.064,4.137 C12.3203916,4.00552829 12.569124,3.85962756 12.809,3.7 L12.839,3.681 C13.5231885,3.22761164 14.126264,2.66239739 14.623,2.009 C14.9650132,1.57214076 15.2590382,1.09975637 15.5,0.6 C15.7050243,0.886099394 15.8920521,1.18467601 16.06,1.494 C15.7369855,2.09636853 15.3431979,2.6580111 14.887,3.167 L16.6,4.884 C16.3733333,5.12866667 16.1363333,5.362 15.889,5.584 L14.173,3.874 C13.3024191,4.64019189 12.2846619,5.220698 11.182,5.58 L11.81,7.92 C11.494,8.02 11.17,8.099 10.841,8.169 L10.215,5.834 C9.66244618,5.94410855 9.10041772,5.99970851 8.537,6 C7.94938334,5.99987508 7.36332485,5.93956031 6.788,5.82 L6.164,8.15 C5.836,8.078 5.513,7.994 5.2,7.894 L5.824,5.555 C4.7345512,5.19016593 3.73009997,4.60885636 2.871,3.846 L1.161,5.556 C0.913666667,5.33133333 0.677,5.096 0.451,4.85 L2.161,3.14 C1.71409929,2.63569685 1.32811048,2.08054425 1.011,1.486 L1.011,1.486 Z" id="eye_closed" fill="#999999" sketch:type="MSShapeGroup"></path>
    </g>
</svg>