<?xml version="1.0" encoding="UTF-8" standalone="no"?>
<svg width="24px" height="24px" viewBox="0 0 24 24" version="1.1" xmlns="http://www.w3.org/2000/svg" xmlns:xlink="http://www.w3.org/1999/xlink" xmlns:sketch="http://www.bohemiancoding.com/sketch/ns">
    <g id="Page-1" stroke="none" stroke-width="1" fill="none" fill-rule="evenodd" sketch:type="MSPage">
        <path d="M21.244,14.466 C20.7264717,14.5707828 20.2713799,14.8759747 19.978,15.315 C19.8650624,15.8287597 19.9661554,16.3663578 20.258,16.804 C20.7032561,17.6040459 20.6729075,18.5840384 20.179,19.355 C19.6768873,20.0854372 18.8640901,20.5413425 17.979,20.589 C17.5526963,20.5887473 17.1333739,20.4807348 16.76,20.275 C16.4209871,20.0650993 16.0342475,19.9446732 15.636,19.925 C15.5191575,19.9209655 15.4027369,19.9410498 15.294,19.984 C14.8552416,20.2676985 14.5478404,20.7147621 14.44,21.226 C14.1226588,22.2961802 13.1412316,23.0317426 12.025,23.036 L11.973,23.036 C10.8273541,23.0718383 9.80805483,22.3135791 9.513,21.206 C9.40854131,20.6885984 9.10230909,20.2341081 8.662,19.943 C8.5443515,19.8936944 8.41750496,19.8701664 8.29,19.874 C7.89253441,19.8958609 7.50638846,20.014279 7.165,20.219 C6.19834045,20.7471174 5.00053768,20.5850332 4.209,19.819 C3.37821195,19.0200914 3.17782665,17.7671731 3.718,16.749 C4.01532231,16.3095289 4.12009055,15.7676242 4.008,15.249 C3.72182015,14.7996315 3.26383938,14.4873226 2.741,14.385 C1.67016795,14.0712542 0.932246355,13.091831 0.926,11.976 C0.929629705,10.8385711 1.67218247,9.83553745 2.759,9.5 C3.27662522,9.39544742 3.7315965,9.08973549 4.024,8.65 C4.13199904,8.13598384 4.03165889,7.60011712 3.745,7.16 C3.20775674,6.19436932 3.37058429,4.99025962 4.145,4.202 C4.64517725,3.69096452 5.3299237,3.40265023 6.045,3.402 C6.45809505,3.39990428 6.864905,3.50315554 7.227,3.702 C7.56947587,3.91452167 7.96042207,4.03634821 8.363,4.056 C8.48194453,4.06149674 8.60074636,4.04243399 8.712,4 C9.15812352,3.71225406 9.47093482,3.25833571 9.581,2.739 C9.89535334,1.66659957 10.8774814,0.928579584 11.995,0.925 L12.124,0.925 C13.2309407,0.943317597 14.194008,1.68748745 14.491,2.754 C14.5956007,3.27054637 14.9014266,3.72424807 15.341,4.015 C15.4573183,4.06397058 15.5828625,4.08716896 15.709,4.083 C16.1097106,4.06291584 16.499104,3.94331398 16.842,3.735 C17.8263789,3.19999096 19.0458421,3.37973136 19.834,4.176 L19.915,4.256 C20.6939234,5.04973022 20.8549006,6.26256061 20.31,7.232 C20.0208565,7.66771437 19.9162141,8.20027587 20.019,8.713 C20.3032669,9.14980785 20.7498701,9.45534058 21.26,9.562 C22.3311001,9.87699853 23.06855,10.8575548 23.074,11.974 C23.0761709,13.1159925 22.3342861,14.1262532 21.244,14.466 L21.244,14.466 Z M20.976,10.555 C20.1661809,10.3767754 19.4750975,9.85270685 19.085,9.121 C18.8541938,8.3272917 18.9801225,7.4724368 19.43,6.779 C19.7657676,6.18196695 19.6560273,5.43351288 19.163,4.958 L19.122,4.915 C18.6469142,4.43134485 17.9089589,4.32079433 17.313,4.644 C16.8234097,4.93199175 16.269667,5.09319927 15.702,5.113 C15.4429314,5.11722157 15.1858175,5.06750155 14.947,4.967 C14.2161343,4.56796749 13.6954698,3.87021859 13.521,3.056 C13.3408438,2.41458801 12.7611347,1.96740709 12.095,1.956 L11.989,1.956 C11.3165734,1.95797328 10.7254637,2.40181403 10.536,3.047 C10.3518782,3.86043161 9.82348503,4.55376523 9.088,4.947 C8.85576475,5.04036636 8.60727495,5.08659702 8.357,5.083 C7.78386588,5.06349719 7.22521043,4.8979314 6.734,4.602 C6.5211803,4.48604752 6.28235066,4.42616805 6.04,4.428 C5.59553712,4.42769239 5.1696071,4.6060641 4.858,4.923 C4.39120926,5.39726517 4.29268214,6.12237588 4.616,6.704 C5.06270472,7.40588131 5.18102247,8.2677019 4.94,9.064 C4.53840868,9.79436558 3.83914291,10.3140704 3.024,10.488 C2.36790868,10.7038381 1.92437491,11.3163179 1.924,12.007 C1.92735477,12.679925 2.3722194,13.2707735 3.018,13.46 C3.83908174,13.6321039 4.5403227,14.1620689 4.93,14.905 C5.17451169,15.7059883 5.048737,16.5743104 4.587,17.273 C4.26996587,17.8962032 4.39696907,18.6533533 4.9,19.139 C5.37745161,19.5990372 6.09845965,19.6954416 6.68,19.377 C7.16586092,19.0897834 7.71594427,18.928884 8.28,18.909 C8.53934853,18.905276 8.79668786,18.9549738 9.036,19.055 C9.76851202,19.45328 10.2904862,20.1516806 10.465,20.967 C10.562447,21.3761308 10.8369623,21.7206494 11.214,21.907 C11.6989642,22.0638639 12.2210358,22.0638639 12.706,21.907 C13.0774576,21.7180672 13.354831,21.3846404 13.473,20.985 C13.6533221,20.1741435 14.179486,19.4828225 14.913,19.093 C15.1405073,19.001801 15.3839281,18.9569245 15.629,18.961 C16.1966338,18.9802515 16.7500182,19.1437201 17.237,19.436 C17.4622235,19.5597673 17.7150099,19.6247695 17.972,19.625 C18.4240124,19.5584658 18.8511573,19.3762403 19.212,19.096 C19.238371,19.0098971 19.2763897,18.9278036 19.325,18.852 C19.6206355,18.3873865 19.63791,17.7981343 19.37,17.317 C18.916314,16.6195887 18.7971661,15.756224 19.045,14.962 C19.4472176,14.2329853 20.1458223,13.7142303 20.96,13.54 C21.6174213,13.3194622 22.0603232,12.703426 22.06,12.01 C22.0589606,11.3388317 21.6186823,10.7474616 20.976,10.554 L20.976,10.555 Z M12,16 C9.790861,16 8,14.209139 8,12 C8,9.790861 9.790861,8 12,8 C14.209139,8 16,9.790861 16,12 C16,13.060866 15.5785726,14.0782816 14.8284271,14.8284271 C14.0782816,15.5785726 13.060866,16 12,16 L12,16 Z M12,9 C10.3431458,9 9,10.3431458 9,12 C9,13.6568542 10.3431458,15 12,15 C13.6568542,15 15,13.6568542 15,12 C15,10.3431458 13.6568542,9 12,9 L12,9 Z M19.842,4.185 L19.833,4.178 L19.842,4.185 Z" id="gear" fill="#FFFFFF" sketch:type="MSShapeGroup"></path>
    </g>
</svg>