<?xml version="1.0" encoding="UTF-8" standalone="no"?>
<svg width="18px" height="17px" viewBox="0 0 18 17" version="1.1" xmlns="http://www.w3.org/2000/svg" xmlns:xlink="http://www.w3.org/1999/xlink" xmlns:sketch="http://www.bohemiancoding.com/sketch/ns">
    <g id="Page-1" stroke="none" stroke-width="1" fill="none" fill-rule="evenodd" sketch:type="MSPage">
        <path d="M11.469,6.859 C11.4701601,7.25307148 11.2354008,7.60958644 10.8729315,7.76421386 C10.5104621,7.91884128 10.0906492,7.84156322 9.807,7.568 L9.8,7.574 L9.743,7.517 C8.97686999,6.75124923 7.73513001,6.75124923 6.969,7.517 L3.5,10.985 C2.73424923,11.75113 2.73424923,12.99287 3.5,13.759 L4.2,14.453 C4.96613001,15.2187508 6.20786999,15.2187508 6.974,14.453 L8.49,12.937 C9.17879892,13.2700498 9.92624847,13.4647264 10.69,13.51 L8.36,15.84 C6.82773997,17.3715015 4.34426003,17.3715015 2.812,15.84 L2.118,15.147 C0.585832008,13.6146255 0.585832008,11.1303745 2.118,9.598 L5.582,6.13 C7.11368763,4.59994535 9.59531237,4.59994535 11.127,6.13 C11.3412415,6.31196859 11.4660112,6.57792522 11.469,6.859 L11.469,6.859 Z M16.824,7.372 L13.356,10.84 C11.875667,12.3135106 9.49928709,12.3654389 7.956,10.958 C7.69566073,10.7804158 7.53818686,10.4871114 7.534,10.172 C7.53188435,9.77747226 7.76655838,9.42014674 8.12945106,9.26533873 C8.49234374,9.11053072 8.91268281,9.18843128 9.196,9.463 L9.2,9.456 C9.34470559,9.58813606 9.50898151,9.69709114 9.687,9.779 L9.7,9.791 C10.4483531,10.1847485 11.3655404,10.0484044 11.967,9.454 L15.435,5.987 C15.8030421,5.61904091 16.009813,5.11993145 16.009813,4.5995 C16.009813,4.07906855 15.8030421,3.57995909 15.435,3.212 L14.741,2.519 C14.3732116,2.15101868 13.8742677,1.9442727 13.354,1.9442727 C12.8337323,1.9442727 12.3347884,2.15101868 11.967,2.519 L10.435,4.052 C9.73317325,3.72545071 8.97347357,3.54155919 8.2,3.511 L10.58,1.13 C11.3157068,0.394282493 12.3135459,-0.019040195 13.354,-0.019040195 C14.3944541,-0.019040195 15.3922932,0.394282493 16.128,1.13 L16.822,1.823 C18.3547204,3.35482224 18.3556158,5.8390733 16.824,7.372 L16.824,7.372 Z" id="link_icon" fill="#BDBBAF" sketch:type="MSShapeGroup"></path>
    </g>
</svg>