<svg xmlns="http://www.w3.org/2000/svg" width="86" height="22" viewBox="0 0 86 22">
  <path id="zoopy.ru" class="cls-1" d="M71.314,21.987L75.4,14.5,68.719,0.987H73.2l4.12,9.589,4.32-9.589h4.4l-10.5,21H71.314ZM61.159,17.493q-3.48,0-4.84-2.022l-0.061,6.515h-3.9v-21h3.88V2.444a6.188,6.188,0,0,1,5-1.982,6.43,6.43,0,0,1,5.18,2.507,9.026,9.026,0,0,1,2.06,5.907,9.326,9.326,0,0,1-2.04,6.149A6.532,6.532,0,0,1,61.159,17.493Zm2.2-12.117a3.8,3.8,0,0,0-3.2-1.517A3.844,3.844,0,0,0,57.039,5.4,5.471,5.471,0,0,0,55.8,8.937a5.427,5.427,0,0,0,1.32,3.58,3.965,3.965,0,0,0,6.24.121,5.727,5.727,0,0,0,1.16-3.681A5.732,5.732,0,0,0,63.359,5.376ZM42.269,17.493a8.016,8.016,0,0,1-6.02-2.386,8.426,8.426,0,0,1-2.32-6.129,8.512,8.512,0,0,1,2.28-6.13,7.915,7.915,0,0,1,6-2.387,8.018,8.018,0,0,1,6.02,2.367,8.422,8.422,0,0,1,2.3,6.129,8.538,8.538,0,0,1-2.28,6.149A7.887,7.887,0,0,1,42.269,17.493Zm3.14-12.117a3.813,3.813,0,0,0-3.14-1.517,3.99,3.99,0,0,0-3.18,1.456,5.513,5.513,0,0,0-1.24,3.7,5.356,5.356,0,0,0,1.24,3.662,4.056,4.056,0,0,0,3.2,1.415,3.779,3.779,0,0,0,3.14-1.517,5.693,5.693,0,0,0,1.18-3.6A5.632,5.632,0,0,0,45.409,5.376ZM24.292,17.493a8.017,8.017,0,0,1-6.02-2.386,8.427,8.427,0,0,1-2.32-6.129,8.512,8.512,0,0,1,2.28-6.13,7.915,7.915,0,0,1,6-2.387,8.018,8.018,0,0,1,6.02,2.367,8.423,8.423,0,0,1,2.3,6.129,8.537,8.537,0,0,1-2.28,6.149A7.887,7.887,0,0,1,24.292,17.493Zm3.14-12.117a3.813,3.813,0,0,0-3.14-1.517,3.99,3.99,0,0,0-3.18,1.456,5.512,5.512,0,0,0-1.24,3.7,5.355,5.355,0,0,0,1.24,3.662,4.055,4.055,0,0,0,3.2,1.415,3.779,3.779,0,0,0,3.14-1.517,5.694,5.694,0,0,0,1.18-3.6A5.632,5.632,0,0,0,27.431,5.376Zm-12.471,8.4v3.2H0.28L8.8,4.183H1.24v-3.2H15.16L6.76,13.772h8.2Z"/>
</svg>
