<?xml version="1.0" encoding="UTF-8" standalone="no"?>
<svg width="16px" height="16px" viewBox="0 0 16 16" version="1.1" xmlns="http://www.w3.org/2000/svg" xmlns:xlink="http://www.w3.org/1999/xlink" xmlns:sketch="http://www.bohemiancoding.com/sketch/ns">
    <g id="Page-1" stroke="none" stroke-width="1" fill="none" fill-rule="evenodd" sketch:type="MSPage">
        <g id="man-radio" sketch:type="MSLayerGroup" fill="#0076AD">
            <path d="M15,5 L15,1.707 L11.412,5.3 C12.4289176,6.46363991 12.9926591,7.95464394 13,9.5 C13,13.0898509 10.0898509,16 6.5,16 C2.91014913,16 4.21438822e-15,13.0898509 3.77475828e-15,9.5 C3.33512835e-15,5.91014913 2.91014913,3 6.5,3 C8.04533948,3.00743037 9.53631331,3.57116047 10.7,4.588 L14.293,1 L11,1 L11,0 L16,0 L16,5 L15,5 L15,5 Z M6.5,4 C3.46243388,4 1,6.46243388 1,9.5 C1,12.5375661 3.46243388,15 6.5,15 C9.53756612,15 12,12.5375661 12,9.5 C12,8.04130931 11.4205374,6.64236278 10.3890873,5.6109127 C9.35763722,4.57946262 7.95869069,4 6.5,4 L6.5,4 Z" id="man" sketch:type="MSShapeGroup"></path>
        </g>
    </g>
</svg>