<?xml version="1.0" encoding="UTF-8" standalone="no"?>
<svg width="16px" height="16px" viewBox="0 0 16 16" version="1.1" xmlns="http://www.w3.org/2000/svg" xmlns:xlink="http://www.w3.org/1999/xlink" xmlns:sketch="http://www.bohemiancoding.com/sketch/ns">
    <g id="Page-1" stroke="none" stroke-width="1" fill="none" fill-rule="evenodd" sketch:type="MSPage">
        <g id="15-man" sketch:type="MSLayerGroup">
            <path d="M15,5 L15,1.676 L11.4,5.276 C12.4265161,6.44422908 12.9949359,7.94485729 13,9.5 C13,13.0898509 10.0898509,16 6.5,16 C2.91014913,16 4.4408921e-15,13.0898509 3.99680289e-15,9.5 C3.55271368e-15,5.91014913 2.91014913,3 6.5,3 C8.03909647,3.00648261 9.52477959,3.56498875 10.687,4.574 L14.262,1 L11,1 L11,0 L16,0 L16,5 L15,5 L15,5 Z M6.5,4 C3.46243388,4 1,6.46243388 1,9.5 C1,12.5375661 3.46243388,15 6.5,15 C9.53756612,15 12,12.5375661 12,9.5 C12,8.04130931 11.4205374,6.64236278 10.3890873,5.6109127 C9.35763722,4.57946262 7.95869069,4 6.5,4 L6.5,4 Z" id="arrow" fill="#0076AD" sketch:type="MSShapeGroup"></path>
            <path d="M8.993,7.014 L7.9,7.014 L6.512,9.825 L5.076,7.014 L4,7.014 L4,12.005 L4.928,12.005 L4.928,8.384 L6.138,10.965 L6.8,10.965 L8.02,8.384 L8.02,12.006 L8.993,12.006 L8.993,7.014 L8.993,7.014 Z" id="m" fill="#000000" sketch:type="MSShapeGroup"></path>
        </g>
    </g>
</svg>