<?xml version="1.0" encoding="UTF-8" standalone="no"?>
<svg width="13px" height="22px" viewBox="0 0 13 22" version="1.1" xmlns="http://www.w3.org/2000/svg" xmlns:xlink="http://www.w3.org/1999/xlink" xmlns:sketch="http://www.bohemiancoding.com/sketch/ns">
    <g id="Page-1" stroke="none" stroke-width="1" fill="none" fill-rule="evenodd" sketch:type="MSPage">
        <path d="M12.036,15.028 C11.0706922,15.6462704 10.0076686,16.0966354 8.892,16.36 L11.71,19.178 C12.1536646,19.5608286 12.35377,20.1548085 12.2321984,20.7280591 C12.1106267,21.3013097 11.6866539,21.7629387 11.1257923,21.9327332 C10.5649306,22.1025278 9.95610827,21.9535659 9.537,21.544 L9.537,21.544 L6.483,18.491 L3.519,21.455 C3.13244383,21.8888951 2.54175365,22.0802971 1.97418583,21.9555678 C1.406618,21.8308385 0.950603684,21.4094117 0.781585355,20.853423 C0.612567027,20.2974343 0.756878962,19.6935108 1.159,19.274 L1.159,19.274 L1.191,19.241 L4.067,16.365 C3.059859,16.1247114 2.09538041,15.7318382 1.207,15.2 C0.670708045,14.9463241 0.320249522,14.4151773 0.297994507,13.8223323 C0.275739491,13.2294872 0.585389976,12.6735603 1.10115372,12.380391 C1.61691746,12.0872216 2.25300019,12.1055768 2.751,12.428 L2.751,12.428 C5.06102948,13.8766235 8.00059852,13.8579125 10.292,12.38 L10.292,12.38 C10.5244782,12.2532188 10.7852002,12.1871784 11.05,12.188 C11.7283585,12.1865686 12.3329167,12.6156737 12.5554044,13.2565103 C12.777892,13.8973469 12.5693034,14.6087629 12.036,15.028 L12.036,15.028 Z M6.484,11.971 C3.44643388,11.971 0.984,9.50856612 0.984,6.471 C0.984,3.43343388 3.44643388,0.971 6.484,0.971 C9.52156612,0.971 11.984,3.43343388 11.984,6.471 C11.984,9.50856612 9.52156612,11.971 6.484,11.971 L6.484,11.971 Z M6.484,4.161 C5.20764069,4.16320824 4.17453001,5.19930168 4.17600154,6.47566205 C4.17747306,7.75202243 5.21297002,8.78573096 6.48933103,8.78499616 C7.76569204,8.78426135 8.79999809,7.74936122 8.8,6.473 C8.80000092,5.8591258 8.5558669,5.27045256 8.12141728,4.83675328 C7.68696766,4.40305401 7.09787328,4.15993793 6.484,4.161 L6.484,4.161 Z" id="ok_logo" fill="#FFFFFF" sketch:type="MSShapeGroup"></path>
    </g>
</svg>