<svg xmlns="http://www.w3.org/2000/svg" width="16" height="16" viewBox="0 0 16 16">
  <path  fill="currentColor" d="M8,16a8,8,0,1,1,8-8A8,8,0,0,1,8,16ZM7.978,1.922a3.062,3.062,0,1,0,3.062,3.062A3.062,3.062,0,0,0,7.978,1.922ZM10.524,8.2a0.882,0.882,0,0,0-.47.135v0a3.912,3.912,0,0,1-4.147,0L5.9,8.341A0.886,0.886,0,1,0,5.064,9.9a5.656,5.656,0,0,0,1.737.669L5.032,12.334l-0.018.018h0a0.9,0.9,0,1,0,1.314,1.214l1.651-1.651,1.7,1.7h0a0.9,0.9,0,1,0,1.21-1.318L9.155,10.565a5.652,5.652,0,0,0,1.834-.726h0A0.886,0.886,0,0,0,10.524,8.2ZM7.978,6.272A1.288,1.288,0,1,1,9.266,4.985,1.288,1.288,0,0,1,7.978,6.272Z"/>
</svg>
