<svg xmlns="http://www.w3.org/2000/svg" width="17" height="16" viewBox="0 0 17 16">
  <path id="Pencil" class="cls-1" d="M15.455,5.879L7.239,14.087l-6.285.943L1.96,8.808,10.175,0.6a2.057,2.057,0,0,1,2.91,0l2.37,2.37A2.057,2.057,0,0,1,15.455,5.879ZM2.386,13.6h0ZM10.394,1.961l0.633-.633L4.932,7.416h0L4.2,8.143h0L3.113,9.234,2.728,11.548l1.709,1.709,2.314-.386L7.841,11.78h0l4.64-4.635-0.726-.727L6.2,11.968,5.472,11.24l5.556-5.549L10.3,4.964,4.744,10.513,4.017,9.786,9.573,4.237,8.846,3.509,9.51,2.876l3.62,3.62,0.9-.9Z"/>
</svg>
