<svg xmlns="http://www.w3.org/2000/svg" width="26" height="25" viewBox="0 0 26 25">
  <path fill="currentColor" d="M25.254,9.581l-0.094.26C24.7,11.124,24.417,11.9,23.686,12.1a1.739,1.739,0,0,1-1.5-.49,5.311,5.311,0,0,1-1.794-4.065,3.359,3.359,0,0,0-.962-2.582,0.608,0.608,0,0,0-.506-0.158,0.813,0.813,0,0,0-.426.259A37.624,37.624,0,0,1,21.493,15.8c0.024,0.287.035,0.563,0.035,0.828,0,4.318-1.735,6.9-4.639,6.9a3.941,3.941,0,0,1-1.4-.26A3.417,3.417,0,0,1,13,24.107a3.416,3.416,0,0,1-2.486-.838,3.944,3.944,0,0,1-1.4.26c-2.905,0-4.64-2.5-4.64-6.69a9.816,9.816,0,0,1,.061-1.068A42.364,42.364,0,0,1,7.644,5.193a1.508,1.508,0,0,0-.621-0.8,0.377,0.377,0,0,0-.221.138A4.319,4.319,0,0,0,5.789,7.408a6.331,6.331,0,0,1-1.751,4.319A1.786,1.786,0,0,1,2.51,12.4C1.773,12.245,1.443,11.48.9,10.211l-0.032-.073c-1.316-3.059.06-6.633,2.1-8.582A4.556,4.556,0,0,1,6.862.293a4.841,4.841,0,0,1,3.231,2.19,6.64,6.64,0,0,1,2.974-.451,7.169,7.169,0,0,1,2.888.416A4.988,4.988,0,0,1,19.08.316a4.439,4.439,0,0,1,3.633.92A7.733,7.733,0,0,1,25.254,9.581ZM13,22.78a3,3,0,0,0,1.25-.238A5.165,5.165,0,0,1,13,21a5.173,5.173,0,0,1-1.259,1.552A3.2,3.2,0,0,0,13,22.78Zm0.6-5.721c0.159-.1.346-0.206,0.549-0.323,0.731-.418,2.091-1.2,2.1-1.827a1.5,1.5,0,0,0-.37-1.135c-0.449-.459-1.38-0.686-2.846-0.693H12.958c-1.462.008-2.393,0.234-2.842,0.693a1.5,1.5,0,0,0-.37,1.135c0.011,0.629,1.371,1.409,2.1,1.827,0.2,0.117.391,0.224,0.549,0.323a2.615,2.615,0,0,1,.6.511A2.624,2.624,0,0,1,13.6,17.059ZM21.88,2.268a3.07,3.07,0,0,0-2.547-.649,3.856,3.856,0,0,0-2.569,2.036,0.662,0.662,0,0,1-.957.223,4.612,4.612,0,0,0-2.739-.519c-1.537,0-2.166.117-2.693,0.5l-0.086.066a0.674,0.674,0,0,1-.551.133,0.664,0.664,0,0,1-.453-0.341A3.741,3.741,0,0,0,6.648,1.6a3.251,3.251,0,0,0-2.766.913c-1.709,1.633-2.875,4.6-1.8,7.1L2.116,9.687a9.321,9.321,0,0,0,.661,1.367,2.342,2.342,0,0,0,.345-0.285,5.118,5.118,0,0,0,1.35-3.51A5.455,5.455,0,0,1,5.885,3.572a1.528,1.528,0,0,1,1.4-.478,2.705,2.705,0,0,1,1.69,1.82,0.75,0.75,0,0,1-.018.635A40.56,40.56,0,0,0,5.847,15.915a8.555,8.555,0,0,0-.053.924c0,1.612.323,5.363,3.313,5.363a2.7,2.7,0,0,0,1.3-.338,0.681,0.681,0,0,1,.152-0.089,4.051,4.051,0,0,0,1.736-2.736,1.351,1.351,0,0,0-.6-0.854c-0.146-.091-0.32-0.19-0.508-0.3-1.158-.663-2.744-1.571-2.769-2.954a2.8,2.8,0,0,1,.748-2.086c0.935-.956,2.515-1.086,3.787-1.092h0.084c1.276,0.007,2.856.136,3.791,1.092a2.793,2.793,0,0,1,.748,2.085c-0.025,1.384-1.611,2.292-2.769,2.955-0.189.108-.362,0.207-0.509,0.3a1.347,1.347,0,0,0-.595.852,4.08,4.08,0,0,0,1.656,2.688,0.651,0.651,0,0,1,.279.165,2.691,2.691,0,0,0,1.248.312c2.99,0,3.313-3.9,3.313-5.57,0-.23-0.01-0.471-0.03-0.72-0.22-2.679-1.821-8.582-3.024-10.54a0.664,0.664,0,0,1-.01-0.678A2.31,2.31,0,0,1,18.681,3.5a1.937,1.937,0,0,1,1.583.43,4.578,4.578,0,0,1,1.45,3.485,4.007,4.007,0,0,0,1.306,3.163,1.77,1.77,0,0,0,.308.21,8.224,8.224,0,0,0,.584-1.4l0.095-.261A6.374,6.374,0,0,0,21.88,2.268Zm-7.124,8.861a1.149,1.149,0,1,1,1.149-1.15A1.151,1.151,0,0,1,14.756,11.129Zm-3.517,0a1.149,1.149,0,1,1,1.15-1.15A1.15,1.15,0,0,1,11.24,11.129Z"/>
</svg>
