<svg xmlns="http://www.w3.org/2000/svg" width="26" height="23" viewBox="0 0 26 23">
  <path fill="currentColor" d="M25.249,17.973a1.485,1.485,0,0,1-1,.3l-0.268.308c-1.443,1.661-3.078,3.542-6.24,4.086a19.661,19.661,0,0,1-2.953.172,39.384,39.384,0,0,1-4.7-.279l-0.03,0a15.32,15.32,0,0,1-4.223-1.028c-0.114.022-.248,0.053-0.392,0.085-1.11.247-1.989,0.442-2.395-.161a1.894,1.894,0,0,1,.213-2.073,3.523,3.523,0,0,0,.281-0.6,3.95,3.95,0,0,0-.515.016,1.513,1.513,0,0,1-1.8-.78A1.814,1.814,0,0,1,1.995,16.1a3.108,3.108,0,0,0,.424-0.471,3.5,3.5,0,0,0-.549-0.176A1.6,1.6,0,0,1,.376,14.172a1.736,1.736,0,0,1,1.286-1.6,3.147,3.147,0,0,0,.5-0.284,3.413,3.413,0,0,0-.508-0.368A1.659,1.659,0,0,1,.586,10.253a1.647,1.647,0,0,1,1.7-1.128A3.861,3.861,0,0,0,2.8,9.038,4.056,4.056,0,0,0,2.41,8.526,1.712,1.712,0,0,1,1.837,6.6c0.426-.862,1.4-0.659,1.978-0.538,0.133,0.028.33,0.069,0.468,0.081A5.066,5.066,0,0,0,4.05,5.567C3.776,4.963,3.4,4.135,4.027,3.542c0.656-.693,1.538-0.185,2.065.119,0.112,0.064.271,0.156,0.4,0.216-0.008-.171-0.045-0.406-0.07-0.567-0.1-.632-0.247-1.587.547-1.96,0.819-.442,1.523.314,1.943,0.766C9,2.212,9.129,2.35,9.239,2.451c0.031-.158.055-0.361,0.072-0.5C9.386,1.3,9.5.329,10.4,0.232c0.885-.154,1.336.74,1.633,1.328,0.066,0.13.159,0.316,0.244,0.453,0.066-.132.136-0.3,0.185-0.419,0.234-.56.626-1.489,1.527-1.3,0.884,0.16,1.067,1.081,1.2,1.755,0.032,0.161.079,0.4,0.13,0.561,0.1-.1.207-0.235,0.285-0.33,0.359-.436,1.027-1.244,1.853-0.751A1.882,1.882,0,0,1,18.1,3.53a4.9,4.9,0,0,0-.02.634C18.206,4.1,18.363,4,18.47,3.933c0.464-.295,1.329-0.845,1.974-0.13A1.89,1.89,0,0,1,20.519,5.9a3.888,3.888,0,0,0-.195.634,4.336,4.336,0,0,0,.48-0.1c0.52-.128,1.489-0.364,1.9.49a1.861,1.861,0,0,1-.5,2.014,3.235,3.235,0,0,0-.359.546,3.571,3.571,0,0,0,.54.077A1.554,1.554,0,0,1,24.058,10.6a1.656,1.656,0,0,1-.375,1.616,3.005,3.005,0,0,1-2.367.593,4.392,4.392,0,0,0,.212.426,2.15,2.15,0,0,1,.144.236,6.458,6.458,0,0,0,1.532,1.6,1.532,1.532,0,0,1,1.386-.463,1.822,1.822,0,0,1,1.379,2.076A1.865,1.865,0,0,1,25.249,17.973Zm-2.516-6.678a0.425,0.425,0,0,0,.043-0.347,3.8,3.8,0,0,0-.506-0.07,1.732,1.732,0,0,1-1.681-.9,1.966,1.966,0,0,1,.561-1.841,4.15,4.15,0,0,0,.339-0.5c-0.119.02-.266,0.056-0.37,0.081a1.651,1.651,0,0,1-1.879-.339,2.01,2.01,0,0,1,.034-1.943,5.164,5.164,0,0,0,.18-0.554C19.36,4.939,19.258,5,19.183,5.051a1.62,1.62,0,0,1-1.9.273,2.013,2.013,0,0,1-.5-1.892c0.011-.149.027-0.356,0.025-0.525-0.064.074-.128,0.151-0.178,0.212a1.652,1.652,0,0,1-1.734.871A1.953,1.953,0,0,1,13.889,2.3c-0.025-.126-0.058-0.3-0.1-0.443-0.038.087-.075,0.175-0.1,0.246a1.72,1.72,0,0,1-1.375,1.379H12.294a1.844,1.844,0,0,1-1.445-1.326c-0.051-.1-0.117-0.232-0.184-0.351-0.015.1-.027,0.211-0.037,0.295a1.814,1.814,0,0,1-.923,1.742A1.761,1.761,0,0,1,7.94,3.018c-0.072-.077-0.168-0.18-0.259-0.27C7.7,2.873,7.716,3,7.732,3.105a1.884,1.884,0,0,1-.386,1.933A1.706,1.706,0,0,1,5.429,4.81C5.333,4.754,5.2,4.679,5.086,4.62c0.052,0.135.121,0.288,0.172,0.4a1.933,1.933,0,0,1,.16,1.954,1.689,1.689,0,0,1-1.873.389C3.423,7.337,3.25,7.3,3.114,7.286,3.2,7.409,3.331,7.56,3.42,7.666a1.918,1.918,0,0,1,.68,1.82,1.729,1.729,0,0,1-1.646.955,4.1,4.1,0,0,0-.494.082c0.113,0.092.292,0.206,0.413,0.284A1.868,1.868,0,0,1,3.52,12.355a1.8,1.8,0,0,1-1.275,1.413,3.62,3.62,0,0,0-.491.272,4.616,4.616,0,0,0,.451.134,1.786,1.786,0,0,1,1.53,1.144,1.909,1.909,0,0,1-.814,1.734,3.781,3.781,0,0,0-.407.441c0.136,0,.3-0.011.413-0.02a1.687,1.687,0,0,1,1.8.63,1.98,1.98,0,0,1-.3,1.91,5.367,5.367,0,0,0-.246.5c0.3-.04.73-0.135,0.972-0.189,0.276-.061.523-0.115,0.687-0.137a0.7,0.7,0,0,1,.086-0.005,0.669,0.669,0,0,1,.292.067,13.351,13.351,0,0,0,3.926.986l0.015,0c1.4-.22,4-0.629,4.4-3.932a4.8,4.8,0,0,1,.326-1.093c-1.017-.273-1.9-0.845-1.9-1.8,0-1.173,1.181-2.841,2.283-2.841a2.594,2.594,0,0,1,1.835,1.159,5.29,5.29,0,0,1,2.664-.46c-0.01-.053-0.018-0.107-0.026-0.16a0.664,0.664,0,0,1,.73-0.753c0.1,0.012.208,0.03,0.314,0.051A2.794,2.794,0,0,0,22.732,11.295Zm1.623,4.623a0.346,0.346,0,0,0-.319.3,0.663,0.663,0,0,1-.991.366,8.059,8.059,0,0,1-2.5-2.41l-0.01-.015q-0.061-.1-0.117-0.192a0.993,0.993,0,0,0-.531-0.332,3.846,3.846,0,0,0-2.653.512,0.655,0.655,0,0,1-.509.075,0.666,0.666,0,0,1-.409-0.312,2.186,2.186,0,0,0-1.044-1.019,2.248,2.248,0,0,0-.956,1.514,2.048,2.048,0,0,0,1.547.641,0.663,0.663,0,0,1,.556.856c-0.05.161-.132,0.367-0.22,0.589a5.312,5.312,0,0,0-.323.966,5.216,5.216,0,0,1-2.342,4.04,24.465,24.465,0,0,0,3.987-.133c2.695-.463,4.1-2.083,5.462-3.648,0.179-.207.358-0.412,0.534-0.608a0.666,0.666,0,0,1,.751-0.17,0.2,0.2,0,0,0,.2-0.029A0.624,0.624,0,0,0,24.355,15.918Zm-4.844,1.726a1.231,1.231,0,1,1,1.21-1.231A1.223,1.223,0,0,1,19.511,17.644Z"/>
</svg>
