<svg xmlns="http://www.w3.org/2000/svg" width="25" height="26" viewBox="0 0 25 26">
  <path fill="currentColor" d="M23.969,14.768a0.639,0.639,0,0,1-.077.161c0.019,0.152.036,0.309,0.051,0.471a16.961,16.961,0,0,1-.478,5.878c-1.247,4.3-5.117,4.752-8.664,4.752-0.491,0-.975-0.009-1.445-0.017s-0.9-.02-1.334-0.016c-0.372,0-.742,0-1.111.01-3.458.046-7.034,0.094-8.655-4.149a14.139,14.139,0,0,1-.68-6.507q0.011-.1.023-0.19l-0.023-.024L1.5,15.068a0.61,0.61,0,0,1-.047-0.062c-0.937-.957-1.674-2.957.087-5.476A18.122,18.122,0,0,1,4.4,6.415a4.775,4.775,0,0,1-.089-3.853A3.14,3.14,0,0,1,5.421,1.239,2.675,2.675,0,0,1,7.176.8a4.314,4.314,0,0,1,3.1,2.222,15.021,15.021,0,0,1,4.986,0A4.317,4.317,0,0,1,18.357.8a2.711,2.711,0,0,1,1.755.436,3.141,3.141,0,0,1,1.107,1.323,4.823,4.823,0,0,1-.194,4.085c0.189,0.2.44,0.451,0.7,0.708,0.4,0.394.854,0.843,1.3,1.343C23.808,9.586,26.117,12.207,23.969,14.768Zm-1.94-5.191c-0.413-.466-0.85-0.9-1.235-1.277a11.4,11.4,0,0,1-1.1-1.176A0.663,0.663,0,0,1,19.655,6.4a3.652,3.652,0,0,0,.359-3.285,1.815,1.815,0,0,0-.633-0.77,1.366,1.366,0,0,0-.9-0.224A3.535,3.535,0,0,0,16.147,4.1a0.661,0.661,0,0,1-.71.309,13.492,13.492,0,0,0-5.342,0A0.66,0.66,0,0,1,9.385,4.1,3.532,3.532,0,0,0,7.049,2.124a1.35,1.35,0,0,0-.9.222,1.815,1.815,0,0,0-.633.771,3.6,3.6,0,0,0,.288,3.158,0.663,0.663,0,0,1-.163.828,15.963,15.963,0,0,0-3,3.161,3.739,3.739,0,0,0-.727,2.555c0.327,1.716,2.394,3.41,4.978,4.531a3.409,3.409,0,0,0,2.694.181,0.631,0.631,0,0,0,.293-0.58c-0.121-.7-1.166-1.216-2.106-1.309a0.663,0.663,0,0,1,.131-1.32c1.4,0.14,3.031.951,3.282,2.4a1.907,1.907,0,0,1-.815,1.875,2.919,2.919,0,0,1-1.7.436A6.949,6.949,0,0,1,6.4,18.614a11.288,11.288,0,0,1-3.552-2.371A12.625,12.625,0,0,0,3.5,21.384a4.512,4.512,0,0,0,3.762,3.138A0.657,0.657,0,0,1,7.49,24.45c1.067-.107,2.285-0.605,2.392-1.225a0.633,0.633,0,0,0-.293-0.581c-0.221-.161-0.822-0.35-2.368.22a0.663,0.663,0,1,1-.459-1.244c1.645-.606,2.827-0.621,3.612-0.044a1.91,1.91,0,0,1,.815,1.875,2.1,2.1,0,0,1-.755,1.235l0.459-.005c0.376-.005.754-0.01,1.133-0.01,0.431-.007.891,0.008,1.353,0.016,0.5,0.009,1,.017,1.493.017a2.114,2.114,0,0,1-.775-1.253,1.909,1.909,0,0,1,.816-1.875c0.785-.578,1.967-0.562,3.612.044a0.663,0.663,0,1,1-.459,1.244c-1.545-.571-2.147-0.382-2.368-0.22a0.632,0.632,0,0,0-.294.581c0.107,0.619,1.325,1.118,2.392,1.225a0.631,0.631,0,0,1,.12.037,4.872,4.872,0,0,0,4.276-3.579,15.2,15.2,0,0,0,.456-4.841,15.382,15.382,0,0,1-3.763,2.516,6.255,6.255,0,0,1-2.27.455,2.924,2.924,0,0,1-1.7-.436,1.908,1.908,0,0,1-.814-1.876c0.251-1.451,1.877-2.263,3.281-2.4a0.663,0.663,0,0,1,.131,1.32c-0.94.094-1.985,0.608-2.106,1.309a0.632,0.632,0,0,0,.293.581,4.276,4.276,0,0,0,2.694-.181c1.19-.473,4.672-2.722,4.941-4.813A4.017,4.017,0,0,0,22.029,9.577Zm-8.406,1.808-0.518.7a0.258,0.258,0,0,0,.092.1,0.723,0.723,0,0,0,.756-0.013,0.663,0.663,0,1,1,.826,1.038,1.948,1.948,0,0,1-1.212.407,1.977,1.977,0,0,1-1.12-.339,2.074,2.074,0,0,1-2.332-.068,0.663,0.663,0,1,1,.826-1.038,0.725,0.725,0,0,0,.752.015,0.224,0.224,0,0,0,.1-0.12l0-.022L11.285,11.4a0.663,0.663,0,0,1,.518-1.076H13.09A0.663,0.663,0,0,1,13.623,11.385Zm-3.13-1.636a1.043,1.043,0,1,1,1.043-1.042A1.044,1.044,0,0,1,10.493,9.748Zm3.875,0a1.043,1.043,0,1,1,1.043-1.042A1.044,1.044,0,0,1,14.368,9.748Z"/>
</svg>
