<svg xmlns="http://www.w3.org/2000/svg" width="26" height="26" viewBox="0 0 26 26">
  <path class="cls-1" d="M25.435,16.243a4.97,4.97,0,0,1-2.021,3.91,4.833,4.833,0,0,1-4.159.221,8.041,8.041,0,0,1-.655.67,2.284,2.284,0,0,1,.642,1.472c0.058,1.521-1.474,2.775-3.489,2.854-0.065,0-.13,0-0.194,0-1.793,0-3.236-.96-3.472-2.282l-2.7-.292a2.341,2.341,0,0,1-.262,1.211c-0.763,1.446-2.868,1.782-4.791.766s-2.832-2.943-2.07-4.388a2.3,2.3,0,0,1,.349-0.49A7.985,7.985,0,0,1,.685,13.758l0.075-.7A8.058,8.058,0,0,1,9.633,5.921l0.982,0.106c-0.075-.208-0.141-0.407-0.2-0.6-0.392-1.34-.83-3.685.628-4.341a1.706,1.706,0,0,1,1.345-.016c0.893,0.35,1.83,1.459,2.8,3.307,0.233-1.694.835-3.7,2.375-3.7,2.521,0,2.521,4.59,2.521,6.318v1.41a6.223,6.223,0,0,1,4.168,2.9A8.156,8.156,0,0,1,25.435,16.243Zm-2.306-4.227a4.837,4.837,0,0,0-3.752-2.359A0.663,0.663,0,0,1,18.758,9V7c0-4.751-1-4.991-1.195-4.991-0.6,0-1.195,2.237-1.195,4.517a0.659,0.659,0,0,1-.063.283l1.089,2.562a0.663,0.663,0,1,1-1.22.52L14.886,6.859c-1.6-3.769-2.684-4.437-2.977-4.551a0.375,0.375,0,0,0-.318-0.01c-0.262.118-.372,1.142,0.1,2.759a12.551,12.551,0,0,0,.552,1.464L12.26,6.556a28.276,28.276,0,0,0,1.683,3.19,6.734,6.734,0,0,0,2.228,2.417,0.663,0.663,0,0,1-.654,1.154,7.971,7.971,0,0,1-2.7-2.874A29.762,29.762,0,0,1,11.2,7.424L9.491,7.239A6.731,6.731,0,0,0,2.079,13.2L2,13.9a6.684,6.684,0,0,0,2.061,5.6,0.664,0.664,0,0,1-.156,1.072,1.043,1.043,0,0,0-.467.442c-0.4.761,0.292,1.95,1.516,2.6s2.6,0.549,3-.212A1.281,1.281,0,0,0,7.93,22.3a0.663,0.663,0,0,1,.682-0.919L12.447,21.8c0.106,0.011.215,0.02,0.325,0.027a0.663,0.663,0,0,1,.618.765,0.777,0.777,0,0,0-.009.152c0.029,0.753,1.084,1.34,2.322,1.3s2.243-.725,2.214-1.477a1.224,1.224,0,0,0-.7-0.941,0.663,0.663,0,0,1-.062-1.108,6.817,6.817,0,0,0,1.364-1.338,0.662,0.662,0,0,1,.781-0.208,3.825,3.825,0,0,0,3.408.058,3.74,3.74,0,0,0,1.407-2.9A6.8,6.8,0,0,0,23.129,12.016Zm-2.575,3.842a1.231,1.231,0,1,1,1.231-1.231A1.233,1.233,0,0,1,20.555,15.858Zm0-1.326a0.1,0.1,0,0,0-.1.095c0,0.105.19,0.105,0.19,0A0.1,0.1,0,0,0,20.555,14.532Z"/>
</svg>
