<svg xmlns="http://www.w3.org/2000/svg" width="26" height="26" viewBox="0 0 26 26">
  <path fill="currentColor" d="M24.887,16.471a2.075,2.075,0,0,1-3.157.075c-0.035.041-.071,0.082-0.107,0.122-0.336.371-.674,0.75-1.013,1.131-0.7.783-1.417,1.593-2.142,2.342l0,0a1.517,1.517,0,0,1-.125.135A5.925,5.925,0,0,1,16.02,21.66a0.658,0.658,0,0,1-.057.247,11.346,11.346,0,0,0-.385,1.114,3.551,3.551,0,0,1-.843,1.777,3.081,3.081,0,0,1-1.895.565,5.278,5.278,0,0,1-.554-0.03,2.894,2.894,0,0,1-2.814-2.922,3.828,3.828,0,0,1,.628-1.4l-0.174-.1c-0.02-.011-0.039-0.023-0.057-0.036L9.746,20.8c-0.061-.036-0.116-0.069-0.137-0.082-0.04-.024-0.094-0.06-0.149-0.1l-0.375-.268L9.042,20.32h0L8.876,20.19l-0.029.017c-2.52,1.34-2.712,1.322-2.956,1.3a1.507,1.507,0,0,1-1.34-1.34c-0.022-.245-0.038-0.436,1.3-2.956,0.005-.01.01-0.02,0.016-0.028l-0.6-.851c-0.027-.047-0.06-0.1-0.081-0.136a0.688,0.688,0,0,1-.043-0.067l-0.091-.172a3.862,3.862,0,0,1-1.4.629A2.9,2.9,0,0,1,.725,13.772a3.356,3.356,0,0,1,.535-2.447,3.021,3.021,0,0,1,1.662-.807,7.611,7.611,0,0,0,1.152-.386A0.673,0.673,0,0,1,4.4,10.068a5.8,5.8,0,0,1,1.656-2.6L9.391,4.435c0.04-.036.08-0.071,0.121-0.106a2.072,2.072,0,0,1,.076-3.157A2.449,2.449,0,0,1,11.917.558a4.834,4.834,0,0,1,2.318,1.355,3.313,3.313,0,0,1,.594.788,0.661,0.661,0,0,1,.075.268,8.913,8.913,0,0,1,3.057,1.046,4.277,4.277,0,0,1,.479-0.572A4.128,4.128,0,0,1,20.62,2.289a3.5,3.5,0,0,1,2.609.511,3.368,3.368,0,0,1,.54,2.64,4.117,4.117,0,0,1-1.153,2.176,4.193,4.193,0,0,1-.572.48,8.923,8.923,0,0,1,1.045,3.037,0.67,0.67,0,0,1,.2.063,3.232,3.232,0,0,1,.854.628A4.836,4.836,0,0,1,25.5,14.142,2.453,2.453,0,0,1,24.887,16.471ZM4.115,11.542c-0.281.1-.569,0.178-0.835,0.252a4.321,4.321,0,0,0-.974.343,2.138,2.138,0,0,0-.262,1.5,1.617,1.617,0,0,0,1.467,1.633c0.041-.017.4-0.182,1.008-0.532A8.107,8.107,0,0,1,4.115,11.542Zm8.309,12.471a2.166,2.166,0,0,0,1.48-.252,7.9,7.9,0,0,0,.407-1.134c0.07-.226.142-0.456,0.216-0.674a8.055,8.055,0,0,1-3.2-.415,7.534,7.534,0,0,0-.542,1.061A1.631,1.631,0,0,0,12.425,24.014Zm-6.5-3.876a0.175,0.175,0,0,0,.032.026c0.182-.07.663-0.282,1.909-0.938L6.833,18.2C6.177,19.441,5.964,19.922,5.9,20.1A0.2,0.2,0,0,0,5.923,20.138ZM13.3,2.85a3.511,3.511,0,0,0-1.657-1,1.722,1.722,0,0,0-.36-0.041,1.023,1.023,0,0,0-.754.3c-0.451.45-.606,0.666,0.1,1.479q0.23-.118.473-0.217a7.524,7.524,0,0,1,2.25-.472ZM11.58,4.607a4.42,4.42,0,0,0-1.3.811L6.943,8.447C5,10.207,5.137,13.12,6.089,15.081h0c0.022,0.039.046,0.086,0.077,0.145l0.121,0.231c0.032,0.048.069,0.112,0.123,0.205l0.666,0.892,0.01,0.011,0.18,0.189,2.57,2.506,0.029,0.023,0.552,0.376c0.088,0.052.147,0.086,0.193,0.117,1.993,1.122,4.962,1.324,6.806-.459l0.085-.084,0.014-.014c0.706-.731,1.417-1.529,2.1-2.3,0.342-.384.682-0.766,1.021-1.141a4.428,4.428,0,0,0,.817-1.313c1.134-3.013-.348-5.98-2.114-7.748S14.608,3.468,11.58,4.607ZM22.465,5.2a2.363,2.363,0,0,0-.174-1.462,2.636,2.636,0,0,0-1.432-.144,2.806,2.806,0,0,0-1.479.786,3.012,3.012,0,0,0-.3.355,11,11,0,0,1,2.246,2.246,2.848,2.848,0,0,0,.355-0.3A2.8,2.8,0,0,0,22.465,5.2ZM24.2,14.42a3.507,3.507,0,0,0-1-1.658l-0.047-.046a7.493,7.493,0,0,1-.468,2.23q-0.1.253-.223,0.49c0.811,0.7,1.032.547,1.48,0.1A1.144,1.144,0,0,0,24.2,14.42Zm-3.99-.215a4.234,4.234,0,0,1-.788,1.269c-0.229.253-.459,0.512-0.691,0.772-0.494.555-1.005,1.129-1.521,1.663l0,0c-0.024.029-.051,0.057-0.08,0.086a4.56,4.56,0,0,1-3.238,1.261,5.969,5.969,0,0,1-2.9-.77l-0.048-.03-0.1-.059-0.067-.039-0.123-.081-0.115-.08-0.1-.07-0.589-.508L8,15.7c-0.019-.024-0.049-0.062-0.077-0.1l-0.319-.487a0.55,0.55,0,0,1-.036-0.058l-0.164-.31-0.013-.026a5.107,5.107,0,0,1,.855-5.971l2.336-2.119a4.22,4.22,0,0,1,1.253-.782,6.281,6.281,0,0,1,6.644,1.727A6.277,6.277,0,0,1,20.215,14.205Zm-1.235-.483a4.074,4.074,0,0,0,.21-0.814H17.4a2.973,2.973,0,0,1-.088.43,2.46,2.46,0,0,1-.457.74l-0.25.278,1.076,1.076,0.061-.067c0.234-.264.467-0.525,0.7-0.781A2.893,2.893,0,0,0,18.98,13.722ZM11.709,11.24a1.569,1.569,0,0,0-.2,1.8l0.056,0.106L11.6,13.208l-0.518.424,0.561-.356L11.7,13.349l0.059,0.072-0.461.479,0.508-.427,0.743,0.745-0.386.547,0.457-.48c0.012,0.009.043,0.036,0.055,0.046l-0.336.579,0.414-.518-0.314.589,0.374-.548L12.9,14.492l0,0a1.622,1.622,0,0,0,1.867-.088l0.019-.02h0l0.007-.007c0.243-.251.482-0.521,0.72-0.787l0.361-.4a1.111,1.111,0,0,0,.2-0.331,2.17,2.17,0,0,0-.642-2.232h0a2.171,2.171,0,0,0-2.249-.636,1.1,1.1,0,0,0-.315.2Zm0.328,3.505,0.039-.058-0.048.048Zm2.441-6.1a3.652,3.652,0,0,1,1.368.635l1.2-1.2a5.6,5.6,0,0,0-2.571-1.191V8.64ZM16.247,17l0.014-.015c0.176-.182.35-0.384,0.526-0.575L15.71,15.333a2.667,2.667,0,0,1-1.488.7V17.9a3.167,3.167,0,0,0,1.975-.844Zm-5.164-.059,0.087,0.068,0.145,0.108L11,17.708l0.369-.55-0.286.606,0.362-.556,0.066,0.041c0.072,0.042.121,0.07,0.16,0.1A4.571,4.571,0,0,0,12.9,17.8V15.91a3.252,3.252,0,0,1-.65-0.268,0.42,0.42,0,0,1-.04-0.024l-0.2-.13-0.082-.06-0.064-.049c-0.014-.011-0.1-0.083-0.112-0.1l-0.016-.014-1.163,1.163ZM8.623,14.21l0.1,0.185c0.022,0.034.047,0.075,0.079,0.131l0.318,0.452,0.068,0.08,0.194,0.209L9.619,15.5l1.17-1.171,0,0-0.054-.061-0.073-.091L10.6,14.1l0.513-.423-0.561.356-0.065-.1-0.033-.055h0A0.66,0.66,0,0,1,10.41,13.8l-0.09-.171a3.172,3.172,0,0,1-.148-0.467H8.251a4.581,4.581,0,0,0,.336.979h0C8.6,14.162,8.61,14.186,8.623,14.21ZM8.15,11.836h1.873a2.565,2.565,0,0,1,.715-1.475L9.649,9.271l-0.51.462A3.116,3.116,0,0,0,8.15,11.836Zm3.326-4.222-0.844.765,1.073,1.074L11.982,9.2a2.407,2.407,0,0,1,.723-0.451,3.023,3.023,0,0,1,.446-0.092V6.873a4.128,4.128,0,0,0-.831.212A2.866,2.866,0,0,0,11.476,7.614Zm6.511,1.4-1.2,1.2a3.665,3.665,0,0,1,.636,1.369h1.761A5.6,5.6,0,0,0,17.987,9.01Z"/>
</svg>
