<svg xmlns="http://www.w3.org/2000/svg" width="28" height="26" viewBox="0 0 28 26">
  <path fill="currentColor" d="M26.476,6.826A9.392,9.392,0,0,1,25.66,8.3V8.358a13.339,13.339,0,0,1-1.729,6.928c-0.236,1.128-.568,2.737-0.765,3.915,1.34,0.482,1.97,1.212,1.872,2.17-0.066.647-.533,1.732-2.924,1.732h-0.73a3.192,3.192,0,0,1-2.822-2.118c-0.209-.6-0.405-1.211-0.586-1.83-0.873-.056-1.766-0.137-2.54-0.209-1.2-.112-2.563-0.238-3.744-0.255a8.428,8.428,0,0,1-1.419,1.721l-0.041.1a13.413,13.413,0,0,0,3.457.423c0.22,0,.431,0,0.628-0.012l0.168,0c1.3,0,2.167.549,2.322,1.468,0.07,0.409.066,1.419-1.475,1.957a15.886,15.886,0,0,1-5.071.81,14.99,14.99,0,0,1-4.295-.611,9.909,9.909,0,0,1-2.738-1.227A4.041,4.041,0,0,1,1.9,22.163c-0.034-.043-0.066-0.086-0.1-0.13l-0.05-.068C1.7,21.9,1.648,21.828,1.6,21.757c-0.066-.095-0.125-0.189-0.183-0.282l-0.081-.124a2.315,2.315,0,0,1-.13-0.2,0.628,0.628,0,0,1-.039-0.09,8.345,8.345,0,0,1-.694-5.643A8.988,8.988,0,0,1,9.106,8.127a8.827,8.827,0,0,1,4.9,1.245,8.1,8.1,0,0,0,.8.407,4.232,4.232,0,0,0,1.387.262A2.144,2.144,0,0,0,17.33,9.76,4.5,4.5,0,0,0,18.044,7.7a10.769,10.769,0,0,1-.648-1.32c-0.013-.031-0.023-0.062-0.032-0.091l-0.02-.06a4.554,4.554,0,0,1-.786-2.359c0-2.412.708-3.635,2.1-3.635a3.132,3.132,0,0,1,2.073,1.034,10.151,10.151,0,0,1,1.3-.082,10.044,10.044,0,0,1,1.484.1A3.285,3.285,0,0,1,25.639.231c2.04,0,2.04,2.547,2.04,3.635A5.034,5.034,0,0,1,26.476,6.826ZM25.641,1.588a2.76,2.76,0,0,0-1.625,1.188A7.2,7.2,0,0,0,22.04,2.54a7.449,7.449,0,0,0-1.825.2,2.5,2.5,0,0,0-1.551-1.15c-0.536,0-.776.888-0.776,2.307a3.235,3.235,0,0,0,.646,1.746c0.029,0.087.059,0.175,0.1,0.263a9.464,9.464,0,0,0,.789,1.543,6.1,6.1,0,0,1-1.176,3.33,4.239,4.239,0,0,1-3.872.283c-1.382-.556-2.157-1.577-5.262-1.577a7.676,7.676,0,0,0-7.336,6.228,6.988,6.988,0,0,0,.557,4.7,0.409,0.409,0,0,0,.038.12,4.8,4.8,0,0,0,.488.709c0.03,0.04.052,0.081,0.083,0.121a2.628,2.628,0,0,0,.947.831A8.626,8.626,0,0,0,6.348,23.3a14.615,14.615,0,0,0,8.546-.181c1.138-.4.509-0.879-0.526-0.84a16.182,16.182,0,0,1-3.755-.29A6.32,6.32,0,0,1,7.431,20.76c-0.7-.495-0.566-0.97-0.388-1.148a0.858,0.858,0,0,1,1,.129c0.266,0.16.556,0.346,0.87,0.533,0.08-.207.163-0.419,0.235-0.594A7.37,7.37,0,0,0,10.915,17.4c2.4-.08,5.471.413,8.088,0.5,0.2,0.765.47,1.68,0.817,2.672A1.866,1.866,0,0,0,21.387,21.8h0.73c2.134,0,2.279-1.047-.422-1.6,0.087-1.059.619-3.651,0.982-5.342a12.2,12.2,0,0,0,1.656-6.472c0-.169,0-0.321,0-0.464A8.385,8.385,0,0,0,25.371,6.1,3.7,3.7,0,0,0,26.352,3.9C26.352,2.451,26.177,1.588,25.641,1.588ZM23.885,5.127a0.59,0.59,0,1,1,.59-0.59A0.59,0.59,0,0,1,23.885,5.127Zm-1.74,2.317a2.512,2.512,0,0,1-.957-0.963,2.168,2.168,0,0,1,.95-0.905,2.231,2.231,0,0,1,.977.905A2.541,2.541,0,0,1,22.145,7.444ZM20.42,5.127a0.59,0.59,0,1,1,.59-0.59A0.59,0.59,0,0,1,20.42,5.127Z"/>
</svg>
