<svg xmlns="http://www.w3.org/2000/svg" width="27" height="24" viewBox="0 0 27 24">
  <path fill="currentColor" d="M26.346,13.96l-1.582.259a9.94,9.94,0,0,1-.262,1.121l0.969-.033a0.648,0.648,0,0,1,.685.64,0.663,0.663,0,0,1-.641.685l-1.507.051a11.493,11.493,0,0,1-10.516,6.479A11.493,11.493,0,0,1,2.977,16.684L1.47,16.633a0.663,0.663,0,0,1-.641-0.685,0.644,0.644,0,0,1,.685-0.64L2.483,15.34a9.946,9.946,0,0,1-.262-1.121L0.64,13.96a0.663,0.663,0,1,1,.214-1.309l1.224,0.2c0-.116-0.019-0.23-0.019-0.347a9.982,9.982,0,0,1,.571-3.334q0-.681.007-1.387C2.664,6.038,3.346,1.76,5.209.42a0.662,0.662,0,0,1,.8.022L9.538,3.288a12.309,12.309,0,0,1,3.955-.656,11.976,11.976,0,0,1,3.727.579l3.472-2.771a0.66,0.66,0,0,1,.8-0.02c1.49,1.072,2.523,4.031,2.571,7.364q0,0.336.007,0.669a9.971,9.971,0,0,1,.856,4.052c0,0.117-.015.231-0.019,0.347l1.224-.2A0.663,0.663,0,1,1,26.346,13.96ZM23.6,12.505A8.666,8.666,0,0,0,22.8,8.873a0.655,0.655,0,0,1-.06-0.272c0-.263,0-0.53-0.008-0.8a9.968,9.968,0,0,0-1.66-5.974L17.764,4.475a0.666,0.666,0,0,1-.636.107,10.659,10.659,0,0,0-3.635-.623,10.92,10.92,0,0,0-3.846.7,0.663,0.663,0,0,1-.652-0.1L5.628,1.837c-1,1.2-1.637,4.127-1.664,5.966-0.007.5-.01,0.994-0.007,1.478a0.671,0.671,0,0,1-.04.233,8.654,8.654,0,0,0-.532,2.991c0,0.191.019,0.378,0.031,0.566l4.544,0.745a0.663,0.663,0,0,1-.107,1.317,0.653,0.653,0,0,1-.108-0.009l-4.138-.678a8.68,8.68,0,0,0,.276.941l3.991,0.135a0.663,0.663,0,0,1-.022,1.326H7.832L4.5,16.735a10.229,10.229,0,0,0,9,5.1,10.229,10.229,0,0,0,9-5.1l-3.336.113H19.131a0.663,0.663,0,0,1-.022-1.326l3.991-.135a8.656,8.656,0,0,0,.276-0.941l-4.137.678a0.653,0.653,0,0,1-.108.009,0.663,0.663,0,0,1-.107-1.317l4.544-.745C23.581,12.883,23.6,12.7,23.6,12.505ZM17.013,12.4a1.149,1.149,0,1,1,1.15-1.149A1.15,1.15,0,0,1,17.013,12.4Zm-1.928,4.976a0.945,0.945,0,0,0,.944-0.944,0.663,0.663,0,0,1,1.326,0,2.268,2.268,0,0,1-3.862,1.615A2.268,2.268,0,0,1,9.63,16.429a0.663,0.663,0,0,1,1.326,0,0.945,0.945,0,0,0,1.88.131,0.659,0.659,0,0,1,.038-0.147l-1.112-1.76a0.663,0.663,0,0,1,.561-1.017h2.34a0.663,0.663,0,0,1,.573,1l-1.095,1.878c0,0.016.006,0.033,0.009,0.05A0.946,0.946,0,0,0,15.085,17.373ZM9.972,12.4a1.149,1.149,0,1,1,1.149-1.149A1.151,1.151,0,0,1,9.972,12.4Z"/>
</svg>
