<svg xmlns="http://www.w3.org/2000/svg" width="26" height="27" viewBox="0 0 26 27">
  <path fill="currentColor" d="M25.125,11.026a0.663,0.663,0,0,1-1.076.352,3.358,3.358,0,0,0-.853-0.529A3.23,3.23,0,0,1,20.3,13.793H20.283q-0.081.5-.178,1c-0.678,3.444-1.752,5.075-3.269,5.815v1.062a4.248,4.248,0,0,1,2.837.727,0.663,0.663,0,0,1-.8,1.059,2.326,2.326,0,0,0-.954-0.4c0.092,0.117.178,0.24,0.265,0.371a0.663,0.663,0,1,1-1.109.727,2.3,2.3,0,0,0-1.176-.995,3.292,3.292,0,0,0-.59.21,0.663,0.663,0,0,1-.584-1.19,4.546,4.546,0,0,1,.783-0.287V21.031a13.519,13.519,0,0,1-2.865.128v2.4a4.475,4.475,0,0,1,2.8.725,0.663,0.663,0,1,1-.773,1.078,2.336,2.336,0,0,0-.685-0.329c0.064,0.086.125,0.175,0.186,0.268a0.663,0.663,0,0,1-1.109.727,2.352,2.352,0,0,0-1.272-1.038,4.141,4.141,0,0,0-.919.279,0.663,0.663,0,1,1-.563-1.2,5.292,5.292,0,0,1,1.011-.333V21.1l-0.593-.029A4.012,4.012,0,0,0,9.439,23.1c-0.012.1-.018,0.224-0.026,0.366-0.043.786-.106,1.965-0.929,2.443a0.9,0.9,0,0,1-.864.11,1.5,1.5,0,0,1-.86-1.072,6.335,6.335,0,0,1-2.983.585c-0.822.049-2.75,0.155-2.857-1.355-0.051-.708.707-1.233,1.755-1.959a10.754,10.754,0,0,0,1.03-.768,5.359,5.359,0,0,0,1.742-3.823q-0.019-.76.028-1.5c0-.02,0-0.039,0-0.059a15.481,15.481,0,0,1,.183-1.544c0.219-1.013.4-1.968,0.563-2.88C6.462,10.376,6.692,9.151,7,8.021c-0.036.011-.067,0.03-0.1,0.041a3.487,3.487,0,0,1-.957.133,3.663,3.663,0,0,1-1.946-.566A0.663,0.663,0,0,1,4.7,6.506a2.288,2.288,0,0,0,1.834.28,1.829,1.829,0,0,0,.905-0.567,3.559,3.559,0,0,1-.721,0A3.838,3.838,0,0,1,4.023,4.652,0.663,0.663,0,0,1,5.094,3.87,2.505,2.505,0,0,0,6.853,4.9a2.068,2.068,0,0,0,1.286-.264A4.089,4.089,0,0,1,5.669,3.7a2.489,2.489,0,0,1-.732-2.439,0.663,0.663,0,0,1,1.3.25,1.2,1.2,0,0,0,.326,1.211,4.15,4.15,0,0,0,3.515.4,0.621,0.621,0,0,1,.063,0,9,9,0,0,1,5.687-.872,0.661,0.661,0,0,1,.09.016,6.3,6.3,0,0,1,3.439,2.145,4.391,4.391,0,0,1,.6,1.063,4.871,4.871,0,0,1,.618-0.04,4.619,4.619,0,0,1,4.666,4.56A4.526,4.526,0,0,1,25.125,11.026ZM5.816,20.959a6.5,6.5,0,0,1-1.21,1.469,11.393,11.393,0,0,1-1.175.884,11.745,11.745,0,0,0-1.1.821,3.926,3.926,0,0,0,1.368.08c2.124-.12,2.38-0.248,2.6-0.775C6.144,22.793,5.982,21.982,5.816,20.959Zm13.471-9.109a0.931,0.931,0,0,0,1.014.617,1.917,1.917,0,0,0,1.569-1.635,1.756,1.756,0,0,0-.02-0.26H21.843a3.856,3.856,0,0,0-2.574,1.238C19.276,11.823,19.282,11.836,19.288,11.849Zm-0.97-6.617a4.957,4.957,0,0,0-2.673-1.668c-6.455-.656-7.078,2.723-8.112,8.322-0.171.926-.35,1.894-0.566,2.891q-0.114.671-.163,1.371a12.938,12.938,0,0,1-.028,1.512,16.442,16.442,0,0,0,.152,1.769,38.6,38.6,0,0,0,.7,3.848,0.753,0.753,0,0,1,.02.078,9.262,9.262,0,0,0,.327,1.068A6.474,6.474,0,0,0,8.09,23.4c0.009-.177.018-0.334,0.033-0.454,0.159-1.316,1.151-2.306,2.2-3.354,1.7-1.7,3.312-3.307,1.6-6.388a0.663,0.663,0,0,1,1.16-.644c1.9,3.42.418,5.618-1.114,7.244,4.17,0.2,5.786.056,6.831-5.265,0.069-.351.132-0.708,0.188-1.066a2.268,2.268,0,0,1-.921-1.1,0.675,0.675,0,0,1-.042-0.131,0.679,0.679,0,0,1-.1-0.1,5.224,5.224,0,0,1-.98-4.313,3.036,3.036,0,0,1,1.722-1.994A2.888,2.888,0,0,0,18.317,5.232Zm2.261,1.529a3.425,3.425,0,0,0-1.227.225,1.754,1.754,0,0,0-1.125,1.2,3.626,3.626,0,0,0,.336,2.462,5.073,5.073,0,0,1,3.281-1.4,4.76,4.76,0,0,1,2.063.47A3.3,3.3,0,0,0,20.579,6.761ZM15.307,8.085a1.212,1.212,0,1,1,1.225-1.212A1.22,1.22,0,0,1,15.307,8.085Z"/>
</svg>
