<svg xmlns="http://www.w3.org/2000/svg" width="26" height="24" viewBox="0 0 26 24">
  <path fill="currentColor" d="M25.347,11.5A12.2,12.2,0,0,1,12.935,23.452,12.575,12.575,0,0,1,4.168,19.96a11.635,11.635,0,0,1-.5-16.417,1.158,1.158,0,0,1-.355-0.812c0-2.508,8.635-2.58,9.619-2.58s9.62,0.072,9.62,2.58a1.158,1.158,0,0,1-.355.812A11.616,11.616,0,0,1,25.347,11.5ZM2.6,7.653A10.23,10.23,0,0,0,1.849,11.5,10.339,10.339,0,0,0,5.087,19a11.257,11.257,0,0,0,7.848,3.122A10.876,10.876,0,0,0,24.021,11.5a10.23,10.23,0,0,0-.8-3.968,5.235,5.235,0,0,0-.613.329,3.283,3.283,0,0,1-1.659.615,3.657,3.657,0,0,1-1.71-.6,2.792,2.792,0,0,0-1.066-.436,2.385,2.385,0,0,0-.977.426,3.281,3.281,0,0,1-1.658.615,3.657,3.657,0,0,1-1.711-.6,2.79,2.79,0,0,0-1.066-.436,2.379,2.379,0,0,0-.977.426,3.283,3.283,0,0,1-1.659.615,3.657,3.657,0,0,1-1.71-.6A2.791,2.791,0,0,0,7.35,7.434a2.379,2.379,0,0,0-.977.426,3.283,3.283,0,0,1-1.659.615A3.658,3.658,0,0,1,3,7.87C2.868,7.794,2.731,7.721,2.6,7.653ZM12.935,1.477c-4.864,0-7.645.78-8.225,1.254,0.58,0.474,3.36,1.254,8.225,1.254s7.646-.78,8.226-1.254C20.58,2.256,17.8,1.477,12.935,1.477Zm8.11,2.776c-2.521,1.019-7.386,1.058-8.11,1.058s-5.589-.039-8.11-1.058A10.645,10.645,0,0,0,3.178,6.462C3.34,6.543,3.5,6.627,3.649,6.711a2.793,2.793,0,0,0,1.066.436,2.379,2.379,0,0,0,.977-0.426A3.28,3.28,0,0,1,7.35,6.107a3.655,3.655,0,0,1,1.71.6,2.794,2.794,0,0,0,1.066.436A2.379,2.379,0,0,0,11.1,6.722a3.28,3.28,0,0,1,1.659-.615,3.656,3.656,0,0,1,1.709.6,2.792,2.792,0,0,0,1.067.437,2.377,2.377,0,0,0,.976-0.426,3.283,3.283,0,0,1,1.659-.615,3.656,3.656,0,0,1,1.71.6,2.793,2.793,0,0,0,1.066.436,2.379,2.379,0,0,0,.977-0.426,7.078,7.078,0,0,1,.695-0.377A10.652,10.652,0,0,0,21.045,4.253ZM6.194,11.061a4.647,4.647,0,0,1,7.291.563,0.663,0.663,0,0,1,0,.757,4.644,4.644,0,0,1-7.295.56L4.849,14.076a0.663,0.663,0,1,1-.857-1.012L5.249,12,3.97,10.948a0.663,0.663,0,0,1,.842-1.024Zm5.027,1.645A3.476,3.476,0,0,0,12.1,12a3.486,3.486,0,0,0-.862-0.694A1.143,1.143,0,0,0,11.221,12.706Zm-1.3.405A2.363,2.363,0,0,1,9.946,10.9,3.349,3.349,0,0,0,7.128,12,3.346,3.346,0,0,0,9.925,13.111Zm4.213,1.5a4.7,4.7,0,0,1,3.418,1.507l1.382-1.137a0.663,0.663,0,1,1,.843,1.024L18.5,17.058l1.256,1.063a0.663,0.663,0,1,1-.857,1.012L17.56,18a4.646,4.646,0,0,1-7.3-.559,0.663,0.663,0,0,1,0-.757A4.741,4.741,0,0,1,14.138,14.611Zm-0.313,3.557a3.342,3.342,0,0,0,2.8-1.107A3.354,3.354,0,0,0,13.8,15.955,2.363,2.363,0,0,1,13.825,18.168Zm-1.3-.405a1.141,1.141,0,0,0-.014-1.4,3.492,3.492,0,0,0-.862.7A3.472,3.472,0,0,0,12.529,17.763Z"/>
</svg>
