<svg xmlns="http://www.w3.org/2000/svg" width="29" height="27" viewBox="0 0 29 27">
  <path id="Color_Fill_1" data-name="Color Fill 1" fill="currentColor" d="M27.569,7.13a56.832,56.832,0,0,1,.6,8.518,11.1,11.1,0,0,1-2.908,8.011A9.114,9.114,0,0,1,18.541,26.1l-8.533-.01c-1.247,0-2.242,0-2.731.009H7.211c-1.926,0-3.047-1.058-3.273-2.181A2.227,2.227,0,0,1,4.447,22,8.935,8.935,0,0,1,.759,14.679a9.76,9.76,0,0,1,9.749-9.749A9.539,9.539,0,0,1,17.3,7.8a9.975,9.975,0,0,1,1.992,2.909c0.2-1.3.355-2.506,0.445-3.493A3.753,3.753,0,0,1,21.92,4.08l0-2.674a0.661,0.661,0,0,1,1.322,0V3.744l0.038,0A2.76,2.76,0,0,1,23.6,3.715a4.237,4.237,0,0,1,.637.049A5.038,5.038,0,0,1,25.3,1.01a0.735,0.735,0,0,1,.571-0.3,0.625,0.625,0,0,1,.337.1,0.7,0.7,0,0,1,.31.466,0.564,0.564,0,0,1-.111.452,4.2,4.2,0,0,0-.9,2.294,0.647,0.647,0,0,1-.031.147A3.909,3.909,0,0,1,27.569,7.13Zm-8.8,6.32a8.588,8.588,0,0,0-8.265-7.115,8.437,8.437,0,0,0-8.427,8.427,7.593,7.593,0,0,0,4.608,7.091,7.52,7.52,0,0,0,2.042.262,9.182,9.182,0,0,0,2.72-.4,5.138,5.138,0,0,0,3.443-5.149c-0.178-2.484-1.658-3.966-3.959-3.966a2.794,2.794,0,0,0-2.466,1.322,2.263,2.263,0,0,0-.16,2.194A0.662,0.662,0,0,1,8.031,17a0.67,0.67,0,0,1-.307.076,0.659,0.659,0,0,1-.586-0.355,3.587,3.587,0,0,1,.2-3.492,4.086,4.086,0,0,1,3.6-1.96c3.027,0,5.049,1.991,5.278,5.194a5.7,5.7,0,0,1-.025,1.017,7.226,7.226,0,0,0,2.6-4.01Zm4.761-8.413a2.455,2.455,0,0,0-2.551,2.3c-0.168,1.834-.49,3.863-0.73,5.242a0.517,0.517,0,0,1,.032.313A9.147,9.147,0,0,1,15.7,19.46l-0.056.027a6.2,6.2,0,0,1-3.792,3.483,10.509,10.509,0,0,1-3.113.466A7.933,7.933,0,0,1,5.5,22.8a1.383,1.383,0,0,0-.223,1.332c0.19,0.477.773,0.774,1.842,0.774H7.187c0.493-.01,1.5-0.014,2.751-0.014s2.77,0,4.279.007,3.008,0.007,4.254.007a7.692,7.692,0,0,0,5.781-1.99,10.276,10.276,0,0,0,2.524-7.259,55.46,55.46,0,0,0-.585-8.334A2.6,2.6,0,0,0,23.534,5.036Zm1.036,3.4a0.766,0.766,0,1,1,.766-0.766A0.767,0.767,0,0,1,24.57,8.438Zm-2.125,0a0.766,0.766,0,1,1,.766-0.766A0.767,0.767,0,0,1,22.445,8.438Z"/>
</svg>
