<svg xmlns="http://www.w3.org/2000/svg" width="19" height="19" viewBox="0 0 19 19">
  <path id="shpriz_icon" data-name="shpriz icon" fill="currentColor" d="M18.022,4.712a0.727,0.727,0,0,1-.857.15L16.1,3.688l-2.2,2.2,3.119,3.12a0.5,0.5,0,0,1,0,.707,0.727,0.727,0,0,1-.857.15L15.127,8.78,9.51,14.4a1,1,0,0,1-1.414,0l-0.707-.707-0.031.031a1,1,0,0,1-1.414,0l-0.056-.056L1.008,18.037,0.92,17.949,5.292,13.07l-0.056-.056a1,1,0,0,1,0-1.414l0.031-.031-0.649-.649a1,1,0,0,1,0-1.414l5.721-5.721L9.244,2.642a0.5,0.5,0,0,1,.707-0.707L11.777,3.76h0l1.294,1.294,2.238-2.238L14.244,1.641A0.5,0.5,0,0,1,14.951.934l1.119,1.12L16.1,2.02l0.832,0.832L16.9,2.886l1.119,1.12A0.5,0.5,0,0,1,18.022,4.712Zm-6.953-.245L9.6,5.94,11.49,7.833l-0.707.707L8.889,6.647,7.6,7.94,9.49,9.834l-0.707.707L6.889,8.647,5.325,10.212,8.8,13.689l5.745-5.745Z"/>
  <path id="line" fill="#cc3333" data-name="line" d="M3.529,2.822L16.174,15.467l-0.707.707L2.822,3.529Z"/>
</svg>
