<?xml version="1.0" encoding="UTF-8" standalone="no"?>
<svg width="31px" height="30px" viewBox="0 0 31 30" version="1.1" xmlns="http://www.w3.org/2000/svg" xmlns:xlink="http://www.w3.org/1999/xlink" xmlns:sketch="http://www.bohemiancoding.com/sketch/ns">
    <g id="Page-1" stroke="none" stroke-width="1" fill="none" fill-rule="evenodd" sketch:type="MSPage">
        <g id="9-star-big-hover-2" sketch:type="MSLayerGroup" stroke="#EC9B00" fill="#FFD84C">
            <path d="M7.617,29.13 C7.03982588,29.1300108 6.49078732,28.8806739 6.1109869,28.4460688 C5.73118648,28.0114636 5.55765867,27.4339688 5.635,26.862 L6.681,19.146 L1.3,13.519 C0.791412842,12.9871235 0.615997702,12.2189159 0.843313391,11.5190009 C1.07062908,10.8190859 1.66394934,10.3005451 2.388,10.169 L10.05,8.779 L13.739,1.922 C14.0877827,1.27408481 14.7641716,0.870018281 15.5,0.87 L15.5,0.87 C16.2364015,0.869848176 16.9133139,1.27438209 17.262,1.923 L20.95,8.779 L28.611,10.168 C29.3352226,10.2992525 29.9288311,10.8176771 30.1563719,11.5176419 C30.3839127,12.2176068 30.2086111,12.9859846 29.7,13.518 L24.318,19.145 L25.364,26.861 C25.462695,27.5903176 25.1528681,28.3149129 24.5573955,28.7474141 C23.9619229,29.1799153 23.177029,29.2504329 22.514,28.931 L15.5,25.553 L8.485,28.932 C8.21421809,29.0623778 7.91753487,29.1300544 7.617,29.13 L7.617,29.13 Z" id="star" sketch:type="MSShapeGroup"></path>
        </g>
    </g>
</svg>