<?xml version="1.0" encoding="UTF-8" standalone="no"?>
<svg width="21px" height="19px" viewBox="0 0 21 19" version="1.1" xmlns="http://www.w3.org/2000/svg" xmlns:xlink="http://www.w3.org/1999/xlink" xmlns:sketch="http://www.bohemiancoding.com/sketch/ns">
    <!-- Generator: Sketch 3.2.2 (9983) - http://www.bohemiancoding.com/sketch -->
    <title>star</title>
    <desc>Created with Sketch.</desc>
    <defs></defs>
    <g id="Page-1" stroke="none" stroke-width="1" fill="none" fill-rule="evenodd" sketch:type="MSPage">
        <g id="star" sketch:type="MSLayerGroup">
            <path d="M15.827,17.902 C15.753,17.902 15.679,17.884 15.61,17.851 L10.5,15.388 L5.388,17.851 C5.319,17.884 5.245,17.902 5.171,17.902 C5.067,17.902 4.964,17.869 4.877,17.806 C4.728,17.697 4.651,17.517 4.675,17.333 L5.438,11.71 L1.516,7.61 C1.389,7.477 1.345,7.285 1.402,7.11 C1.459,6.935 1.608,6.805 1.788,6.772 L7.374,5.76 L10.06,0.763 C10.147,0.601 10.316,0.5 10.5,0.5 C10.684,0.5 10.853,0.601 10.94,0.763 L13.626,5.76 L19.209,6.772 C19.391,6.805 19.539,6.935 19.596,7.11 C19.653,7.285 19.609,7.477 19.482,7.61 L15.56,11.711 L16.323,17.334 C16.348,17.518 16.27,17.697 16.122,17.807 C16.034,17.869 15.931,17.902 15.827,17.902 L15.827,17.902 Z" id="Shape" fill="#FFD84C" sketch:type="MSShapeGroup"></path>
            <path d="M10.5,1 L13.3,6.209 L19.12,7.264 L15.032,11.539 L15.827,17.402 L10.5,14.834 L5.171,17.402 L5.966,11.539 L1.877,7.264 L7.7,6.209 L10.5,1 L10.5,1 Z M10.5,0 C10.132,0 9.793,0.202 9.619,0.526 L7.047,5.311 L1.699,6.28 C1.336,6.346 1.04,6.605 0.926,6.955 C0.812,7.305 0.9,7.689 1.155,7.955 L4.911,11.882 L4.181,17.267 C4.131,17.632 4.286,17.994 4.584,18.21 C4.758,18.337 4.964,18.401 5.172,18.401 C5.32,18.401 5.468,18.368 5.606,18.301 L10.501,15.944 L15.394,18.301 C15.533,18.367 15.681,18.401 15.829,18.401 C16.036,18.401 16.243,18.337 16.417,18.21 C16.715,17.993 16.869,17.632 16.82,17.267 L16.09,11.882 L19.845,7.954 C20.1,7.688 20.187,7.304 20.074,6.954 C19.96,6.604 19.663,6.345 19.302,6.279 L13.955,5.31 L11.384,0.525 C11.206,0.202 10.868,0 10.5,0 L10.5,0 L10.5,0 Z" id="Shape" fill="#FFC700" sketch:type="MSShapeGroup"></path>
        </g>
    </g>
</svg>