<?xml version="1.0" encoding="UTF-8" standalone="no"?>
<svg width="19px" height="19px" viewBox="0 0 19 19" version="1.1" xmlns="http://www.w3.org/2000/svg" xmlns:xlink="http://www.w3.org/1999/xlink" xmlns:sketch="http://www.bohemiancoding.com/sketch/ns">
    <!-- Generator: Sketch 3.2.2 (9983) - http://www.bohemiancoding.com/sketch -->
    <title>star</title>
    <desc>Created with Sketch.</desc>
    <defs></defs>
    <g id="Page-1" stroke="none" stroke-width="1" fill="none" fill-rule="evenodd" sketch:type="MSPage">
        <g sketch:type="MSLayerGroup" transform="translate(0.000000, 1.000000)" id="star" fill="#979797">
            <path d="M9.94040647,0.063267784 C9.75172027,-0.287755928 9.24827973,-0.287755928 9.05959353,0.063267784 L6.25959353,5.27226778 L6.61086214,5.01700971 L0.787862141,6.07200971 C0.395818803,6.14303938 0.240277153,6.62168195 0.515673565,6.90960557 L4.60467356,11.1846056 L4.4705372,10.7717942 L3.6755372,16.6327942 C3.62199508,17.0275243 4.02901611,17.323313 4.38792052,17.1504947 L9.71692052,14.5844947 L9.28307948,14.5844947 L14.6120795,17.1504947 C14.9709793,17.3233108 15.3779968,17.0275316 15.3244643,16.6328055 L14.5294643,10.7708055 L14.3953264,11.1836056 L18.4843264,6.90860557 C18.7597488,6.62065477 18.6041482,6.14196607 18.212056,6.0709949 L12.389056,5.0169949 L12.7404065,5.27226778 L9.94040647,0.063267784 Z M12.210944,6.0010051 L18.033944,7.0550051 L17.7616736,6.21739443 L13.6726736,10.4923944 C13.5674533,10.6024009 13.5180782,10.7543495 13.5385357,10.9051945 L14.3335357,16.7671945 L15.0459205,16.2495053 L9.71692052,13.6835053 C9.57983886,13.6174982 9.42016114,13.6174982 9.28307948,13.6835053 L3.95407948,16.2495053 L4.6664628,16.7672058 L5.4614628,10.9062058 C5.48192425,10.7553573 5.43254943,10.6034038 5.32732644,10.4933944 L1.23832644,6.21839443 L0.966137859,7.05599029 L6.78913786,6.00099029 C6.93899113,5.97384016 7.06830119,5.87987378 7.14040647,5.74573222 L9.94040647,0.536732216 L9.05959353,0.536732216 L11.8595935,5.74573222 C11.9317126,5.87989947 12.0610575,5.9738747 12.210944,6.0010051 Z" sketch:type="MSShapeGroup"></path>
        </g>
    </g>
</svg>