<svg xmlns="http://www.w3.org/2000/svg" width="31" height="30" viewBox="0 0 31 30">
  <path id="star" data-name="star" d="M29.7,13.519l-5.382,5.627,1.046,7.716a2,2,0,0,1-2.85,2.07L15.5,25.553,8.485,28.932a2,2,0,0,1-2.85-2.07l1.046-7.716L1.3,13.519a2,2,0,0,1,1.088-3.35L10.05,8.779l3.689-6.857a2,2,0,0,1,3.523,0l3.688,6.856,7.661,1.389A2,2,0,0,1,29.7,13.519Zm-0.494-1.691a1,1,0,0,0-.773-0.675L20.771,9.763a1,1,0,0,1-.7-0.51L16.381,2.4a1,1,0,0,0-1.762,0L10.931,9.253a1,1,0,0,1-.7.51l-7.66,1.389a1,1,0,0,0-.544,1.675L7.4,18.454a1,1,0,0,1,.268.826L6.626,27A1,1,0,0,0,8.051,28.03l7.015-3.379a1,1,0,0,1,.868,0l7.014,3.38A1,1,0,0,0,24.372,27L23.326,19.28a1,1,0,0,1,.269-0.826l5.382-5.627A1,1,0,0,0,29.205,11.827Z"/>
</svg>
