<?xml version="1.0" encoding="UTF-8" standalone="no"?>
<svg width="16px" height="16px" viewBox="0 0 16 16" version="1.1" xmlns="http://www.w3.org/2000/svg" xmlns:xlink="http://www.w3.org/1999/xlink" xmlns:sketch="http://www.bohemiancoding.com/sketch/ns">
    <path  fill="currentColor" d="M8,16 C12.418278,16 16,12.418278 16,8 C16,3.581722 12.418278,0 8,0 C3.581722,0 0,3.581722 0,8 C0,12.418278 3.581722,16 8,16 L8,16 Z M12.67,4.664 C13.2222824,4.59789848 13.7615776,4.4495923 14.27,4.224 C13.8961785,4.78469218 13.4254978,5.27433553 12.88,5.67 C12.8853333,5.79 12.888,5.91033333 12.888,6.031 C12.9029026,8.64098857 11.6277252,11.0898902 9.48085661,12.5742142 C7.33398802,14.0585381 4.59254433,14.3866891 2.156,13.451 C1.94621989,13.2258188 1.74956195,12.9887608 1.567,12.741 C2.74125113,12.6982182 3.87229539,12.287152 4.8,11.566 C3.60402576,11.5438655 2.55419304,10.7644259 2.187,9.626 C2.60550982,9.70616101 3.03679505,9.68974412 3.448,9.578 C2.14506448,9.3144179 1.20824986,8.16932931 1.208,6.84 L1.208,6.805 C1.59576006,7.0206495 2.029519,7.14031896 2.473,7.154 C1.24825923,6.33271922 0.87039502,4.70230512 1.609,3.426 C3.02707141,5.17088744 5.11935575,6.23156946 7.365,6.344 C7.07910418,5.11311569 7.65494957,3.84356543 8.76936436,3.24783707 C9.88377916,2.65210872 11.2593135,2.87851754 12.124,3.8 C12.7505567,3.6761252 13.3512508,3.44579149 13.9,3.119 C13.6912475,3.76629198 13.2540335,4.31547544 12.67,4.664 L12.67,4.664 L12.67,4.664 Z" id="Oval" sketch:type="MSShapeGroup"></path>
</svg>