<?xml version="1.0" encoding="UTF-8" standalone="no"?>
<svg width="38px" height="33px" viewBox="0 0 38 33" version="1.1" xmlns="http://www.w3.org/2000/svg" xmlns:xlink="http://www.w3.org/1999/xlink" xmlns:sketch="http://www.bohemiancoding.com/sketch/ns">
    <g id="Page-1" stroke="none" stroke-width="1" fill="none" fill-rule="evenodd" sketch:type="MSPage">
        <path d="M31.671,27.661 C34.785,28.443 37.088,29.796 37.48,31.581 C36.5500236,32.4906178 35.3008692,32.9999713 34,33 L4,33 C2.69913078,32.9999713 1.44997643,32.4906178 0.52,31.581 C0.912,29.796 3.22,28.444 6.329,27.661 C6.329,27.661 12,27 13,26 C14,25 14,21 14,21 C13.0597394,19.8219696 12.3782679,18.4590267 12,17 C11.01,17.154 10.772,16.75 10.313,15 C9.371,11.41 10.557,10.909 10.997,10.869 C10.997,10.869 10.997,10.869 10.997,10.876 C11.231,10.907 11.17,10.854 10.997,10.869 C10.8908428,8.95579901 11.029973,7.036878 11.411,5.159 C12,2.193 15,1.24206201e-15 18.836,-0.014 C18.893,-0.014 18.944,-0.006 19,-0.004 C19.056,-0.002 19.106,-0.015 19.164,-0.014 C23,1.24206201e-15 26,2.193 26.59,5.159 C26.9695889,7.03706368 27.1073738,8.95597052 27,10.869 C26.827,10.854 26.766,10.907 27,10.876 L27,10.869 C27.44,10.909 28.626,11.41 27.683,15 C27.224,16.75 26.983,17.154 25.995,17 C25.6168167,18.4590584 24.9353367,19.8220183 23.995,21 C23.0546633,22.1779817 23.905,24.91 24.995,26 C26,27 31.671,27.661 31.671,27.661 L31.671,27.661 Z" id="user" fill="#AFC3D1" sketch:type="MSShapeGroup"></path>
    </g>
</svg>