<?xml version="1.0" encoding="UTF-8" standalone="no"?>
<svg width="12px" height="16px" viewBox="0 0 12 16" version="1.1" xmlns="http://www.w3.org/2000/svg" xmlns:xlink="http://www.w3.org/1999/xlink" xmlns:sketch="http://www.bohemiancoding.com/sketch/ns">
    <g id="Page-1" stroke="none" stroke-width="1" fill="none" fill-rule="evenodd" sketch:type="MSPage">
        <path d="M11.179,8.944 C10.5817365,8.32087707 9.80248712,7.90289693 8.953,7.75 L8.953,7.67 C9.57735059,7.41834554 10.1074068,6.97779749 10.469,6.41 C10.8388547,5.82623873 11.0297049,5.14696507 11.018,4.456 C11.0291703,3.87402208 10.8914841,3.29883802 10.618,2.785 C10.3402406,2.28870398 9.92208099,1.88550349 9.416,1.626 C8.91891223,1.35854653 8.37870051,1.18050683 7.82,1.1 C6.99045374,1.00176403 6.15521968,0.959668235 5.32,0.974 L0.02,0.974 L0.02,15.974 L6.02,15.974 C6.88892856,15.9933173 7.75655873,15.8968019 8.6,15.687 C9.27629064,15.4989024 9.90805172,15.1772415 10.458,14.741 C10.9386293,14.3667082 11.3277867,13.8879557 11.596,13.341 C11.8888132,12.7284772 12.0337021,12.0557545 12.019,11.377 C12.0647064,10.4878119 11.7635673,9.61558431 11.179,8.944 L11.179,8.944 Z M7.019,6.078 C6.8884931,6.34210161 6.66633627,6.54968495 6.394,6.662 C6.14341196,6.78335849 5.87180186,6.85533517 5.594,6.874 C5.33533333,6.888 4.88366667,6.89466667 4.239,6.894 L3.766,6.894 L3.766,3.721 L4.028,3.721 C4.69933333,3.721 5.20466667,3.726 5.544,3.736 C5.846142,3.73854439 6.1450714,3.79826241 6.425,3.912 C6.67818262,4.0203163 6.88279213,4.21780896 7,4.467 C7.11800705,4.69789778 7.18162987,4.95273112 7.186,5.212 C7.19356817,5.50934302 7.13659337,5.80479321 7.019,6.078 L7.019,6.078 Z M7.9,12.278 C7.73082226,12.5731175 7.46635783,12.8019674 7.15,12.927 C6.7871181,13.0891336 6.39703527,13.1817359 6,13.2 C5.624,13.2133333 4.94566667,13.22 3.965,13.22 L3.765,13.22 L3.765,9.462 L4.461,9.462 C5.13233333,9.462 5.668,9.467 6.068,9.477 C6.38786711,9.47388346 6.7060833,9.52320359 7.01,9.623 C7.34655582,9.7289226 7.6420781,9.93641697 7.856,10.217 C8.0613634,10.5412967 8.15998072,10.9217777 8.138,11.305 C8.14346432,11.6443816 8.06150287,11.9794593 7.9,12.278 L7.9,12.278 Z" id="VK_logo" fill="#FFFFFF" sketch:type="MSShapeGroup"></path>
    </g>
</svg>