<svg xmlns="http://www.w3.org/2000/svg" width="16" height="16" viewBox="0 0 16 16">
  <path  fill="currentColor" d="M8,16a8,8,0,1,1,8-8A8,8,0,0,1,8,16Zm3.3-7.779a2.208,2.208,0,0,0-1.2-.644V7.533a1.742,1.742,0,0,0,.818-0.68,1.911,1.911,0,0,0,.3-1.055,1.847,1.847,0,0,0-.215-0.9,1.559,1.559,0,0,0-.65-0.625,2.6,2.6,0,0,0-.862-0.285,9.968,9.968,0,0,0-1.351-.068H5.273v8.094h3.24A5.283,5.283,0,0,0,9.9,11.86a2.846,2.846,0,0,0,1-.511,2.166,2.166,0,0,0,.614-0.756,2.341,2.341,0,0,0,.228-1.06A1.855,1.855,0,0,0,11.3,8.221Zm-2.174,2.15a1.708,1.708,0,0,1-.62.147q-0.3.011-1.1,0.011H7.3V8.5H7.671q0.544,0,.867.008a1.584,1.584,0,0,1,.508.079,0.925,0.925,0,0,1,.457.321,0.992,0.992,0,0,1,.152.587,1.065,1.065,0,0,1-.128.525A0.809,0.809,0,0,1,9.122,10.371ZM8.714,6.99a1.168,1.168,0,0,1-.432.114q-0.209.011-.731,0.011H7.3V5.4H7.437q0.544,0,.818.008a1.3,1.3,0,0,1,.476.1,0.607,0.607,0,0,1,.313.3,0.917,0.917,0,0,1,.1.4,1.109,1.109,0,0,1-.092.467A0.656,0.656,0,0,1,8.714,6.99Z"/>
</svg>
