<?xml version="1.0" encoding="UTF-8" standalone="no"?>
<svg width="13px" height="20px" viewBox="0 0 13 20" version="1.1" xmlns="http://www.w3.org/2000/svg" xmlns:xlink="http://www.w3.org/1999/xlink" xmlns:sketch="http://www.bohemiancoding.com/sketch/ns">
    <g id="Page-1" stroke="none" stroke-width="1" fill="none" fill-rule="evenodd" sketch:type="MSPage">
        <path d="M7,12.974 L7,16 L10,16 L10,17 L7,17 L7,20 L6,20 L6,17 L3,17 L3,16 L6,16 L6,12.974 C2.51783986,12.7053455 -0.129610246,9.7329942 0.00481661,6.24307391 C0.13924347,2.75315358 3.00749166,-0.006740698 6.5,-0.006740698 C9.9925083,-0.006740698 12.8607565,2.75315358 12.9951834,6.24307391 C13.1296102,9.7329942 10.4821601,12.7053455 7,12.974 L7,12.974 L7,12.974 Z M6.5,1 C3.46243388,1 1,3.46243388 1,6.5 C1,9.5375661 3.46243388,12 6.5,12 C9.5375661,12 12,9.5375661 12,6.5 C12,3.46243388 9.5375661,1 6.5,1 L6.5,1 L6.5,1 Z" id="woman-radio" fill="#C7297B" sketch:type="MSShapeGroup"></path>
    </g>
</svg>