<?xml version="1.0" encoding="UTF-8" standalone="no"?>
<svg width="13px" height="20px" viewBox="0 0 13 20" version="1.1" xmlns="http://www.w3.org/2000/svg" xmlns:xlink="http://www.w3.org/1999/xlink" xmlns:sketch="http://www.bohemiancoding.com/sketch/ns">
    <g id="Page-1" stroke="none" stroke-width="1" fill="none" fill-rule="evenodd" sketch:type="MSPage">
        <g id="woman" sketch:type="MSLayerGroup" transform="translate(-1.000000, -1.000000)">
            <path d="M9.223,7.367 C9.38562921,7.28483759 9.53040604,7.17132712 9.649,7.033 C9.79988364,6.84905019 9.91487691,6.6383988 9.988,6.412 C10.0456724,6.21314971 10.1558698,6.03351757 10.307,5.892 C10.4919315,5.77128585 10.711975,5.71601092 10.932,5.735 L11.046,5.735 L11.046,4.978 L10.85,4.978 C10.4971702,4.96099151 10.1463468,5.04014281 9.835,5.207 C9.55578443,5.39513776 9.34522283,5.66886783 9.235,5.987 C9.20766667,6.06166667 9.171,6.14833333 9.125,6.247 C9.079,6.34566667 9.03733333,6.43233333 9,6.507 C8.90783944,6.7001832 8.75461039,6.85762957 8.564,6.955 C8.38033136,7.05190506 8.17746513,7.10689069 7.97,7.116 L7.97,5.01 L7.018,5.01 L7.018,7.116 C6.81230951,7.107305 6.6111239,7.05299514 6.429,6.957 C6.2402721,6.8584345 6.08944048,6.70021951 6,6.507 C5.966,6.44033333 5.926,6.356 5.88,6.254 C5.834,6.152 5.795,6.063 5.763,5.987 C5.65177048,5.66413807 5.43651519,5.38733102 5.151,5.2 C4.8383212,5.03718385 4.48816212,4.95990737 4.136,4.976 L3.94,4.976 L3.94,5.736 L4.054,5.736 C4.27021977,5.71784491 4.48654396,5.76973466 4.671,5.884 C4.82650022,6.0269237 4.94022182,6.20943131 5,6.412 C5.07595779,6.64823765 5.1945857,6.86854662 5.35,7.062 C5.47254456,7.20188082 5.62268737,7.31491351 5.791,7.394 L3.746,10.016 L4.853,10.016 L6.605,7.793 L7.018,7.793 L7.018,10.016 L7.968,10.016 L7.968,7.793 L8.432,7.793 L10.1,10.016 L11.258,10.016 L9.223,7.367 Z" id="woomen" fill="#000000" sketch:type="MSShapeGroup"></path>
            <path d="M8,13.975 L8,17 L11,17 L11,18 L8,18 L8,21 L7,21 L7,18 L4,18 L4,17 L7,17 L7,13.975 C3.51783986,13.7063455 0.870389754,10.7339942 1.00481661,7.24407391 C1.13924347,3.75415358 4.00749166,0.994259302 7.5,0.994259302 C10.9925083,0.994259302 13.8607565,3.75415358 13.9951834,7.24407391 C14.1296102,10.7339942 11.4821601,13.7063455 8,13.975 L8,13.975 Z M7.5,2 C10.5375661,2 13,4.46243388 13,7.5 C13,10.5375661 10.5375661,13 7.5,13 C4.46243388,13 2,10.5375661 2,7.5 C2,4.46243388 4.46243388,2 7.5,2 L7.5,2 Z" id="Shape" fill="#C7297B" sketch:type="MSShapeGroup"></path>
        </g>
    </g>
</svg>