<?xml version="1.0" encoding="UTF-8" standalone="no"?>
<svg width="16px" height="16px" viewBox="0 0 16 16" version="1.1" xmlns="http://www.w3.org/2000/svg" xmlns:xlink="http://www.w3.org/1999/xlink" xmlns:sketch="http://www.bohemiancoding.com/sketch/ns">
    <g id="Page-1" stroke="none" stroke-width="1" fill="none" fill-rule="evenodd" sketch:type="MSPage">
        <path d="M15.607,15.607 C15.2165001,15.9973819 14.5834999,15.9973819 14.193,15.607 L10.322,11.736 C7.89402296,13.4966363 4.57549565,13.3626953 2.29730934,11.4121108 C0.0191230222,9.46152634 -0.624323381,6.20322303 0.74136061,3.53305075 C2.1070446,0.862878462 5.12553998,-0.522491287 8.04052962,0.183021457 C10.9555192,0.888534201 13.0064566,3.50085494 13,6.5 C12.9972705,7.8759271 12.5543404,9.2148798 11.736,10.321 L15.607,14.192 C15.794777,14.3795683 15.9002867,14.6340908 15.9002867,14.8995 C15.9002867,15.1649092 15.794777,15.4194317 15.607,15.607 L15.607,15.607 Z M6.5,2 C4.01471863,2 2,4.01471863 2,6.5 C2,8.98528137 4.01471863,11 6.5,11 C8.98528137,11 11,8.98528137 11,6.5 C11,4.01471863 8.98528137,2 6.5,2 L6.5,2 Z" id="zoom_icn" fill="#D3D3D3" sketch:type="MSShapeGroup"></path>
    </g>
</svg>