<?xml version="1.0" standalone="no"?>
<!DOCTYPE svg PUBLIC "-//W3C//DTD SVG 1.1//EN" "http://www.w3.org/Graphics/SVG/1.1/DTD/svg11.dtd" >
<svg xmlns="http://www.w3.org/2000/svg">
<metadata>Generated by IcoMoon</metadata>
<defs>
<font id="icozoopy" horiz-adv-x="1024">
<font-face units-per-em="1024" ascent="960" descent="-64" />
<missing-glyph horiz-adv-x="1024" />
<glyph unicode="&#x20;" horiz-adv-x="512" d="" />
<glyph unicode="&#xe900;" glyph-name="pet-ulitka" horiz-adv-x="1100" d="M1045.58 689.588c14.499-93.924 22.781-202.269 22.781-312.548 0-3.694-0.009-7.385-0.028-11.074 0.283-5.185 0.444-11.926 0.444-18.706 0-109.859-42.081-209.889-111.004-284.851-61.329-57.372-144.385-92.791-235.714-92.791-6.64 0-13.235 0.187-19.783 0.557l-322.714 0.338c-47.294 0-85.030 0-103.576-0.341h-2.503c-73.045 0-115.56 40.126-124.132 82.716-1.096 5.103-1.724 10.966-1.724 16.976 0 21.416 7.971 40.97 21.107 55.858-85.264 62.224-139.967 161.826-139.967 274.204 0 1.181 0.006 2.361 0.018 3.54 0.236 203.926 165.632 369.323 369.716 369.56 100.623-0.156 192-41.784 257.552-108.782-2.182 11.254 45.040-43.509 74.643-108.035 8.554 46.947 14.433 92.686 17.846 130.119 2.819 51.221 35.596 96.993 81.916 118.569l0.876 101.78c0 13.845 11.224 25.069 25.069 25.069s25.069-11.224 25.069-25.069v-88.671h1.441c1.436 0.346 6.651 0.919 11.965 1.095 8.576 0.004 17.012-0.672 25.241-1.972 0.018 34.983 15.136 73.886 39.71 104.968 4.461 6.207 12.353 10.703 21.308 10.976 4.761-0.005 9.199-1.419 12.914-3.847 5.306-2.943 10.205-9.594 11.642-17.455 0.256-1.343 0.388-2.699 0.388-4.087 0-5.010-1.722-9.617-4.607-13.263-17.178-19.437-31.304-51.323-34.064-86.405 0.012-1.42-0.451-3.942-1.262-6.3 40.040-18.547 72.386-60.898 79.343-111.352zM711.832 449.896c-26.636 151.404-156.116 266.136-313.072 269.836-176.81-0.208-319.772-143.17-319.988-319.574-0.019-1.25-0.030-2.702-0.030-4.155 0-118.146 71.148-219.674 172.936-264.077 24.25-7.039 49.967-10.672 76.532-10.672 0.973 0 1.946 0.005 2.917 0.015 0.292-0.003 0.814-0.004 1.336-0.004 36.277 0 71.258 5.547 104.142 15.839 74.387 26.612 128.435 98.695 128.435 183.401 0 3.945-0.117 7.862-0.348 11.749-6.725 93.673-62.856 149.879-150.123 149.879-1.021 0.035-2.22 0.055-3.425 0.055-37.873 0-71.105-19.868-89.842-49.751-9.066-13.702-14.311-29.99-14.311-47.503 0-13.119 2.944-25.551 8.206-36.671 1.518-2.806 2.54-6.747 2.54-10.926 0-9.486-5.261-17.743-13.023-22.013-3.457-1.851-7.487-2.928-11.767-2.948-0.021 0-0.038 0-0.056 0-9.59 0-17.919 5.401-22.109 13.328-8.687 17.495-13.732 37.94-13.732 59.563 0 27.096 7.922 52.342 21.576 73.548 27.347 44.368 76.253 73.853 132.046 73.853 1.464 0 2.923-0.020 4.377-0.061 114.588 0.005 191.274-75.506 199.959-196.983 0.289-4.185 0.453-9.070 0.453-13.994 0-8.66-0.509-17.201-1.499-25.594 37.445 23.182 81.038 81.989 98.307 151.213zM892.397 768.967c-1.14 0.050-2.478 0.078-3.822 0.078-49.382 0-89.784-38.443-92.913-87.034-6.386-69.83-18.598-146.782-27.7-199.081 1.032-2.308 1.633-5.001 1.633-7.835 0-1.429-0.153-2.823-0.443-4.165-10.204-97.436-77.22-194.407-171.991-248.070l-3.849-1.922c-17.409-53.502-72.539-108.395-142.155-131.616-36.764-11.692-77.143-18.154-119.032-18.154-0.243 0-0.486 0-0.729 0.001-1.366-0.024-3.022-0.037-4.682-0.037-42.68 0-83.284 8.887-120.064 24.911-5.245-9.654-9.594-21.104-9.594-33.57 0-6.348 1.128-12.433 3.194-18.064 7.089-17.727 29.2-28.991 69.743-28.991h2.579c18.697 0.379 56.889 0.531 104.334 0.531s105.055 0 162.285-0.265 114.081-0.265 161.337-0.265c6.734-0.553 14.576-0.868 22.493-0.868 75.925 0 145.076 29.005 196.976 76.539 59.522 67.936 95.967 157.793 95.967 256.163 0 6.663-0.167 13.287-0.498 19.869 0.056 2.394 0.067 6.32 0.067 10.249 0 107.581-8.077 213.276-23.657 316.51-4.667 37.522-46.165 75.169-96.455 75.169-1.011 0-2.018-0.015-3.021-0.045zM931.688 640.019c-16.045 0-29.051 13.007-29.051 29.051s13.007 29.051 29.051 29.051c16.045 0 29.051-13.007 29.051-29.051 0 0 0 0 0-0.001 0-15.999-12.916-28.981-28.889-29.089zM851.096 640.019c-16.045 0-29.051 13.007-29.051 29.051s13.007 29.051 29.051 29.051c16.045 0 29.051-13.007 29.051-29.051 0 0 0 0 0-0.001 0-15.999-12.916-28.981-28.889-29.089z" />
<glyph unicode="&#xe901;" glyph-name="pet-hamster" horiz-adv-x="985" d="M944.010 378.368c0.515 0.547-0.924-3.206-3.090-6.431 0.805-5.896 1.475-12.079 2.066-18.46 1.862-18.714 2.924-40.449 2.924-62.433 0-60.098-7.936-118.342-22.818-173.742-48.044-164.682-200.463-182.484-340.16-182.484-19.338 0-38.4 0.354-56.911 0.67s-35.446 0.788-52.539 0.63c-14.651 0-29.223 0-43.756-0.394-136.192-1.812-277.031-3.702-340.874 163.407-19.917 54.938-31.434 118.347-31.434 184.446 0 25.326 1.691 50.256 4.965 74.686q0.12 1.083 0.593 4.627l-0.906 0.945-2.993 2.718c2.737-3.032 0.159-0.565-1.796 2.355-36.958 37.778-65.985 116.547 3.372 215.757-50.172-58.17 20.727 43.186 111.737 121.919-10.329 24.155-16.89 51.617-16.89 80.612 0 25.94 5.252 50.654 14.751 73.136 1.046 9.79 18.927 34.276 42.828 50.597 16.887 11.433 37.189 18.089 59.046 18.089 3.698 0 7.351-0.191 10.951-0.562 47.732-5.374 95.426-39.157 121.197-86.581 29.963 4.327 63.948 7.311 98.63 7.311s68.667-2.984 101.713-8.711c16.34 42.477 62.326 78.403 117.359 87.875 4.095 0.46 7.677 0.641 11.301 0.641 21.906 0 42.272-6.597 59.218-17.913 9.628-2.923 30.829-24.491 42.894-51.085 9.353-22.143 14.606-46.988 14.606-73.059 0-32.41-8.117-62.924-22.429-89.62 7.941-6.86 17.827-16.746 28.067-26.868 15.754-15.518 33.634-33.201 51.2-52.894 30.838-35.092 121.777-138.319 37.179-239.183zM867.604 582.814c-16.266 18.353-33.477 35.446-48.64 50.294 55.363-50.218 0.439-7.36-42.681 45.504-3.796 5.077-5.691 10.44-5.691 16.245 0 4.817 1.305 9.33 3.58 13.204 14.595 22.046 23.325 49.254 23.325 78.501 0 18.238-3.394 35.683-9.586 51.738-0.501 5.431-10.685 19.642-24.365 29.189-8.64 5.856-19.012 9.258-30.177 9.258-1.938 0-3.851-0.102-5.736-0.302-35.985-6.736-72.985-36.751-91.333-77.050-4.972-8.57-13.272-13.643-22.757-13.643-1.971 0-3.89 0.219-5.735 0.634-31.452 6.655-67.79 10.484-105.022 10.484s-73.571-3.829-108.642-11.115c1.768 0.213-0.157-0.008-2.135-0.008-9.481 0-17.776 5.076-22.317 12.658-12.497 33.972-47.603 66.121-91.096 77.722-2.701 0.42-4.705 0.534-6.735 0.534-11.072 0-21.354-3.385-29.867-9.175-5.621-1.804-17.742-14.364-24.565-29.79-6.097-15.481-9.527-32.882-9.527-51.084 0-27.27 7.698-52.741 21.041-74.36 1.626-2.978 2.789-7.255 2.789-11.804 0-8.118-3.704-15.371-9.515-20.16 36.666 39.363-51.765-32.695-116.935-122.698-19.482-26.067-30.439-56.663-30.439-89.819 0-4.45 0.197-8.854 0.584-13.203 12.838-67.022 94.246-133.739 196.016-177.889 17.819-9.339 38.927-14.819 61.316-14.819 16.054 0 31.451 2.818 45.721 7.986 6.083 4.176 10.671 11.918 10.671 20.732 0 0.639-0.024 1.272-0.071 1.899-4.76 27.486-45.917 47.808-82.939 51.471-13.273 1.356-23.542 12.476-23.542 25.994 0 14.427 11.695 26.122 26.122 26.122 0.908 0 1.806-0.046 2.691-0.137 55.027-5.505 119.264-37.446 129.149-94.514 0.578-3.501 0.909-7.536 0.909-11.648 0-25.767-12.976-48.504-32.75-62.032-17.502-11.049-38.484-17.507-60.974-17.507-2.194 0-4.374 0.061-6.538 0.183-29.71 0.074-61.572 6.125-91.033 17.106-1.453-8.645-78.117 33.629-138.049 92.809-0.981-12.027-1.566-25.973-1.566-40.056 0-58.191 9.996-114.047 28.365-165.945 17.655-60.635 75.464-111.128 146.218-120.020 2.080 0.828 5.762 2.228 9.725 2.733 42.152 4.227 90.122 23.841 94.336 48.259 0.042 0.542 0.066 1.174 0.066 1.812 0 8.826-4.586 16.581-11.506 21.011-8.804 6.401-32.474 13.844-93.363-8.605-2.727-1.056-5.882-1.667-9.181-1.667-14.421 0-26.112 11.691-26.112 26.112 0 11.229 7.088 20.803 17.034 24.491 64.968 23.926 111.521 24.517 142.438 1.792 20.027-13.72 32.997-36.473 32.997-62.254 0-4.092-0.327-8.108-0.956-12.022-1.503-15.304-12.898-34.826-29.512-48.081l17.911 0.069c14.809 0.197 29.696 0.394 44.623 0.394 16.975 0.276 35.092-0.315 53.287-0.63 19.692-0.354 39.385-0.67 58.801-0.67-12.746 8.091-25.903 26.874-30.43 48.81-0.664 4.021-0.991 8.035-0.991 12.125 0 25.792 12.987 48.55 32.778 62.093 31.175 22.931 77.727 22.301 142.515-1.566 10.127-3.747 17.215-13.32 17.215-24.55 0-14.421-11.691-26.112-26.112-26.112-3.298 0-6.454 0.612-9.359 1.727-60.67 22.428-84.38 14.985-93.084 8.604-7.041-4.477-11.645-12.238-11.645-21.074 0-0.636 0.024-1.267 0.071-1.892 4.209-24.296 52.18-43.949 94.203-48.163-0.602 0.301 2.26-0.389 4.888-1.519 79.288 6.020 146.667 63.242 167.927 139.67 12.573 46.583 19.612 98.519 19.612 152.098 0 14.043-0.484 27.974-1.435 41.775 32.246 16.627-49.186-53.479-144.474-99.38-28.6-12.245-59.962-19.097-92.877-19.494-2.002-0.107-4.164-0.168-6.34-0.168-22.507 0-43.506 6.457-61.245 17.619-19.535 13.425-32.496 36.157-32.496 61.916 0 4.127 0.333 8.175 0.973 12.121 9.828 56.715 73.867 88.695 129.163 94.091 0.774 0.081 1.671 0.128 2.58 0.128 14.427 0 26.122-11.695 26.122-26.122 0-13.518-10.268-24.638-23.431-25.985-37.133-3.711-78.29-23.955-83.055-51.564-0.043-0.548-0.068-1.188-0.068-1.832 0-8.82 4.588-16.569 11.507-20.99 12.805-3.495 27.392-5.469 42.439-5.469 22.992 0 44.908 4.608 64.875 12.95 45.755 18.217 182.893 106.793 193.487 189.146 0 0.009 0 0.019 0 0.030 0 46.168-19.776 87.718-51.319 116.64zM536.489 511.541c3.312 4.377 5.276 9.829 5.276 15.741 0 14.421-11.691 26.112-26.112 26.112-0.038 0-0.076 0-0.108 0h-50.689c-14.409-0.015-26.085-11.7-26.085-26.112 0-6.174 2.143-11.847 5.685-16.266l20.007-25.403-0.019-0.928c-0.82-2.275-2.548-4.115-3.785-4.592-4.24-2.494-9.181-3.924-14.456-3.924-5.675 0-10.964 1.656-15.244 4.402-4.471 3.581-10.144 5.722-16.318 5.722-14.427 0-26.123-11.696-26.123-26.123 0-8.254 3.828-15.613 9.625-20.279 13.497-9.856 30.13-15.673 48.123-15.673 16.318 0 31.518 4.785 43.686 13.007 12.493-8.535 27.598-13.526 43.87-13.526 0.179 0 0.358 0.001 0.466 0.002 0.279-0.003 0.559-0.004 0.839-0.004 17.758 0 34.108 6.033 46.99 16.074 5.977 4.787 9.805 12.147 9.805 20.401 0 14.427-11.696 26.123-26.123 26.123-6.173 0-11.847-2.141-16.154-5.614-4.443-2.867-9.736-4.53-15.417-4.53-5.337 0-10.331 1.468-14.511 3.975-1.974 1.255-3.486 3.172-3.582 3.914l20.401 27.569zM413.265 576.079c22.648 0.022 41.009 18.355 41.076 40.997 0 0.014 0 0.028 0 0.042 0 22.687-18.391 41.078-41.078 41.078s-41.078-18.391-41.078-41.078c0-22.687 18.391-41.078 41.078-41.078zM565.88 576.079c22.648 0.022 41.009 18.355 41.076 40.997 0 0.014 0 0.028 0 0.042 0 22.687-18.391 41.078-41.078 41.078s-41.078-18.391-41.078-41.078c0-22.687 18.391-41.078 41.078-41.078z" />
<glyph unicode="&#xe902;" glyph-name="pet-ezhik" horiz-adv-x="1158" d="M1124.129 159.811c-10.983-8.429-24.921-13.508-40.046-13.508-1.575 0-3.137 0.055-4.684 0.163l-11.723-13.724c-64.245-73.951-137.038-157.696-277.816-181.916-34.993-4.956-75.411-7.786-116.491-7.786-5.268 0-10.525 0.047-15.77 0.139 0.519-0.011 0.2-0.011-0.119-0.011-73.427 0-145.799 4.513-216.855 13.277l7.175-0.856c-36.391-0.907-117.8 16.809-192.565 47.417-0.525-2.628-6.491-4.008-12.902-5.433-49.419-10.997-88.554-19.679-106.63 7.168-6.007 11.303-9.534 24.714-9.534 38.949 0 20.306 7.178 38.936 19.135 53.491-6.954-13.232 4.592 5.136 12.045 25.477-1.444 1.154-3.551 1.192-5.666 1.192-5.956 0-11.843-0.296-17.647-0.874-5.154-1.805-11.923-2.879-18.944-2.879-26.39 0-49.235 15.175-60.286 37.275-1.476 5.815-2.221 12.044-2.221 18.447 0 28.023 14.272 52.712 35.944 67.195-12.224-12.19 5.509 2.594 18.903 20.773 10.075-2.998-5.97 3.92-23.115 8.004-33.772 1.579-60.962 25.394-67.495 56.783 1.211 34.296 24.822 62.841 56.632 71.57-12.625-6.77 6.638 1.391 23.249 13.068 15.038-13.197-2.136 3.544-22.376 15.704-28.821 11.242-48.415 38.066-48.415 69.467 0 1.807 0.065 3.598 0.192 5.372 9.896 29.315 37.335 50.23 69.659 50.23 2.117 0 4.213-0.090 6.284-0.266-1.475-0.616 11.423 1.091 23.794 4.138 13.31-22.143-0.414 2.373-18.69 22.716-18.063 13.904-29.677 35.749-29.677 60.306 0 9.058 1.58 17.748 4.48 25.808 18.799 37.846 62.163 28.808 87.897 23.421 5.921-1.247 14.692-3.072 20.836-3.606 8.052-22.646 0.553 3.325-10.961 26.983-11.611 25.553-28.351 62.417-0.436 88.818 29.206 30.854 68.474 8.237 91.937-5.298 4.986-2.849 12.065-6.945 17.809-9.617-0.356 7.613-2.003 18.076-3.117 25.244-4.452 28.138-10.997 70.656 24.353 87.263 36.463 19.679 67.807-13.98 86.506-34.104 3.918-4.274 9.661-10.418 14.559-14.915 1.38 7.034 2.449 16.072 3.206 22.261 3.339 28.984 8.415 72.214 48.484 76.533 39.402 6.856 59.481-32.946 72.704-59.125 2.938-5.788 7.079-14.069 10.863-20.168 2.938 5.877 6.055 13.357 8.237 18.655 10.418 24.932 27.871 66.293 67.985 57.878 39.357-7.123 47.505-48.128 53.426-78.136 1.425-7.168 3.517-17.809 5.788-24.977 4.452 4.452 9.216 10.463 12.689 14.692 15.983 19.411 45.724 55.385 82.499 33.436 19.519-15.481 31.926-39.196 31.926-65.809 0-8.294-1.205-16.306-3.449-23.871-0.493-5.696-0.86-12.998-0.86-20.385 0-2.549 0.044-5.088 0.13-7.617 5.6 3.217 12.59 7.669 17.353 10.652 20.658 13.134 59.169 37.621 87.886 5.788 9.92-13.635 15.87-30.714 15.87-49.183 0-16.353-4.665-31.617-12.737-44.533 3.253 9.959-4.052-7.798-8.261-26.721-7.804-2.811 7.709-0.455 22.511 3.619 21.796 5.381 64.937 15.888 83.236-22.134 3.147-8.406 4.969-18.121 4.969-28.26 0-24.318-10.476-46.188-27.161-61.345 9.835 13.315-5.166-3.763-15.674-23.588 0.536-1.416 11.69-3.41 23.179-4.184 3.19 0.348 6.315 0.562 9.49 0.562 30.213 0 55.902-19.366 65.333-46.361 2.19-6.932 3.367-14.345 3.367-22.034 0-19.51-7.578-37.251-19.952-50.438-22.436-17.661-51.153-28.35-82.367-28.35-8.12 0-16.070 0.723-23.791 2.109-9.828 24.959-1.475 1.205 10.754-20.035-9.282 13.011-0.621 2.715 5.657-9.044-10.634 6.408 23.699-38.532 67.688-71.203 13.253 12.793 30.965 21.105 50.619 21.105 4.191 0 8.293-0.378 12.275-1.102 35.696-8.657 62.105-40.692 62.105-78.895 0-4.758-0.41-9.42-1.195-13.953-1.175-20.846-13.429-42.567-31.794-56.762zM1012.113 457.127c1.735 2.804 2.763 6.205 2.763 9.845 0 2-0.31 3.928-0.886 5.738 0.589 0.159-10.519 2.122-21.942 2.951-2.657-0.173-5.107-0.29-7.583-0.29-29.131 0-54.489 16.154-67.606 39.992-1.491 6.029-2.229 12.494-2.229 19.132 0 24.844 10.35 47.27 26.974 63.202-17.607-21.978 1.006-1.911 14.652 21.417-4.826-0.016-11.37-1.619-16.001-2.732-9.135-4.381-19.859-6.941-31.18-6.941-20.548 0-39.126 8.431-52.465 22.022-6.565 12.145-10.417 26.569-10.417 41.894 0 16.425 4.425 31.817 12.149 45.048-8.571-22.064 1.171-0.436 7.414 22.63-3.814-0.928-8.355-3.644-11.694-5.914-13.007-12.791-30.861-20.688-50.56-20.688-12.461 0-24.184 3.16-34.411 8.722-15.11 15.897-24.651 37.804-24.651 61.94 0 7.854 1.010 15.471 2.908 22.73 0.351 6.010 1.064 15.226 0.975 22.75-2.849-3.295-5.699-6.723-7.925-9.439-12.505-23.794-37.050-39.744-65.32-39.744-4.195 0-8.309 0.351-12.312 1.026-26.162 14.767-44.083 42.846-44.401 75.137-1.113 5.654-2.583 13.401-4.453 19.768-1.692-3.873-3.339-7.791-4.452-10.952-5.038-30.317-29.511-55.302-60.737-61.318l-1.371-0.077c-29.819 4.626-55.607 27.94-64.195 58.458-2.41 5.030-5.348 10.907-8.331 16.205-0.668-4.452-1.202-9.394-1.647-13.134 0.196-2.108 0.307-4.559 0.307-7.036 0-30.148-16.519-56.438-41-70.312-3.905-0.764-7.945-1.081-12.059-1.081-28.195 0-52.914 14.883-66.729 37.221-3.399 3.765-7.673 8.35-11.725 12.357 0.846-5.565 1.558-11.219 2.271-15.894 3.283-8.63 5.184-18.609 5.184-29.032 0-22.048-8.507-42.11-22.418-57.081-10.182-5.422-22.33-8.637-35.23-8.637-19.222 0-36.776 7.14-50.155 18.913-4.19 2.421-10.111 5.76-15.187 8.386 2.315-6.010 5.387-12.822 7.658-17.809 9.818-13.794 15.696-30.986 15.696-49.551 0-13.621-3.164-26.502-8.798-37.95-13.486-13.787-32.742-22.669-54.073-22.669-10.503 0-20.502 2.153-29.582 6.042-4.942 0.971-12.644 2.618-18.699 3.242 3.829-5.476 9.661-12.199 13.624-16.918 19.321-15.78 31.557-39.604 31.557-66.285 0-5.21-0.467-10.312-1.36-15.264-12.826-24.961-38.818-42.124-68.819-42.124-1.543 0-3.075 0.045-4.596 0.135 2.718 0.736-10.405-0.931-23.022-3.907 6.269-3.85 14.238-8.925 19.625-12.398 27.135-10.641 47.909-37.013 51.039-68.574-4.298-29.268-26.704-54.43-56.171-63.111 16.925 8.455-4.409-0.2-23.014-12.622-18.352 7.077-0.092-0.481 19.252-5.299 31.776-2.157 58.36-22.521 69.347-50.69 0.389-2.746 0.505-5.309 0.505-7.9 0-28.821-14.346-54.292-36.286-69.661 18.907 17.621-1.936 1.005-18.125-19.463 5.786-0.353 13.087 0.137 18.118 0.538 5.878 1.653 12.629 2.603 19.601 2.603 24.754 0 46.711-11.975 60.394-30.448 3.611-9.292 5.618-19.804 5.618-30.784 0-20.638-7.092-39.619-18.972-54.64 18.682 31.442 1.753 6.786-10.212-20.54 12.757 0.244 31.901 4.474 42.675 6.878 12.288 2.716 23.285 5.12 30.586 6.099 1.117 0.142 2.409 0.223 3.72 0.223 0.038 0 0.077 0 0.115 0-0.004 0-0.001 0 0.002 0 4.727 0 9.197-1.101 13.167-3.061 23.792-14.383 95.878-36.221 172.188-43.63l3.097-0.191c62.33 9.795 178.087 28.004 195.896 175.059-1.637 0.729 4.646 26.494 15.053 50.028-45.818 10.789-85.13 36.255-85.13 78.773 0 52.224 52.58 126.486 101.643 126.486 31.091-2.554 62.519-22.379 81.428-51.164 29.046 13.063 62.761 20.942 98.317 20.942 7.237 0 14.399-0.326 21.47-0.965-1.357 2.426-1.713 4.83-2.069 7.19-0.185 1.244-0.291 2.679-0.291 4.139 0 16.327 13.236 29.562 29.562 29.562 1.138 0 2.261-0.064 3.365-0.189 4.317-0.522 9.125-1.323 13.845-2.258 10.978-3.514 23.606-5.539 36.707-5.539 18.082 0 35.264 3.858 50.766 10.796zM1084.371 251.303c-7.288-0.479-13.219-6.091-14.194-13.277-3.808-12.295-15.011-21.010-28.25-21.010-5.895 0-11.387 1.728-15.996 4.706-7.632-4.795-68.51 43.65-110.374 105.941l-1.26 1.954q-2.716 4.452-5.209 8.548c-3.359 5.4-12.567 12.033-23.337 14.717-8.926 1.603-18.852 2.483-28.983 2.483-33.086 0-63.981-9.384-90.167-25.636-3.607-2.277-8.872-3.877-14.51-3.877-2.638 0-5.195 0.35-7.626 1.007-6.225 0.99-13.622 6.334-17.929 13.703-4.247 14.132-22.55 34.224-45.963 45.257-20.713-11.783-38.368-37.025-43.082-66.584 16.586-18.183 40.121-29.145 66.216-29.145 0.909 0 1.815 0.013 2.717 0.040 14.63-1.777 25.961-14.226 25.961-29.322 0-3.139-0.49-6.163-1.397-9.001-2.168-6.959-5.819-16.13-9.737-26.014 4.009 12.26-7.475-13.623-14.059-41.402-3.135-73.687-43.582-140.961-103.736-180.939 14.838-1.343 33.218-1.803 51.705-1.803 44.028 0 87.446 2.612 130.107 7.69 114.827 20.114 177.38 92.239 238.018 161.915 7.969 9.216 15.939 18.343 23.775 27.069 5.451 6.051 13.313 9.838 22.060 9.838 4.105 0 8.015-0.834 11.57-2.342 0.797-0.34 1.948-0.581 3.155-0.581 2.109 0 4.047 0.733 5.572 1.959 5.321 5.059 8.641 12.211 8.641 20.139 0 10.165-5.459 19.055-13.606 23.898zM868.692 174.459c29.813 0.301 53.888 24.563 53.888 54.447 0 0.126 0 0.252-0.001 0.359-0.005 30.265-24.54 54.798-54.806 54.798-30.269 0-54.806-24.538-54.806-54.806s24.538-54.806 54.806-54.806c0.329 0 0.657 0.003 0.935 0.008z" />
<glyph unicode="&#xe903;" glyph-name="pet-turtle" d="M980.165 311.296c-15.102-18.484-37.898-30.191-63.428-30.191-24.165 0-45.88 10.488-60.842 27.161-1.446-1.539-2.864-3.153-4.281-4.729-13.233-14.612-26.545-29.538-39.897-44.544-27.569-30.838-55.808-62.74-84.362-92.239v0c6.529 8.359 1.493 0.828-4.901-5.296-4.636-10.629-44.154-39.21-89.861-54.065-1.672-3.595-2.5-7.15-3.962-10.354 19.492 47.037-0.894 4.743-14.295-40.551-1.801-22.765-14.511-51.162-34.13-73.293-19.381-13.822-43.727-22.189-70.027-22.189-1.575 0-3.144 0.030-4.705 0.090-7.272-0.006-14.961 0.423-22.528 1.258-60.647 1.67-109.9 52.009-109.9 113.852 0 0.403 0.002 0.805 0.006 1.208-0.509 8.548 9.527 34.145 25.035 55.513l-7.154 3.502c-0.788 0.433-1.536 0.906-2.245 1.418l-4.844 2.954c-2.402 1.418-4.569 2.718-5.396 3.23-1.575 0.945-3.702 2.363-5.868 3.938l-14.769 10.555-1.694 1.182-6.538 5.12-1.142-0.67c-99.249-52.775-106.811-52.066-116.421-51.2-27.613 2.805-49.727 24.79-52.752 52.511-0.89 9.914-1.52 17.436 51.177 116.685 0.197 0.394 0.394 0.788 0.63 1.103l-23.631 33.516c-1.063 1.851-2.363 3.938-3.19 5.356 2.772-3.603 0.244-0.762-1.624 2.506l-3.654 6.907c-3.435-5.152-27.426-18.374-54.112-24.572-1.357-0.204-1.749-0.206-2.14-0.206-61.89 0-112.283 49.226-114.161 110.661-1.177 6.786-1.847 14.399-1.847 22.168 0 27.776 8.568 53.55 23.204 74.825 11.858 13.396 36.616 27.171 64.522 31.259-16.666-5.848 17.001 2.555 47.951 16.030 1.393 0.866 5.303 1.811 9.433 1.811 0.518 0 1.032-0.015 1.542-0.044 1.469 22.305 27.583 68.368 64.957 102.231l131.541 119.626c1.575 1.418 3.151 2.796 4.766 4.175-16.775 15.011-27.282 36.727-27.282 60.897 0 25.551 11.743 48.36 30.127 63.323 17.506 17.024 41.247 27.451 67.422 27.451 8.693 0 17.117-1.15 25.128-3.306 21.994-1.533 61.333-22.467 90.545-53.134-4.663 7.073 11.887-10.016 23.127-30.438 1.767-3.024 3.027-6.954 3.291-11.155 22.683 0.489 75.719-15.703 122.129-42.178-15.734-18.189-1.469 4.794 17.142 23.437 13.894 17.768 47.045 38.069 84.839 45.286 9.094 1.843 18.377 2.805 27.884 2.805 28.255 0 54.525-8.501 76.391-23.085 14.619-20.94 23.673-47.43 23.673-76.034 0-9.785-1.059-19.322-3.070-28.503-1.571-24.001-18.995-58.852-45.235-84.809 16.818 16.286-0.753-3.589-22.020-18.57 10.572-12.5 31.817-63.14 40.38-117.982 1.411-1.89 5.039-2.884 8.282-4.529-3.486 4.223 17.244-7.996 33.457-24.637 17.001-11.146 42.172-47.713 53.179-89.997 2.288-8.657 3.435-17.077 3.435-25.764 0-26.172-10.407-49.912-27.308-67.311zM162.068 505.423c-11.067-3.938-22.41-7.010-32.886-9.925 2.354 2.153-19.592-4.035-39.34-13.955-6.467-11.863-10.873-26.732-10.873-42.631 0-5.66 0.558-11.189 1.623-16.536-0.093 0.268-0.096-0.050-0.096-0.368 0-33.094 25.243-60.293 57.526-63.391 1.873 0.65 16.012 7.148 39.958 20.933-10.644 30.477-16.792 65.611-16.792 102.181 0 8.338 0.32 16.601 0.947 24.778zM489.314 14.257c4.724-0.928 10.157-1.46 15.713-1.46 15.673 0 30.359 4.227 42.98 11.603-10.641-25.284 5.217 7.231 15.097 42.252 3.285 11.093 6.121 20.151 9.035 28.737-6.896-0.534-14.933-0.838-23.041-0.838-36.879 0-72.288 6.293-105.212 17.863 20.691 30.293-2.569-3.157-18.392-40.522 3.611-33.577 30.46-57.682 62.94-57.682 0.323 0 0.646 0.002 0.968 0.007zM233.314 166.912c-0.548 0.479 0.259-0.383 1.233-1.007 7.196 2.74 26.14 11.090 75.213 36.926l-40.645 40.369c-25.836-48.876-34.225-67.82-36.746-74.831-0.357 0.594 0.172-0.55 0.919-1.515zM523.815 847.754c-7.413 11.976-33.724 30.682-64.288 39.155-4.898 1.178-9.94 1.802-15.121 1.844-0.379 0.011-0.791 0.017-1.204 0.017-11.142 0-21.227-4.522-28.521-11.832-17.763-17.724-23.868-26.231 3.938-58.251q9.058 4.647 18.629 8.546c18.031 8.273 52.097 16.584 87.852 18.556zM456.074 778.555c0.991 3.735-28.038-11.064-51.356-32.079l-131.271-119.158c-76.524-69.317-71.129-184.044-33.634-261.278v0c0.866-1.536 1.812-3.387 3.033-5.711l4.766-9.098c1.26-1.89 2.718-4.411 4.844-8.074l26.23-35.131 0.394-0.433 7.089-7.444 101.218-98.698 1.142-0.906 21.74-14.809c3.466-2.048 5.79-3.387 7.601-4.608 78.494-44.19 195.426-52.145 268.052 18.078l3.348 3.308 0.551 0.551c27.806 28.79 55.808 60.219 82.708 90.585 13.47 15.124 26.86 30.169 40.212 44.938-0.426-4.636 19.625 20.915 31.756 50.549 45.084 119.829-13.284 236.683-82.838 306.315s-186.329 127.961-305.585 83.102zM884.775 755.2c1.16 5.513 1.825 11.849 1.825 18.339 0 14.243-3.199 27.738-8.919 39.807-11.073 4.042-24.2 6.715-37.951 6.715-6.435 0-12.732-0.585-18.843-1.706-16.205-1.082-39.932-12.966-57.602-30.849 13.091 13.207-0.897 1.053-11.59-13.651-22.608 23.871 40.608-25.392 87.42-87.685-12.59-10.928 2.507-1.525 14.787 10.705 12.094 9.459 25.877 31.971 30.765 57.636zM953.108 392.074c-1.211 15.773-16.738 44.227-39.3 65.222l-1.935 1.889c-0.051-23.768-6.923-58.127-19.114-89.847q-3.256-7.945-8.1-17.279c31.941-27.569 40.645-21.543 58.289-3.938 7.518 8.030 12.136 18.857 12.136 30.762 0 4.707-0.722 9.245-2.061 13.511zM795.963 400.542c3.356 0.305-10.895-27.68-31.165-50.125-8.889-9.818-17.948-20.019-27.085-30.259-19.456-21.858-39.582-44.465-59.904-65.497v0c-0.945-1.142-2.009-2.245-3.151-3.387-32.178-30.763-75.888-49.698-124.020-49.698-1.233 0-2.463 0.012-3.69 0.037-41.26 0.072-80.926 11.314-115.181 30.93l-0.741 0.575-3.938 2.324-2.639 1.536-4.844 3.19-4.529 3.151-3.938 2.757-23.198 20.007-72.862 75.579c-0.748 0.945-1.93 2.442-3.033 3.938l-12.564 19.18c2.065-2.784 0.084-0.474-1.361 2.171l-6.516 12.322-0.512 1.024c-14.876 27.381-23.622 59.957-23.622 94.575 0 54.734 21.863 104.362 57.332 140.628l91.966 83.419c-4.396-0.381 19.97 18.792 48.242 30.396 24.591 8.553 51.658 13.261 79.824 13.261 72.403 0 137.541-31.105 182.78-80.682 50.041-45.59 81.215-110.768 81.215-183.228 0-27.947-4.637-54.812-13.185-79.865zM747.323 419.564c-0.033-2.742 5.462 13.747 8.156 31.16l-70.187 0.899c0.685 1.808-0.903-8.228-3.672-17.763 2.121 0.922-6.126-15.347-17.871-28.406l-9.768-10.861 42.378-42.378 2.402 2.639c9.216 10.398 18.393 20.677 27.569 30.759-0.202-2.955 12.958 13.775 20.913 33.19zM461.154 517.317c-9.67-10.857-15.578-25.248-15.578-41.019 0-10.963 2.855-21.258 7.861-30.185l2.045-3.863 1.378-2.442-20.401-16.699 22.095 14.021 2.245-2.875 2.324-2.836-18.156-18.865 20.007 16.817 29.263-29.342-15.202-21.543 17.999 18.905c0.473-0.354 1.694-1.418 2.166-1.812l-13.233-22.804 16.305 20.401-12.367-23.198 14.73 21.583 3.426-2.324c9.71-6.268 21.574-9.994 34.307-9.994 14.849 0 28.515 5.066 39.363 13.565l0.609 0.682 0.276 0.276c9.57 9.886 18.983 20.519 28.357 30.996l14.218 15.754c-0.053-1.105 4.845 5.321 7.774 12.74 2.285 7.482 3.541 15.741 3.541 24.292 0 25.384-11.066 48.183-28.637 63.836l-0.085 0.075c-15.733 17.636-38.524 28.688-63.897 28.688-8.802 0-17.294-1.33-25.285-3.8 1.092 1.185-6.079-2.517-11.836-7.748zM473.718 379.668l1.89 1.89-1.536-2.284zM570.21 619.52c8.708 0.414 33.634-9.721 54.242-25.273l46.897 47.525c-14.694 16.367-54.899 38.363-99.898 46.698l-1.359-68.753zM639.882 290.462l0.551 0.591c6.932 7.168 13.785 15.124 20.716 22.646l-42.417 42.417c-11.382-12.471-33.379-24.281-58.074-27.513l-0.53-73.588c27.859 0.74 56.396 13.282 77.858 33.308zM436.5 292.785l3.426-2.678 5.711-4.254-12.406-23.276 14.533 21.662-11.264-23.867 14.257 21.898 2.599-1.615c2.836-1.654 4.766-2.757 6.302-3.938-1.85-1.035 21.672-12.002 47.216-17.546l1.187 74.221c5.727-2.858-11.194 2.542-26.256 10.889 2.967-1.51 0.862-0.612-0.975 0.648l-7.821 5.083-3.23 2.363-2.521 1.93c-0.551 0.433-3.938 3.269-4.411 3.938l-0.63 0.551-45.804-45.804zM339.614 400.345l3.938-7.286c0.866-1.339 1.851-2.954 3.111-5.159l12.524-17.802 2.678-3.151 7.641-8.231 9.334-9.177 46.080 46.119-2.127 2.402-2.875 3.584-2.442 3.033 20.204 16.66-22.095-14.021-2.56 3.938-1.3 2.166c2.097-3.127-0.104-0.289-1.665 2.918l-3.612 6.889c2.957-8.456-2.433 4.121-5.656 17.541l-75.831 0.852c-2.365 3.44 3.794-19.174 13.703-39.633l-0.47 1.075c0.512-0.827 0.906-1.772 1.418-2.718zM320.985 493.844h73.767c1.017 18.846 11.692 41.34 28.174 58.107l-42.904 42.915-20.086-18.196c-21.376-18.824-36.938-48.831-38.935-82.489zM451.978 660.126l-33.241-30.129 42.26-42.299 10.91 9.964c-2.346-0.052 11.627 10.921 27.842 17.534-2.678-0.287 7.248 2.414 17.593 3.786l0.606 70.328c-0.199 1.011-17.641-2.597-33.848-8.721 1.743 2.796-17.101-6.857-32.218-20.549zM708.411 604.987l-47.262-47.262c5.461-3.688 18.669-26.951 24.852-52.936l69.553-0.981c-1 25.383-19.24 67.827-47.432 101.694z" />
<glyph unicode="&#xe904;" glyph-name="pet-cat" horiz-adv-x="1152" d="M1124.096 364.373l-67.499-11.051c4.777 20.55-1.422-16.085-11.962-50.833l42.127 4.412c0.472 0.029 1.024 0.045 1.58 0.045 15.165 0 27.479-12.21 27.646-27.336 0.010-0.3 0.016-0.634 0.016-0.97 0-15.299-12.144-27.761-27.319-28.272l-64.345-2.177c-81.292-164.983-248.258-276.493-441.269-276.493-2.607 0-5.209 0.020-7.806 0.061-1.806-0.040-4.401-0.061-7-0.061-192.994 0-359.948 111.491-439.967 273.579l-65.58 5.047c-15.221 0.512-27.365 12.974-27.365 28.273 0 0.335 0.006 0.669 0.017 1.002 0.064 15.078 12.341 27.314 27.476 27.314 0.616 0 1.226-0.020 1.832-0.060l41.262-1.361c6.803-25.823-4.311 8.918-10.799 45.261l-67.836 13.619c-13.541 2.275-23.731 13.91-23.731 27.925 0 15.627 12.669 28.296 28.296 28.296 1.612 0 3.193-0.135 4.731-0.394l52.058-8.51c0 4.949-0.811 9.813-0.811 14.805 0 0.080 0 0.175 0 0.27 0 50.894 8.927 99.703 25.3 144.947q-0.938 26.090-0.639 56.213c1.152 74.453 30.251 256.981 109.739 314.155 4.565 3.303 10.275 5.283 16.448 5.283 6.719 0 12.89-2.346 17.739-6.264l150.517-121.387c50.091 17.656 108.21 27.94 168.724 27.989 0.631 0.003 1.35 0.004 2.070 0.004 56.098 0 110.084-9.040 160.581-25.742l144.529 119.264c4.78 3.861 10.93 6.199 17.626 6.199 6.201 0 11.935-2.005 16.587-5.401 63.493-45.683 107.568-171.934 109.616-314.142q0-14.336 0.299-28.544c23.074-50.734 36.523-110.026 36.523-172.458 0-0.15 0-0.3 0-0.45 0-4.969-0.64-9.833-0.811-14.782l52.224 8.533c1.597 0.32 3.433 0.503 5.312 0.503 15.623 0 28.288-12.665 28.288-28.288 0-14.261-10.553-26.057-24.276-28.006zM1006.933 426.453c-0.009 56.135-12.59 109.475-35.089 157.221-0.641 1.11-1.592 5.117-1.604 9.345 0 11.226 0 22.618-0.341 34.138 0.277 5.739 0.435 12.465 0.435 19.228 0 87.82-26.617 169.423-72.225 237.182l-140.178-114.501c-4.807-3.851-10.978-6.18-17.693-6.18-3.384 0-6.631 0.592-9.641 1.677-45.403 16.779-98.071 26.523-153.015 26.523-0.661 0-1.322-0.001-1.982-0.004-58.842-0.001-115.253-10.957-167.181-30.945 0.165-0.123-3.337-0.82-7.002-0.82-6.692 0-12.841 2.324-17.685 6.209l-143.603 116.096c-42.667-51.2-69.845-176.085-70.997-254.549-0.299-21.333-0.427-42.411-0.299-63.061 0-0.060 0.001-0.131 0.001-0.202 0-3.494-0.626-6.842-1.772-9.937-14.311-37.695-22.634-81.509-22.634-127.266 0-0.053 0-0.107 0-0.16 0-8.141 0.811-16.12 1.323-24.141l193.877-31.787c13.499-2.308 23.643-13.921 23.643-27.904 0-15.595-12.62-28.243-28.205-28.288-1.631 0-3.227 0.14-4.778 0.408l-176.389 28.904c-7.224 27.118 0.298-8.95 12.596-42.724l169.463-3.185c15.422-0.264 27.823-12.828 27.823-28.288 0-15.625-12.667-28.292-28.292-28.292-0.165 0-0.33 0.001-0.494 0.004h-0.829l-142.165 4.821c76.941-131.053 217.175-217.646 377.635-217.646 2.238 0 4.472 0.017 6.702 0.050 1.556-0.034 3.79-0.050 6.028-0.050 160.459 0 300.694 86.593 376.522 215.598l-142.631-2.773c-0.14-0.002-0.304-0.004-0.469-0.004-15.625 0-28.292 12.667-28.292 28.292 0 15.46 12.401 28.024 27.798 28.288l170.307 5.76c-10.724-31.096 2.814 2.282 11.268 37.635l-176.004-26.414c-1.384-0.244-2.98-0.384-4.608-0.384-15.589 0.045-28.209 12.693-28.209 28.288 0 13.983 10.145 25.596 23.476 27.88l194.045 31.81c0.555 8.021 1.365 15.829 1.365 24.149zM725.888 430.933c-27.057 0.024-48.981 21.964-48.981 49.024 0 27.075 21.949 49.024 49.024 49.024s49.024-21.949 49.024-49.024c-0.024-27.080-21.983-49.024-49.067-49.024 0 0 0 0 0 0zM643.627 218.624c22.235 0.024 40.253 18.043 40.277 40.275 0 15.625 12.665 28.29 28.288 28.29s28.288-12.665 28.288-28.288c0-0.021 0-0.045 0-0.069 0-53.443-43.325-96.768-96.768-96.768-26.516 0-50.541 10.665-68.020 27.94-17.464-17.3-41.507-27.982-68.044-27.982-53.443 0-96.768 43.325-96.768 96.768 0 0.084 0 0.169 0 0.253 0 15.61 12.665 28.275 28.288 28.275s28.288-12.665 28.288-28.288c0.145-22.158 18.141-40.065 40.319-40.065 20.206 0 36.94 14.863 39.867 34.253-0.112 0.618 0.565 3.771 1.715 6.685l-47.512 74.903c-2.741 4.28-4.37 9.502-4.37 15.104 0 15.623 12.665 28.288 28.288 28.288 0.006 0 0.013 0 0.019 0h99.839c0.026 0 0.056 0 0.087 0 15.623 0 28.288-12.665 28.288-28.288 0-5.303-1.459-10.266-3.998-14.508l-46.649-79.999c0-0.683 0.256-1.408 0.384-2.133 2.95-19.619 19.681-34.495 39.891-34.517zM425.472 430.933c-27.075 0-49.024 21.949-49.024 49.024s21.949 49.024 49.024 49.024c27.075 0 49.024-21.949 49.024-49.024 0 0 0 0 0 0-0.048-27.056-21.968-48.976-49.019-49.024z" />
<glyph unicode="&#xe905;" glyph-name="pet-dog" horiz-adv-x="1065" d="M1034.404 567.562l-3.85-10.65c-18.842-52.552-30.433-84.337-60.375-92.529-3.309-0.545-7.123-0.856-11.010-0.856-19.701 0-37.534 7.998-50.429 20.925-45.18 40.051-73.511 98.233-73.511 163.031 0 1.221 0.010 2.44 0.030 3.656 0.188 2.53 0.297 5.696 0.297 8.887 0 37.696-15.16 71.852-39.716 96.702-4.43 4.165-10.43 6.732-17.030 6.732-1.3 0-2.576-0.1-3.822-0.291-4.789-0.456-12.081-4.568-17.275-10.55 30.454-38.467 95.896-229.124 121.841-432.127 1.782-19.416 2.233-30.721 2.233-41.575 0-176.865-71.066-282.624-190.013-282.624-20.464 0.009-40.255 3.917-58.442 11.028-23.397-21.929-55.738-35.080-91.15-35.080-3.414 0-6.799 0.122-10.152 0.363-2.436-0.238-5.802-0.359-9.196-0.359-35.383 0-67.699 13.134-92.338 34.792-16.681-6.801-36.468-10.739-57.169-10.784-119.007 0-190.073 102.4-190.073 274.022 0.002 14.802 0.91 30.336 2.674 45.61-9.853 31.14 43.208 246.423 131.584 442.352-6.116-1.053-16.031 12.904-29.608 21.68-3.164-0.159-6.812-2.327-9.269-5.472-25.859-30.583-41.562-70.419-41.562-113.924 0-1.39 0.016-2.776 0.048-4.158-0.282-67.803-27.557-130.487-71.818-176.799-13.424-16.873-34.087-27.655-57.268-27.655-1.839 0-3.662 0.068-5.467 0.201-29.946 6.335-43.463 37.669-65.705 89.647l-1.311 2.99c-53.903 125.297 2.458 271.688 86.016 351.519 33.692 33.313 80.036 53.893 131.186 53.893 9.993 0 19.803-0.785 29.37-2.298 47.643-5.335 99.681-39.753 130.805-88.757 30.279 11.404 64.864 18.492 101.105 18.492 7.458 0 14.845-0.3 22.151-0.889 4.467 0.42 10.807 0.624 17.195 0.624 35.928 0 70.349-6.452 102.167-18.262 18.371 38.112 66.934 75.11 124.617 87.739 11.557 2.281 23.289 3.444 35.293 3.444 43.715 0 83.826-15.427 115.187-41.134 72.232-58.28 118.253-147.185 118.253-246.838 0-33.82-5.3-66.402-15.116-96.96zM532.48 26.931c0.935-0.026 2.035-0.040 3.139-0.040 17.361 0 33.882 3.601 48.855 10.096-1.017-5.463-31.546 24.843-51.441 61.73 4.174 0.729-19.79-35.363-51.792-62.177 14.079-6.198 30.807-9.64 48.339-9.64 1.019 0 2.036 0.012 3.050 0.035zM557.056 261.263c6.513 4.096 14.172 8.438 22.487 13.23 29.942 17.121 85.647 49.152 86.016 74.834 0.173 1.731 0.272 3.741 0.272 5.775 0 15.648-5.85 29.93-15.482 40.778-18.336 18.737-56.47 28.035-116.517 28.322h-3.072c-59.884-0.328-98.017-9.585-116.408-28.385-9.577-10.785-15.427-25.067-15.427-40.715 0-2.033 0.099-4.044 0.292-6.026 0.431-25.512 56.136-57.461 85.996-74.582 8.192-4.792 16.015-9.175 22.487-13.23-4.846 4.932 11.757-6.195 24.465-20.801-5.708-4.435 7.859 10.242 24.434 20.536zM896.205 867.103c-21.597 17.992-49.635 28.914-80.223 28.914-8.527 0-16.855-0.849-24.906-2.466-39.719-6.392-81.798-38.492-104.008-82.358-5.13-9.302-13.982-14.885-24.138-14.885-5.791 0-11.157 1.815-15.562 4.907-25.828 14.179-56.702 22.554-89.533 22.554-7.955 0-15.794-0.492-23.49-1.446-62.035 0.093-87.799-4.699-109.385-20.387l-3.523-2.703c-4.665-3.728-10.65-5.982-17.162-5.982-1.914 0-3.782 0.195-5.585 0.565-6.968 0.965-14.32 6.342-18.305 13.791-15.674 40.2-56.774 75.786-107.073 86.675-6.819 1.081-13.52 1.594-20.341 1.594-36.674 0-69.886-14.826-93.968-38.812-69.996-66.883-117.756-188.412-73.724-290.812l1.393-3.031c-15.672 35.396 1.935-14.001 28.040-57.739-10.977-5.629 2.375 2.615 13.164 13.419 34.285 37.203 55.306 87.085 55.306 141.877 0 0.666-0.003 1.331-0.009 1.995-0.001 0.187-0.001 0.528-0.001 0.87 0 57.843 21.98 110.552 58.042 150.231 11.331 12.461 27.844 20.366 46.204 20.366 3.879 0 7.676-0.353 11.361-1.029 30.069-8.927 58.318-37.537 68.648-73.707 1.792-4.381 2.724-8.58 2.724-12.998 0-5.029-1.209-9.777-3.351-13.967-15.335-1.33-91.038-201.22-126.007-414.811-2.594-20.201-3.424-33.705-3.469-47.394 0-66.088 13.23-219.729 135.7-219.729 19.406 0.019 37.833 5.149 53.803 14.132-2.308-1.287 1.329 1.493 5.49 3.289 33.821 20.027 63.301 62 71.163 111.189-1.499 13.325-10.932 27.32-24.228 35.793-6.204 3.861-13.331 7.916-21.031 12.421-47.432 27.156-112.394 64.348-113.418 120.996-0.143 2.144-0.224 4.647-0.224 7.17 0 30.289 11.742 57.836 30.922 78.337 38.238 39.093 102.955 44.418 155.056 44.664h3.441c52.265-0.287 116.982-5.571 155.279-44.728 19.122-20.396 30.867-47.909 30.867-78.165 0-2.546-0.083-5.073-0.247-7.578-1.006-56.348-65.969-93.54-113.4-120.696-7.741-4.424-14.828-8.479-20.849-12.288-10.487-5.496-20.78-18.737-24.302-34.531 3.464-39.931 29.407-82.769 67.271-110.131 2.762-0.414 7.96-3.135 11.918-7.095 14.63-7.939 32.309-12.709 51.097-12.78 122.492 0 135.722 159.744 135.722 228.147 0 9.421-0.41 19.292-1.229 29.491-9.011 109.732-74.588 351.519-123.863 431.718-2.524 4.049-4.020 8.965-4.020 14.23 0 4.983 1.34 9.654 3.68 13.67 9.349 21.609 33.392 41.9 62.617 48.653 4.72 0.869 9.418 1.295 14.216 1.295 19.595 0 37.532-7.104 51.374-18.877 36.533-34.219 59.367-82.896 59.367-136.906 0-2.021-0.032-4.034-0.095-6.039-0.121-2.137-0.195-4.982-0.195-7.845 0-48.055 20.653-91.287 53.566-121.303-6.371 4.825 2.27-3.017 12.366-8.528-11.415-25.884 10.147 12.638 23.64 54.77l4.551 13.075c7.285 22.907 11.484 49.253 11.484 76.58 0 82.532-38.296 156.12-98.087 203.963zM604.406 504.156c-25.992 0-47.063 21.071-47.063 47.063s21.071 47.063 47.063 47.063c25.978 0 47.040-21.047 47.063-47.020-0.023-25.993-21.075-47.060-47.059-47.106zM460.349 504.156c-25.975 0.023-47.022 21.085-47.022 47.063 0 25.992 21.071 47.063 47.063 47.063 25.978 0 47.040-21.047 47.063-47.020 0-0.002 0-0.002 0-0.002 0-26-21.066-47.081-47.061-47.104z" />
<glyph unicode="&#xe906;" glyph-name="pet-rabbit" d="M1001.748 320.276c-0.696-62.143-31.63-118.366-79.073-153.622-26.813-14.957-58.173-23.542-91.539-23.542-26.26 0-51.278 5.318-74.035 14.935 37.778 43.96 10.242 4.89-24.3-26.634 13.7-13.816 23.778-34.72 25.028-57.97 2.294-60.13-58.043-109.519-137.403-112.63-2.56 0-5.12 0-7.641 0-70.617 0-127.449 37.809-136.743 89.876l-106.338 11.5c0.088-1.508 0.138-3.271 0.138-5.046 0-15.589-3.869-30.274-10.699-43.148-29.809-56.45-112.713-69.684-188.45-29.669s-111.537 115.909-81.526 172.82c-4.255-5.603 3.376 8.192 13.794 19.351-48.392 54.965-77.889 127.573-77.889 207.071 0 12.183 0.693 24.203 2.041 36.025l2.82 26.123c17.961 159.82 152.348 282.912 315.486 282.912 11.968 0 23.781-0.662 35.405-1.953l37.244-4.046c-2.954 8.192-5.553 16.030-7.877 23.631-15.439 52.775-32.689 145.132 24.734 170.969 8.008 3.64 17.367 5.761 27.221 5.761 9.292 0 18.143-1.886 26.192-5.297 34.73-13.619 71.633-57.296 109.836-130.079 9.177 66.718 32.886 145.723 93.538 145.723 99.289 0 99.289-180.775 99.289-248.832v-55.532c60.924-7.263 125.633-51.12 163.544-113.141 30.527-48.963 48.267-107.127 48.267-169.435 0-9.194-0.386-18.298-1.144-27.297zM910.927 486.754c-27.758 49.652-82.826 87.188-147.047 92.857-14.314 0.979-25.006 12.189-25.103 25.918v78.779c0 187.116-39.385 196.569-47.065 196.569-23.631 0-47.065-88.103-47.065-177.9 0-0.021 0-0.046 0-0.071 0-4.023-0.915-7.832-2.549-11.23l42.957-100.748c1.322-3.020 2.091-6.54 2.091-10.24 0-14.423-11.692-26.116-26.116-26.116-10.724 0-19.938 6.463-23.959 15.707l-50.793 119.583c-63.015 148.441-105.708 174.75-117.248 179.239-1.944 1.007-4.244 1.598-6.683 1.598-2.112 0-4.12-0.443-5.937-1.242-10.224-4.61-14.556-44.94 4.033-108.625-15.265 45.491-0.308-9.94 23.007-60.737l-0.597 1.7c-61.591 135.083-8.223-5.837 69.030-130.389-2.528-9.175 35.052-57.409 84.018-89.827 8.95-5.189 14.228-13.647 14.228-23.338 0-14.426-11.695-26.121-26.121-26.121-4.735 0-9.176 1.26-13.006 3.463-16.732 1.661-71.047 50.251-105.396 111.54 96.278-149.46 4.163-25.537-61.469 113.352l-70.34 14.421c-8.517 0.971-18.389 1.525-28.39 1.525-136.263 0-248.514-102.808-263.418-235.088l-3.222-28.778c-1.014-8.677-1.593-18.729-1.593-28.916 0-75.467 31.756-143.518 82.635-191.517 5.13-4.893 8.24-11.61 8.24-19.053 0-10.1-5.726-18.863-14.109-23.22-5.060-1.245-13.408-8.206-18.431-17.266-15.861-30.182 11.393-77.010 59.6-102.61s102.4-21.622 118.154 8.35c2.808 6.086 4.446 13.206 4.446 20.709 0 8.276-1.992 16.086-5.524 22.977-1.189 2.735-1.958 6.254-1.958 9.953 0 14.421 11.691 26.112 26.112 26.112 1 0 1.987-0.056 2.958-0.166l150.921-16.491c4.175-0.433 8.468-0.788 12.8-1.063 13.781-0.793 24.657-12.162 24.657-26.071 0-1.433-0.115-2.838-0.337-4.208-0.22-1.291-0.358-2.951-0.358-4.643 0-0.42 0.008-0.837 0.025-1.253 1.14-29.597 42.691-52.716 91.449-51.14s88.34 28.554 87.198 58.171c-1.592 15.481-12.341 29.926-27.274 36.936-8.159 4.722-13.358 13.125-13.358 22.742 0 8.591 4.148 16.212 10.551 20.971-15.044-15.529 24.083 14.286 53.33 52.126 5.274 6.856 12.75 10.833 21.155 10.833 3.633 0 7.093-0.743 10.235-2.086 19.978-10.61 43.875-16.877 69.236-16.877 23.558 0 45.854 5.408 65.712 15.049 32.644 26.396 54.222 67.56 54.518 113.774 0.561 6.545 0.88 14.106 0.88 21.741 0 51.935-14.783 100.418-40.371 141.469zM809.511 335.439c-26.776 0-48.482 21.706-48.482 48.482s21.706 48.482 48.482 48.482c26.776 0 48.482-21.706 48.482-48.482-0.045-26.744-21.702-48.415-48.437-48.482zM809.511 387.663c-0.001 0-0.003 0-0.005 0-2.106 0-3.826-1.653-3.933-3.732 0-4.145 7.483-4.145 7.483-0.010-0.082 1.943-1.578 3.524-3.487 3.74z" />
<glyph unicode="&#xe907;" glyph-name="pet-horek" horiz-adv-x="1103" d="M1042.747 691.161c17.736 34.791-3.046-15.635-32.956-59.318l0.818-1.019c0.117-4.128 0.183-8.987 0.183-13.861 0-95.224-25.335-184.531-69.632-261.547-7.942-41.874-21.018-105.244-28.776-151.639 52.775-18.983 77.588-47.734 73.728-85.465-2.599-25.482-20.992-68.214-115.161-68.214h-28.751c-50.417 2.363-93.964 36.057-110.865 82.542-8.509 24.505-16.229 48.569-23.357 72.948-34.383 2.206-69.553 5.396-100.037 8.231-47.262 4.411-100.943 9.374-147.456 10.043 18.206 21.417-13.659-28.475-55.685-67.595l-1.816-4.124c39.522-10.594 84.897-16.679 131.694-16.679 1.568 0 3.134 0.007 4.699 0.020 8.425-0.002 16.735-0.002 24.494 0.471h6.617c51.2 0 85.346-21.622 91.451-57.817 2.757-16.108 2.599-55.887-58.092-77.076-58.866-20.228-126.694-31.906-197.25-31.906-0.868 0-1.736 0.002-2.604 0.005-0.55-0.003-1.36-0.005-2.171-0.005-59.475 0-116.896 8.795-171.033 25.154 4.599-6.681-54.375 14.984-105.15 48.156-2.685-2.771-30.68 17.513-50.504 44.224-1.642 2.121-2.903 3.815-4.242 5.548l-1.969 2.678c-1.969 2.56-4.017 5.396-5.908 8.192-2.599 3.742-4.923 7.444-7.207 11.106l-3.19 4.884c9.927-12.691 1.444-3.329-4.887 7.449 0.94-1.909-0.666 0.814-1.716 3.8-22.515 43.473-35.688 94.706-35.688 149.016 0 26.028 3.026 51.35 8.744 75.633 30.994 159.491 170.536 281.166 339.168 284.919 4.714 0.199 9.777 0.308 14.865 0.308 65.914 0 127.544-18.344 180.063-50.206-42.632 26.002-9.234 2.37 27.946-14.348 16.554-6.651 36.065-10.723 56.475-11.127 1.032-0.034 2.048-0.052 3.068-0.052 15.407 0 29.85 4.126 42.284 11.334 12.399 16.472 24.61 47.021 27.664 80.22 28.029-47.378-3.071-1.289-24.432 49.881-1.549 4.023-1.943 5.244-2.298 6.386l-0.788 2.363c-16.825 22.88-29.254 56.291-30.942 92.51-0.015 95.394 27.87 143.561 82.693 143.561 29.636-1.286 60.163-16.761 81.542-40.608 15.333 1.94 32.939 3.114 50.818 3.114 0.17 0 0.34 0 0.511 0 0.776 0.006 1.725 0.009 2.674 0.009 19.666 0 38.996-1.435 57.892-4.206 15.56 21.488 46.274 38.506 80.986 41.808 80.865 0.040 80.865-100.273 80.865-143.123-1.077-40.534-18.889-83.512-47.597-116.837zM1009.861 897.457c-21.354-3.214-47.578-21.242-63.741-46.358-21.926 5.508-46.803 8.92-72.477 8.92-1.971 0-3.938-0.020-5.899-0.060-0.963 0.024-2.445 0.035-3.929 0.035-24.003 0-47.333-2.883-69.662-8.32-7.018 19.261-30.302 38.449-58.398 45.56-21.79 0.146-31.243-34.828-31.243-90.714 0.53-23.107 10.053-48.536 25.671-69.079 0.913-3.113 2.095-6.578 3.71-10.044-15.358 31.845 3.826-18.352 31.967-62.259-1.67-43.866-18.979-91.557-47.67-130.313-24.329-14.732-54.403-23.85-86.607-23.85-23.639 0-46.13 4.913-66.508 13.773-53.351 21.48-83.874 61.692-206.164 61.692-142.936-3.424-261.69-106.904-288.61-243.369-4.823-20.568-7.408-41.98-7.408-63.996 0-44.845 10.726-87.185 29.751-124.594-0.783 0.919-0.179-1.284 0.817-3.254-12.47 20.288 1.006-6.055 19.423-28.134 0.936-1.273 1.803-2.888 3.023-4.463 0.364-4.765 16.584-21.837 36.732-32.457-5.441-1.291 42.174-28.496 94.982-43.26 49.327-14.359 103.25-22.292 159.025-22.292 64.347 0 126.228 10.559 184.004 30.038 40.761 14.567 15.988 33.432-24.775 31.896-7.518-0.318-16.34-0.499-25.204-0.499-43.407 0-85.8 4.339-126.769 12.608-34.647 0.487-82.747 18.693-121.872 48.173-26.935 19.038-21.658 37.746-14.647 44.756 4.676 2.602 10.256 4.133 16.194 4.133 8.986 0 17.153-3.508 23.207-9.229 10.46-6.286 21.882-13.612 34.249-20.977 3.151 8.153 6.42 16.502 9.255 23.394 1.722-5.975 42.723 36.669 68.832 88.143 95.284 4.805 216.234-14.612 319.304-18.038 7.877-30.129 18.511-66.166 32.177-105.236 8.677-25.557 32.548-45.292 61.396-48.337l29.070-0.027c84.047 0 89.758 41.236-16.62 63.015 3.426 41.708 24.379 143.793 38.676 210.393 41.103 69.336 65.394 152.834 65.394 242.005 0 4.534-0.063 9.052-0.188 13.556 0.015 5.993 0.015 11.979 0.015 17.611-12.256-21.579 19.546 21.041 40.068 69.591 20.238 20.952 36.184 52.763 39.408 88.248 0.042 57.635-6.851 91.624-27.961 91.624zM940.702 758.075c-12.833 0-23.237 10.404-23.237 23.237s10.404 23.237 23.237 23.237c12.833 0 23.237-10.404 23.237-23.237s-10.404-23.237-23.237-23.237zM872.172 666.821c-7.713 1.499-26.014 17.263-37.435 37.435 2.462 9.943 17.527 26.41 36.662 35.912 10.168-1.883 27.834-16.236 38.751-35.001-1.234-8.086-17.137-26.548-37.482-38.088zM804.234 758.075c-12.833 0-23.237 10.404-23.237 23.237s10.404 23.237 23.237 23.237c12.833 0 23.237-10.404 23.237-23.237s-10.404-23.237-23.237-23.237z" />
<glyph unicode="&#xe908;" glyph-name="pet-parrot" horiz-adv-x="986" d="M952.889 541.829c-2.704-11.193-12.633-19.377-24.475-19.377-6.251 0-11.969 2.281-16.367 6.056 6.123-3.020-11.323 10.886-31.498 19.715-5.55-58.212-51.754-105.247-110.127-111.29l-1.17-0.044q-3.072-18.963-6.751-37.926c-25.714-130.617-66.446-192.474-123.98-220.539v-40.277c4.875 0.524 10.531 0.822 16.256 0.822 34.145 0 65.809-10.622 91.869-28.742 5.571-4.294 9.469-11.559 9.469-19.734 0-13.9-11.268-25.168-25.168-25.168-5.725 0-11.003 1.911-15.232 5.131-4.526 4.705-19.277 12.116-35.584 15.046 2.954-4.358 6.215-9.022 9.515-13.991 2.58-3.884 4.116-8.656 4.116-13.786 0-13.888-11.258-25.146-25.146-25.146-8.757 0-16.469 4.477-20.972 11.267-4.841 12.45-22.357 29.254-44.063 37.627 5.037 2.538-10.033-1.564-23.727-8.086-2.327-1.128-5.939-1.976-9.75-1.976-13.887 0-25.145 11.258-25.145 25.145 0 9.631 5.414 17.997 13.365 22.22-11.123-4.323 7.979 5.044 28.623 10.67l1.209 32.935c-23.168-3.709-49.878-5.828-77.084-5.828-11.108 0-22.134 0.353-33.067 1.049l1.493-91.098c3.843 0.31 8.319 0.486 12.837 0.486 34.755 0 67.071-10.447 93.977-28.372 5.766-4.231 9.875-11.662 9.875-20.053 0-13.892-11.262-25.154-25.154-25.154-5.502 0-10.591 1.766-14.732 4.763 1.63 0.28-11.075 8.007-25.279 12.266 1.8-3.1 4.114-6.476 6.427-10.003 2.58-3.884 4.116-8.656 4.116-13.786 0-13.888-11.258-25.146-25.146-25.146-8.757 0-16.469 4.477-20.972 11.267-5.814 13.959-24.583 31.226-47.674 39.27-0.307 1.542-19.214-3.112-36.48-10.789-2.289-1.293-6.177-2.283-10.297-2.283-13.887 0-25.145 11.258-25.145 25.145 0 10.25 6.133 19.067 14.929 22.983-8.893-2.631 13.327 7.023 37.158 12.436l1.345 100.23-22.49 1.1c-16.33-9.78-38.774-40.214-48.561-75.884-0.705-4.86-0.932-9.563-1.236-14.949-1.631-29.81-4.020-74.524-35.233-92.653-5.571-4.116-12.575-6.587-20.157-6.587-4.542 0-8.876 0.887-12.84 2.497-15.009 5.798-28.371 21.274-32.323 40.205-29.801-13.816-64.692-22.101-101.518-22.101-4.108 0-8.192 0.103-12.25 0.307-30.605-1.881-103.726-5.901-107.784 51.367-1.934 26.852 26.814 46.763 66.56 74.297-58.217-36.78-5.131-8.327 39.658 29.618 38.166 34.207 63.983 86.198 65.467 144.24q-0.715 29.084 1.067 57.149c0 0.759 0 1.479 0 2.238-1.081-2.083 1.917 30.431 7.449 62.074 7.797 34.903 14.661 71.122 20.843 105.71 9.14 48.090 17.863 94.549 29.544 137.406-1.365-0.417-2.541-1.138-3.793-1.555-10.839-3.202-23.293-5.044-36.176-5.044-0.042 0-0.084 0-0.125 0-27.217 0.028-52.812 8.023-74.355 21.8-6.087 4.259-10.385 11.836-10.385 20.417 0 13.887 11.258 25.145 25.145 25.145 4.583 0 8.88-1.226 12.581-3.369 13.102-8.508 29.27-13.605 46.629-13.605 8.114 0 15.968 1.114 23.417 3.196 8.313 0.705 23.057 9.13 33.642 21.275-4.030-0.359-8.786-0.611-13.601-0.611s-9.572 0.252-14.257 0.744c-37.856 2.412-76.695 25.181-101.338 58.966-3.311 4.515-5.126 9.667-5.126 15.243 0 13.888 11.259 25.147 25.147 25.147 8.312 0 15.682-4.033 20.261-10.249 13.017-19.859 37.742-35.817 66.322-39.092 3.269-0.403 6.545-0.61 9.868-0.61 14.49 0 28.063 3.93 39.71 10.781-34.344 0.288-67.995 13.629-94.297 35.503-18.579 17.11-30.338 41.863-30.338 69.363 0 8.145 1.032 16.049 2.971 23.589 2.702 10.343 12.536 18.334 24.237 18.334 13.887 0 25.145-11.258 25.145-25.145 0-1.173-0.080-2.327-0.236-3.457-1.166-3.724-1.845-8.156-1.845-12.746 0-13.006 5.456-24.738 14.203-33.032 23.544-14.777 52.137-23.53 82.774-23.53 18.096 0 35.479 3.054 51.661 8.675-0.748-0.315-0.331-0.304 0.090-0.304s0.838-0.011 1.253-0.033c45.492 24.059 99.499 38.181 156.803 38.181 20.786 0 41.138-1.858 60.899-5.417-2.301 0.414-0.352 0.144 1.512-0.335 38.657-4.031 92.524-35.437 129.924-80.9-3.889 8.231 12.457-14.131 22.688-39.608 7.309-0.171 15.503 0.388 23.825 0.396 0.544 0.006 1.175 0.009 1.807 0.009 95.966 0 173.908-77.165 175.164-172.833 0.002-0.274 0.002-0.458 0.002-0.641 0-13.695-1.604-27.015-4.634-39.783zM220.577 165.111c11.564 12.148-13.090-25.989-45.682-55.527 54.099 48.438 9.518 2.237-43.172-32.715 62.637 39.571 4.832 8.604-43.973-32.675 11.018-2.034 22.915-3.512 35.156-3.512 6.125 0 12.165 0.37 18.096 1.089 79.841 4.481 89.55 9.335 97.893 29.322-5.879 24.462-12.023 55.22-18.318 94.018zM731.477 510.578c4.928-13.952 18.003-23.769 33.37-23.769 1.795 0 3.558 0.134 5.281 0.392 30.42 5.016 54.943 30.092 59.269 61.606 0.042 3.764-0.234 7.232-0.765 10.615l-0.217-0.376c-35.829-1.269-71.976-19.105-97.528-46.85 0.172-0.596 0.4-1.089 0.627-1.582zM694.689 761.534c-14.618 23.395-54.016 51.685-100.087 62.993-246.101 25.147-269.729-103.005-308.944-315.352-6.485-35.119-13.274-71.832-21.466-109.644q-4.324-25.448-6.182-51.996c0.25-5.848 0.392-12.708 0.392-19.602 0-13.283-0.528-26.443-1.564-39.459-0.113-10.373 2.092-39.873 6.274-68.732-10.202 54.393 3.711-51.149 28.185-152.573-2.679 12.136-1.828 9.738-1.309 7.219-7.162 25.408 0.616-10.043 13.242-43.099 0.921 8.966 3.028 24.702 3.58 40.833 0.353 7.125 0.694 13.079 1.263 17.63 6.030 49.911 43.653 87.457 83.437 127.204 64.474 64.474 125.611 125.421 60.681 242.271-1.99 3.52-3.163 7.729-3.163 12.212 0 13.895 11.264 25.16 25.16 25.16 9.412 0 17.617-5.168 21.932-12.822 72.125-129.833 15.918-213.194-42.184-274.861 158.151-7.585 219.439-2.124 259.072 199.68 2.617 13.312 5.006 26.852 7.13 40.429-10.553 4.053-26.472 20.641-34.724 41.14 0.080-0.469-1.111 2.355-1.768 5.378 2.355-1.975-1.112 0.634-3.786 3.915-26.025 33.242-41.711 75.592-41.711 121.605 0 14.886 1.642 29.388 4.754 43.335 5.573 28.626 30.721 59.126 64.326 74.014 4.925-6.405-2.337 9.77-12.735 23.428zM780.44 703.545c-0.068 0-0.149 0-0.23 0-16.647 0-32.562-3.131-47.189-8.837-18.133-5.080-35.495-22.578-41.671-44.74-2.107-9.249-3.251-19.333-3.251-29.685 0-23.468 5.878-45.563 16.243-64.892 29.384 30.54 74.074 51.562 123.657 53.817 0.425 0.015 0.433 0.015 0.441 0.015 28.444 0 55.351-6.578 79.284-18.296-7.85 63.79-60.991 112.667-125.548 112.667-0.597 0-1.192-0.004-1.787-0.012zM580.532 653.369c-25.174 0.279-45.473 20.75-45.473 45.964 0 25.386 20.58 45.966 45.966 45.966s45.965-20.578 45.966-45.963c-0.172-25.424-20.821-45.967-46.269-45.967-0.067 0-0.134 0-0.201 0z" />
<glyph unicode="&#xe909;" glyph-name="pet-fish" horiz-adv-x="1109" d="M1081.472 469.333c-5.889-282.93-236.637-510.032-520.427-510.032-3.218 0-6.429 0.029-9.632 0.087-0.409-0.012-1.463-0.015-2.517-0.015-144.064 0-274.867 56.779-371.25 149.181-95.716 90.529-155.407 218.671-155.407 360.754 0 131.455 51.094 250.976 134.507 339.787-9.228 8.226-15.114 20.591-15.39 34.332-0.001 107.058 368.426 110.13 410.41 110.13s410.453-3.072 410.453-110.080c-0.135-13.331-5.913-25.754-15.131-34.63 83.231-88.465 134.384-207.941 134.384-339.365 0-0.052 0-0.105 0-0.157zM110.933 633.472c-20.266-48.552-32.041-104.97-32.043-164.138 0.096-125.783 53.074-239.476 137.951-319.809 86.296-82.645 203.318-133.405 332.196-133.405 1.004 0 2.007 0.003 3.010 0.009 2.549-0.057 5.736-0.090 8.93-0.090 252.504 0 457.904 201.676 463.908 452.737 0.011 0.585 0.011 0.617 0.011 0.649 0 61.094-12.552 119.257-35.218 172.050 27.753 9.58-0.819-1.473-25.984-17.418-14.47-12.156-40.681-23.229-69.354-25.664-22.502 0.48-50.538 10.086-74.032 25.918-4.22 4.779-23.237 14.199-44.188 18.134-9.63 0.025-27.744-7.109-42.694-18.253-15.096-12.498-41.294-23.573-69.955-26.013-22.537 0.48-50.578 10.085-74.075 25.917-4.233 4.788-23.244 14.204-44.188 18.135-9.674 0.017-27.766-7.113-42.691-18.252-15.116-12.506-41.327-23.578-70-26.014-22.502 0.48-50.538 10.086-74.032 25.918-3.823 4.702-22.959 14.559-44.123 18.805-9.697 0.029-27.789-7.101-42.714-18.24-15.116-12.506-41.327-23.578-70-26.014-22.524 0.489-50.654 10.178-74.195 26.128-5.084 2.892-10.929 6.007-16.518 8.908zM551.893 896.981c-207.531 0-326.187-33.28-350.933-53.504 24.747-20.224 143.36-53.504 350.933-53.504s326.229 33.28 350.976 53.504c-24.789 20.267-143.403 53.504-350.976 53.504zM897.92 778.539c-107.563-43.477-315.136-45.141-346.027-45.141s-238.464 1.664-346.027 45.141c24.265 31.912-30.777-24.671-69.098-92.009 5.738-5.697 12.564-9.281 18.922-12.865 4.769-5.128 23.789-14.55 44.743-18.487 9.675-0.017 27.767 7.113 42.692 18.251 15.127 12.501 41.315 23.55 69.96 25.971 22.513-0.48 50.543-10.086 74.029-25.918 4.207-4.771 23.23-14.195 44.188-18.134 9.656-0.023 27.676 7.019 42.573 18.042 15.124 12.515 41.328 23.583 69.994 26.010 22.473-0.48 50.501-10.087 73.987-25.918 4.228-4.794 23.259-14.233 44.23-18.177 9.655-0.019 27.736 7.113 42.649 18.251 15.117 12.506 41.328 23.579 70.001 26.014 22.509-0.48 50.542-10.086 74.032-25.917 4.214-4.775 23.233-14.197 44.188-18.134 9.675-0.017 27.767 7.113 42.692 18.251-39.859-26-8.086-2.046 27.575 15.109 26.801-32.495-12.533 35.247-65.416 89.775zM264.277 488.064c36.367 39.555 88.359 64.255 146.12 64.255 68.506 0 128.897-34.743 164.514-87.571 3.616-5.211 5.511-10.812 5.511-16.855s-1.895-11.644-5.123-16.24c-35.969-53.505-96.376-88.298-164.909-88.298-57.858 0-109.925 24.799-146.15 64.347l-57.35-48.278c-4.896-4.167-11.293-6.701-18.283-6.701-15.624 0-28.291 12.666-28.291 28.291 0 8.635 3.869 16.367 9.968 21.556l53.672 45.431-54.571 44.885c-6.063 5.219-9.878 12.903-9.878 21.478 0 15.623 12.665 28.288 28.288 28.288 6.641 0 12.747-2.288 17.574-6.12zM478.763 417.877c-4.676-5.541 19.117 9.688 37.385 29.988 7.287-4.403-12.263 15.652-35.945 29.363-7.31-7.862-11.298-18.442-11.298-29.953 0-11.094 3.705-21.324 9.945-29.518zM423.296 400.597c-7.050 13.411-11.188 29.302-11.188 46.161 0 17.66 4.54 34.259 12.517 48.694-4.388-0.096-9.177 0.145-14.023 0.145-42.24 0-80.198-18.328-106.358-47.465 26.154-29.615 64.231-48.092 106.624-48.092 4.435 0 8.823 0.202 13.155 0.598zM603.051 336.597c57.21-0.203 109.248-24.863 145.718-64.171l59.082 48.384c4.849 4.015 11.132 6.45 17.984 6.45 15.627 0 28.296-12.668 28.296-28.296 0-8.775-3.994-16.617-10.264-21.807l-54.533-44.966 53.589-45.355c6.139-5.222 10.008-12.954 10.008-21.589 0-15.624-12.666-28.291-28.291-28.291-6.989 0-13.386 2.534-18.323 6.734l-57.091 48.308c-36.379-39.757-88.496-64.596-146.413-64.596-68.571 0-129.010 34.817-164.604 87.737-3.617 5.215-5.512 10.816-5.512 16.859s1.895 11.644 5.123 16.24c36.116 52.896 96.624 87.742 165.307 88.357zM589.696 184.832c3.874-0.374 8.376-0.587 12.927-0.587 42.303 0 80.303 18.421 106.416 47.679-26.201 29.552-64.279 47.975-106.66 47.975-4.782 0-9.509-0.235-14.17-0.693 8.319-13.88 12.868-30.494 12.868-48.17 0-16.875-4.146-32.783-11.475-46.758zM534.229 202.112c6.204 8.086 9.943 18.348 9.943 29.482 0 11.477-3.972 22.026-10.615 30.349 5.333 5.784-18.372-9.505-36.579-29.824-6.832 3.756 12.953-16.155 36.852-29.623z" />
<glyph unicode="&#xe90a;" glyph-name="geopoint" horiz-adv-x="805" d="M401.774-64s-402.286 323.365-402.286 619.813c0 221.631 179.667 401.298 401.298 401.298s401.298-179.667 401.298-401.298c0 0 0 0 0 0-0.073-296.448-400.311-619.813-400.311-619.813zM403.456 740.571c-0.022 0-0.047 0-0.073 0-101.636 0-184.027-82.392-184.027-184.027s82.392-184.027 184.027-184.027c101.636 0 184.027 82.392 184.027 184.027 0 0 0 0 0 0 0 101.61-82.35 183.986-183.95 184.027z" />
<glyph unicode="&#xe90b;" glyph-name="calendar" horiz-adv-x="1396" d="M372.364 960h279.273v-279.273h-279.273v279.273zM744.727 960h279.273v-279.273h-279.273v279.273zM1117.091 960h279.273v-279.273h-279.273v279.273zM0 587.636h279.273v-279.273h-279.273v279.273zM372.364 587.636h279.273v-279.273h-279.273v279.273zM744.727 587.636h279.273v-279.273h-279.273v279.273zM1117.091 587.636h279.273v-279.273h-279.273v279.273zM0 215.273h279.273v-279.273h-279.273v279.273zM372.364 215.273h279.273v-279.273h-279.273v279.273zM744.727 215.273h279.273v-279.273h-279.273v279.273z" />
<glyph unicode="&#xe90c;" glyph-name="price" horiz-adv-x="896" d="M0 960h384v-256h-384v256zM0 576h640v-256h-640v256zM0 192h896v-256h-896v256z" />
<glyph unicode="&#xe90d;" glyph-name="fb" d="M512-64c-282.77 0-512 229.23-512 512s229.23 512 512 512c282.77 0 512-229.23 512-512s-229.23-512-512-512zM753.984 768h-177.984c-70.692 0-128-57.308-128-128v-128h-128v-128h128v-320h128v320h177.984l14.016 128h-192v64c0 35.346 28.654 64 64 64h134.016z" />
<glyph unicode="&#xe90e;" glyph-name="vk" d="M512-64c-282.77 0-512 229.23-512 512s229.23 512 512 512c282.77 0 512-229.23 512-512s-229.23-512-512-512zM723.2 433.856c-12.792 16.603-42.261 34.81-75.927 41.081l-0.873 2.951c13.657 2.478 37.086 19.807 52.086 43.080 12.315 19.058 19.478 41.815 19.478 66.245 0 0.603-0.004 1.205-0.013 1.806 0.014 0.567 0.022 1.342 0.022 2.119 0 20.269-5.101 39.346-14.090 56.018-2.219 9.050-19.173 27.901-40.737 39.11-6.163 5.184-29.56 14.623-54.81 18.39-23.495 2.946-49.628 4.563-76.14 4.563-3.951 0-7.893-0.036-11.827-0.107l-182.897 0.008v-518.016h207.36c2.203-0.052 4.797-0.081 7.399-0.081 28.892 0 56.939 3.624 83.708 10.442 4.896-1.799 36.306 11.929 62.025 32.48 4.135-0.648 25.427 20.938 38.569 47.299 9.593 19.691 14.99 41.902 14.99 65.373 0 1.15-0.013 2.297-0.039 3.441 0.128 1.868 0.199 4.25 0.199 6.649 0 29.527-10.779 56.536-28.617 77.307zM584.064 296.256c-9.253-4.717-23.922-8.675-39.437-9.399q-19.443-0.713-70.643-0.713h-6.784v129.856h23.744q34.816 0 55.488-0.512c0.263 0.002 0.574 0.004 0.885 0.004 11.309 0 22.185-1.852 32.342-5.269 6.984-0.767 19.713-8.859 28.43-20.196 6.271-9.755 9.935-21.488 9.935-34.077 0-1.277-0.038-2.546-0.112-3.804 0.015-0.178 0.018-0.594 0.018-1.010 0-11.878-3.038-23.046-8.38-32.77-2.469-6.809-12.679-16.849-25.395-21.986zM557.696 512.64c-5.783-3.326-16.265-6.528-27.419-7.284q-13.605-0.716-47.013-0.716h-16.064v109.76h8.768q34.816 0 52.352-0.512c10.255-0.042 21.122-2.395 31.008-6.606 6.105-1.571 14.709-9.043 19.387-18.761 3.845-7.182 6.32-16.199 6.5-25.777 0.012-0.516 0.018-1.058 0.018-1.601 0-10.251-2.173-19.995-6.084-28.795-2.058-6.335-10.493-15.116-21.176-19.605z" />
<glyph unicode="&#xe90f;" glyph-name="ok" d="M512-64c-282.77 0-512 229.23-512 512s229.23 512 512 512c282.77 0 512-229.23 512-512s-229.23-512-512-512zM510.592 836.992c-108.23 0-195.968-87.738-195.968-195.968s87.738-195.968 195.968-195.968c108.23 0 195.968 87.738 195.968 195.968s-87.738 195.968-195.968 195.968zM673.536 435.2c-0.020 0-0.043 0-0.067 0-11.126 0-21.5-3.219-30.242-8.776l0.229 0.136c-37.663-23.884-83.528-38.062-132.704-38.062s-95.041 14.178-133.73 38.669l0.578-0.991c-8.439 5.257-18.684 8.373-29.656 8.373-31.317 0-56.704-25.387-56.704-56.704 0-22.663 13.295-42.22 32.511-51.299 2.657-6.321 53.552-30.814 109.151-42.546l-112.006-114.529c-12.204-10.619-19.874-26.177-19.874-43.526 0-31.812 25.788-57.6 57.6-57.6 18.95 0 35.763 9.151 46.26 23.276l105.773 105.818 108.8-108.8c10.613-12.093 26.101-19.685 43.362-19.685 31.812 0 57.6 25.788 57.6 57.6 0 18.99-9.19 35.834-23.366 46.327l-111.132 110.958c14.495-1.943 70.524 17.147 118.9 47.351l-1.524-0.887c16.207 10.169 26.823 27.941 26.823 48.192 0 31.274-25.318 56.635-56.577 56.704zM510.592 558.592c-45.526 0-82.432 36.906-82.432 82.432s36.906 82.432 82.432 82.432c45.526 0 82.432-36.906 82.432-82.432 0-0.023 0-0.045 0-0.068-0.036-45.495-36.929-82.364-82.432-82.364 0 0 0 0 0 0z" />
<glyph unicode="&#xe910;" d="M971.291 706.048c-7.161-7.581-17.282-12.301-28.506-12.301-6.45 0-12.536 1.558-17.901 4.319l-57.178 63.17-118.568-118.568 168.098-168.152c4.875-4.876 7.89-11.612 7.89-19.052s-3.015-14.176-7.89-19.052c-7.161-7.581-17.282-12.301-28.506-12.301-6.45 0-12.536 1.558-17.901 4.319l-55.561 58.373-302.727-302.888c-9.752-9.75-23.224-15.78-38.104-15.78s-28.351 6.030-38.104 15.78l-38.103 38.103-1.671-1.671c-9.752-9.75-23.224-15.78-38.104-15.78s-28.351 6.030-38.104 15.78l-3.018 3.018-263.006-235.466-4.743 4.743 235.628 262.952-3.018 3.018c-9.75 9.752-15.78 23.224-15.78 38.104s6.030 28.351 15.78 38.104l1.671 1.671-34.978 34.978c-9.75 9.752-15.78 23.224-15.78 38.104s6.030 28.351 15.78 38.104l308.332 308.332-59.015 61.602c-4.68 4.841-7.564 11.444-7.564 18.721 0 14.883 12.065 26.947 26.947 26.947 7.277 0 13.88-2.884 18.728-7.572l168.144-168.090 120.616 120.616-57.398 63.326c-4.68 4.841-7.564 11.444-7.564 18.721 0 14.883 12.065 26.947 26.947 26.947 7.277 0 13.88-2.884 18.728-7.572l60.301-60.355 1.617 1.832 44.84-44.84-1.725-1.832 60.308-60.362c4.907-4.882 7.944-11.639 7.944-19.106 0-7.386-2.972-14.079-7.785-18.946zM596.561 719.252l-79.171-79.387 101.861-102.023-38.104-38.104-102.077 102.023-69.47-69.686 101.861-102.077-38.104-38.104-102.077 102.077-84.291-84.345 187.284-187.392 309.625 309.625z" />
<glyph unicode="&#xe911;" d="M190.195 807.909l681.499-681.499-38.104-38.104-681.499 681.499z" />
<glyph unicode="&#xe912;" glyph-name="shpritz-yes" d="M971.291 706.048c-7.161-7.581-17.282-12.301-28.506-12.301-6.45 0-12.536 1.558-17.901 4.319l-57.178 63.116-118.568-118.568 168.098-168.152c4.875-4.876 7.89-11.612 7.89-19.052s-3.015-14.176-7.89-19.052c-7.161-7.581-17.282-12.301-28.506-12.301-6.45 0-12.536 1.558-17.901 4.319l-55.561 58.427-302.727-302.888c-9.752-9.75-23.224-15.78-38.104-15.78s-28.351 6.030-38.104 15.78l-38.103 38.103-1.671-1.671c-9.752-9.75-23.224-15.78-38.104-15.78s-28.351 6.030-38.104 15.78l-3.018 3.018-263.006-235.466-4.743 4.743 235.628 262.952-3.018 3.018c-9.75 9.752-15.78 23.224-15.78 38.104s6.030 28.351 15.78 38.104l1.671 1.671-34.978 34.978c-9.75 9.752-15.78 23.224-15.78 38.104s6.030 28.351 15.78 38.104l308.332 308.332-59.015 61.602c-5.076 4.907-8.227 11.777-8.227 19.383 0 14.883 12.065 26.947 26.947 26.947 7.606 0 14.476-3.151 19.376-8.219l168.105-168.105 120.616 120.616-57.344 63.326c-4.68 4.841-7.564 11.444-7.564 18.721 0 14.883 12.065 26.947 26.947 26.947 7.277 0 13.88-2.884 18.728-7.572l60.301-60.355 1.617 1.832 44.84-44.84-1.725-1.832 60.308-60.362c4.907-4.882 7.944-11.639 7.944-19.106 0-7.386-2.972-14.079-7.785-18.946zM596.615 719.252l-79.225-79.387 101.861-102.023-38.104-38.104-102.077 102.023-69.47-69.686 101.861-102.077-38.104-38.104-102.077 102.077-84.291-84.345 187.284-187.392 309.625 309.625z" />
<glyph unicode="&#xe913;" glyph-name="search" d="M416 832c159.058 0 288-128.942 288-288s-128.942-288-288-288c-159.058 0-288 128.942-288 288s128.942 288 288 288v0zM751.897 298.535c50.367 68.805 80.103 153.662 80.103 245.465 0 229.75-186.25 416-416 416v0c-229.75 0-416-186.25-416-416s186.25-416 416-416c91.77 0 176.599 29.715 245.391 80.049l246.961-246.961c25.112-24.254 65.029-23.907 89.716 0.78s25.034 64.604 0.78 89.716l-246.951 246.951z" />
<glyph unicode="&#xe914;" glyph-name="X" d="M938.494 808.679l-360.679-360.679 360.679-360.679c-20.078-23.717-42.098-45.738-65.815-65.815l-360.679 360.679-360.679-360.679c-23.717 20.078-45.738 42.098-65.815 65.815l360.679 360.679-360.679 360.679c20.078 23.717 42.098 45.738 65.815 65.815l360.679-360.679 360.679 360.679c23.717-20.078 45.738-42.098 65.815-65.815z" />
<glyph unicode="&#xe915;" horiz-adv-x="666" d="M421.018 634.010c0.432-1.429 12.622 6.427 21.733 17.008 1.492-0.622 11.631 14.257 17.238 31.2 0.577 6.577 7.089 18.455 16.498 27.282 7.828 5.186 17.397 8.255 27.682 8.255 1.531 0 3.046-0.068 4.543-0.201l5.643 0.014v38.758h-10.035c-1.435 0.074-3.116 0.116-4.807 0.116-17.27 0-33.515-4.385-47.684-12.102-9.225-4.091-23.21-19.907-30.024-39.118q-2.271-6.291-5.804-13.868t-6.4-13.312c-1.736-6.585-10.59-16.853-22.046-22.807-7.667-4.454-18.73-7.834-30.534-8.368l-0.156 107.822h-48.742v-107.827c-9.739 0.102-20.814 3.117-30.538 8.327-6.092 1.791-15.973 10.93-21.456 22.553q-2.739 5.421-6.272 13.255t-5.99 13.67c-1.951 11.544-14.239 28.96-31.043 40.112-14.016 7.475-30.301 11.758-47.585 11.758-1.644 0-3.279-0.039-4.904-0.115l-9.805 0.009v-38.912h5.837c1.297 0.116 2.807 0.182 4.331 0.182 10.094 0 19.513-2.889 27.475-7.886 4.447-2.517 12.612-13.576 16.519-26.485-1.23-2.146 6.616-19.589 18.184-33.899-1.064-0.861 9.417-10.594 22.010-16.622l-104.288-134.426h56.678l89.702 113.818h21.146v-113.818h48.64v113.818h23.757l85.402-113.818h59.29z" />
<glyph unicode="&#xe916;" horiz-adv-x="666" d="M359.565 295.755c171.285 13.631 306.035 156.949 306.035 331.739 0 183.8-149 332.8-332.8 332.8s-332.8-149-332.8-332.8c0-174.791 134.75-318.109 307.2-331.814v-154.88h-153.6v-51.2h153.6v-153.6h51.2v153.6h153.6v51.2h-153.6v154.88zM332.8 908.8c155.523 0 281.6-126.077 281.6-281.6s-126.077-281.6-281.6-281.6c-155.523 0-281.6 126.077-281.6 281.6s126.077 281.6 281.6 281.6z" />
<glyph unicode="&#xe917;" glyph-name="V" horiz-adv-x="1408" d="M704 53.248l-673.28 673.408 140.8 140.8 532.48-532.48 532.48 532.48 140.8-140.8z" />
<glyph unicode="&#xe918;" glyph-name="V2" horiz-adv-x="1408" d="M704 53.376l-673.28 673.28 168.832 169.344 504.448-505.088 504.576 505.088 168.704-169.344z" />
<glyph unicode="&#xe919;" glyph-name="eye" horiz-adv-x="1707" d="M854.699-64c-0.284 0-0.62 0-0.956 0-367.635 0-687.393 204.987-851.211 506.9 160.387 307.676 476.178 512.521 840.154 516.3 3.251 0.004 5.754 0.801 8.371 0.801h3.641c0.095 0 0.207 0 0.319 0 367.654 0 687.432-204.985 851.279-506.9-163.847-312.116-483.624-517.1-851.279-517.1-0.112 0-0.224 0-0.336 0zM737.621 846.222c-94.257 0-170.667-76.41-170.667-170.667s76.41-170.667 170.667-170.667c94.257 0 170.667 76.41 170.667 170.667s-76.41 170.667-170.667 170.667zM1181.355 783.189c42.098-62.074 67.209-138.641 67.209-221.074 0-219.367-177.832-397.198-397.198-397.198s-397.198 177.832-397.198 397.198c0 83.688 25.882 161.332 70.078 225.362-116.743-22.428-299.269-155.803-415.049-336.119 154.814-244.456 422.946-401.645 727.79-401.645 3.707 0 7.409 0.023 11.105 0.070 2.573-0.046 6.275-0.070 9.982-0.070 304.845 0 572.976 157.189 727.763 394.936-37.209 103.467-199.347 257.041-399.014 336.539z" />
<glyph unicode="&#xe91a;" glyph-name="key" horiz-adv-x="2141" d="M1861.818 215.273h-93.091l-93.091 93.091h-93.091l-93.091-93.091h-93.091l-93.091 93.091h-93.091l-93.091-93.091h-149.504c-86.602-167.077-258.224-279.273-456.050-279.273-282.77 0-512 229.23-512 512s229.23 512 512 512c197.827 0 369.449-112.196 454.707-276.427l1174.848-2.846v-186.182zM325.818 587.636c-77.119 0-139.636-62.517-139.636-139.636s62.517-139.636 139.636-139.636c77.119 0 139.636 62.517 139.636 139.636s-62.517 139.636-139.636 139.636z" />
<glyph unicode="&#xe91b;" glyph-name="star-big-normal" horiz-adv-x="1058" d="M1013.76 498.551l-183.706-192.068 35.703-263.373c0.393-2.75 0.617-5.926 0.617-9.155 0-37.703-30.564-68.267-68.267-68.267-10.776 0-20.969 2.497-30.032 6.944l-239.009 115.158-239.445-115.337c-8.661-4.269-18.854-6.765-29.63-6.765-37.703 0-68.267 30.564-68.267 68.267 0 3.228 0.224 6.405 0.658 9.514l35.662 263.014-183.671 192.068c-11.715 12.236-18.927 28.865-18.927 47.18 0 33.389 23.97 61.179 55.641 67.101l261.952 47.511 125.918 234.052c11.762 21.557 34.265 35.937 60.126 35.937s48.363-14.38 59.947-35.58l126.062-234.375 261.495-47.411c32.135-5.953 56.149-33.763 56.149-67.183 0-18.34-7.232-34.991-19-47.256zM996.898 556.271c-3.282 11.278-13.496 20.646-26.174 23.007l-261.741 47.478c-9.292 1.148-18.683 7.855-23.804 17.23l-126.041 234.094c-5.879 10.787-17.135 17.984-30.071 17.984s-24.193-7.197-29.982-17.806l-125.973-234.094c-3.816-8.15-12.842-15.324-23.681-17.375l-261.674-47.445c-16.047-2.994-28.032-16.889-28.032-33.584 0-9.157 3.606-17.472 9.475-23.602l183.387-192.056c5.856-6.117 9.46-14.431 9.46-23.586 0-1.625-0.114-3.224-0.333-4.788l-35.546-263.329c-0.181-1.32-0.284-2.845-0.284-4.395 0-18.851 15.282-34.133 34.133-34.133 5.379 0 10.467 1.244 14.992 3.46l239.244 115.247c4.33 2.134 9.426 3.382 14.814 3.382s10.484-1.248 15.015-3.471l239.21-115.282c4.316-2.118 9.393-3.356 14.759-3.356 18.851 0 34.133 15.282 34.133 34.133 0 1.556-0.104 3.088-0.306 4.589l-35.684 263.334c-0.196 1.375-0.308 2.963-0.308 4.576 0 9.171 3.617 17.497 9.501 23.629l183.694 192.056c5.852 6.117 9.455 14.428 9.455 23.581 0 3.772-0.612 7.401-1.742 10.794z" />
<glyph unicode="&#xe91c;" horiz-adv-x="1058" d="M259.994-34.304c0 0-0.001 0-0.001 0-37.703 0-68.267 30.564-68.267 68.267 0 3.226 0.224 6.4 0.657 9.507l35.663 263.014-183.671 192.068c-11.715 12.236-18.927 28.865-18.927 47.18 0 33.389 23.97 61.179 55.641 67.101l261.952 47.511 125.918 234.052c11.766 21.54 34.26 35.908 60.109 35.908v0c0.004 0 0.009 0 0.014 0 25.863 0 48.367-14.383 59.95-35.586l126.062-234.375 261.495-47.411c32.108-5.976 56.093-33.773 56.093-67.172 0-18.312-7.21-34.939-18.945-47.199l-183.682-192.043 35.703-263.373c0.393-2.75 0.617-5.926 0.617-9.155 0-37.703-30.564-68.267-68.267-68.267-10.776 0-20.969 2.497-30.032 6.944l-239.009 115.124-239.445-115.337c-8.657-4.264-18.845-6.758-29.615-6.758-0.004 0-0.009 0-0.013 0z" />
<glyph unicode="&#xe91d;" horiz-adv-x="1058" d="M798.106-0.171c-5.386 0-10.485 1.26-15.012 3.502l-239.213 115.282c-4.33 2.134-9.426 3.382-14.814 3.382s-10.484-1.248-15.015-3.471l-239.244-115.282c-4.324-2.127-9.412-3.371-14.791-3.371-18.851 0-34.133 15.282-34.133 34.133 0 1.55 0.103 3.075 0.303 4.57l35.684 263.334c0.188 1.347 0.296 2.902 0.296 4.483 0 9.216-3.653 17.579-9.589 23.721l-183.526 192.024c-5.857 6.118-9.463 14.433-9.463 23.59 0 16.694 11.985 30.59 27.821 33.551l261.673 47.444c9.292 1.148 18.683 7.855 23.804 17.23l126.144 234.128c5.879 10.787 17.135 17.984 30.071 17.984s24.193-7.197 29.982-17.806l125.939-234.197c3.816-8.15 12.842-15.324 23.681-17.375l261.708-47.445c16.061-2.982 28.061-16.884 28.061-33.589 0-9.155-3.604-17.467-9.47-23.597l-183.694-192.056c-5.873-6.121-9.49-14.447-9.49-23.618 0-1.614 0.112-3.202 0.329-4.756l35.751-263.227c0.184-1.333 0.29-2.873 0.29-4.437 0-18.833-15.253-34.104-34.079-34.133z" />
<glyph unicode="&#xe91e;" horiz-adv-x="1058" d="M259.994-34.304c0 0-0.001 0-0.001 0-37.703 0-68.267 30.564-68.267 68.267 0 3.226 0.224 6.4 0.657 9.507l35.663 263.014-183.671 192.068c-11.715 12.236-18.927 28.865-18.927 47.18 0 33.389 23.97 61.179 55.641 67.101l261.952 47.511 125.918 234.052c11.766 21.54 34.26 35.908 60.109 35.908v0c0.004 0 0.009 0 0.014 0 25.863 0 48.367-14.383 59.95-35.586l126.062-234.375 261.495-47.411c32.108-5.976 56.093-33.773 56.093-67.172 0-18.312-7.21-34.939-18.945-47.199l-183.682-192.043 35.703-263.373c0.393-2.75 0.617-5.926 0.617-9.155 0-37.703-30.564-68.267-68.267-68.267-10.776 0-20.969 2.497-30.032 6.944l-239.009 115.124-239.445-115.337c-8.657-4.264-18.845-6.758-29.615-6.758-0.004 0-0.009 0-0.013 0z" />
<glyph unicode="&#xe91f;" horiz-adv-x="1058" d="M798.106-0.171c-5.386 0-10.485 1.26-15.012 3.502l-239.213 115.282c-4.33 2.134-9.426 3.382-14.814 3.382s-10.484-1.248-15.015-3.471l-239.244-115.282c-4.324-2.127-9.412-3.371-14.791-3.371-18.851 0-34.133 15.282-34.133 34.133 0 1.55 0.103 3.075 0.303 4.57l35.684 263.334c0.188 1.347 0.296 2.902 0.296 4.483 0 9.216-3.653 17.579-9.589 23.721l-183.526 192.024c-5.857 6.118-9.463 14.433-9.463 23.59 0 16.694 11.985 30.59 27.821 33.551l261.673 47.444c9.292 1.148 18.683 7.855 23.804 17.23l126.144 234.128c5.879 10.787 17.135 17.984 30.071 17.984s24.193-7.197 29.982-17.806l125.939-234.197c3.816-8.15 12.842-15.324 23.681-17.375l261.708-47.445c16.061-2.982 28.061-16.884 28.061-33.589 0-9.155-3.604-17.467-9.47-23.597l-183.694-192.056c-5.873-6.121-9.49-14.447-9.49-23.618 0-1.614 0.112-3.202 0.329-4.756l35.751-263.227c0.184-1.333 0.29-2.873 0.29-4.437 0-18.833-15.253-34.104-34.079-34.133z" />
<glyph unicode="&#xe920;" horiz-adv-x="1132" d="M853.1-47.832c-8.464 0.005-16.535 1.994-23.706 5.53l-263.768 126.943-263.545-127.084c-6.835-3.368-14.88-5.337-23.384-5.337-29.765 0-53.895 24.129-53.895 53.895 0 2.528 0.174 5.016 0.511 7.452l39.311 289.941-202.429 211.591c-9.239 9.658-14.926 22.78-14.926 37.23 0 26.393 18.971 48.354 44.021 52.992l288.453 52.275 138.671 257.94c9.282 17.032 27.055 28.396 47.481 28.396s38.199-11.364 47.34-28.114l138.866-258.222 288.067-52.224c25.337-4.727 44.261-26.667 44.261-53.027 0-14.459-5.693-27.587-14.961-37.267l-202.302-211.625 39.343-290.223c0.305-2.153 0.479-4.64 0.479-7.168 0-29.763-24.126-53.891-53.888-53.895z" />
<glyph unicode="&#xe921;" horiz-adv-x="1132" d="M565.895 889.29l150.905-280.738 313.667-56.859-220.322-230.454 42.846-315.931-287.097 138.348-287.205-138.348 42.846 315.931-220.376 230.454 313.829 56.859z" />
<glyph unicode="&#xe922;" glyph-name="star-mini-normal" horiz-adv-x="1132" d="M1069.595 515.099l-202.429-211.645 39.343-290.223c0.289-2.095 0.453-4.516 0.453-6.975 0-29.765-24.129-53.895-53.895-53.895-8.389 0-16.331 1.917-23.411 5.336l-263.762 126.944-263.815-127.084c-6.835-3.368-14.88-5.337-23.384-5.337-29.765 0-53.895 24.129-53.895 53.895 0 2.528 0.174 5.016 0.511 7.452l39.311 289.941-202.429 211.591c-9.239 9.658-14.926 22.78-14.926 37.23 0 26.393 18.971 48.354 44.021 52.992l288.453 52.275 138.671 257.94c9.282 17.032 27.055 28.396 47.481 28.396s38.199-11.364 47.34-28.114l138.866-258.222 288.067-52.224c25.382-4.689 44.353-26.651 44.353-53.043 0-14.45-5.687-27.573-14.945-37.25zM716.8 609.199l-150.905 280.738-150.905-280.738-313.829-56.859 220.376-230.4-42.846-315.877 287.205 138.294 287.205-138.294-42.846 315.931 220.376 230.4z" />
<glyph unicode="&#xe923;" d="M1024 448c0-282.77-229.23-512-512-512s-512 229.23-512 512c0 282.77 229.23 512 512 512s512-229.23 512-512z" />
<glyph unicode="&#xe924;" d="M723.2 433.856c-12.856 16.681-42.297 34.859-75.933 41.083l-0.867 2.949c13.644 2.466 37.073 19.77 52.087 43.018 12.314 19.063 19.477 41.826 19.477 66.262 0 0.597-0.004 1.192-0.013 1.787 0.014 0.572 0.022 1.353 0.022 2.135 0 20.264-5.102 39.336-14.090 56.002-2.212 9.038-19.17 27.894-40.737 39.11-6.163 5.184-29.56 14.623-54.81 18.39-23.47 2.947-49.574 4.565-76.056 4.565-3.98 0-7.952-0.037-11.915-0.109l-182.893 0.009v-518.016h207.36c2.125-0.048 4.63-0.075 7.141-0.075 28.986 0 57.12 3.645 83.97 10.503 4.832-1.819 36.273 11.917 62.024 32.479 4.145-0.64 25.431 20.942 38.567 47.298 9.593 19.696 14.99 41.911 14.99 65.387 0 1.145-0.013 2.287-0.038 3.426 0.129 1.875 0.2 4.265 0.2 6.672 0 29.52-10.78 56.522-28.618 77.284zM579.264 532.864c-2.223-6.78-10.633-15.559-21.293-20.057-6.003-3.402-16.51-6.616-27.689-7.386q-13.61-0.717-47.018-0.717h-16.064v109.696h8.768q34.816 0 52.352-0.512c10.302-0.041 21.145-2.393 31.004-6.605 6.108-1.572 14.713-9.044 19.391-18.762 3.849-7.189 6.323-16.203 6.5-25.777 0.009-0.455 0.014-0.927 0.014-1.399 0-10.304-2.196-20.095-6.145-28.931zM609.728 318.72c-2.641-7.149-12.853-17.195-25.572-22.34-9.556-4.821-24.245-8.788-39.781-9.523q-19.447-0.713-70.647-0.713h-6.528v129.856h23.744q34.752 0 55.488-0.512c0.263 0.002 0.574 0.004 0.885 0.004 11.309 0 22.185-1.852 32.342-5.269 6.997-0.771 19.721-8.86 28.43-20.195 6.271-9.755 9.935-21.488 9.935-34.077 0-1.277-0.038-2.546-0.112-3.804 0.015-0.174 0.018-0.583 0.018-0.994 0-11.883-3.038-23.057-8.38-32.787z" />
<glyph unicode="&#xe925;" d="M1024 448c0-282.77-229.23-512-512-512s-512 229.23-512 512c0 282.77 229.23 512 512 512s512-229.23 512-512z" />
<glyph unicode="&#xe926;" d="M703.232 330.304v0c-4.777-8.090-57.372-33.929-115.018-46.049l108.682-111.455c14.332-10.603 23.522-27.447 23.522-46.437 0-31.812-25.788-57.6-57.6-57.6-17.261 0-32.749 7.593-43.306 19.62l-0.056 0.065-108.8 108.8-105.728-105.6c-10.613-14.175-27.365-23.25-46.237-23.25-31.812 0-57.6 25.788-57.6 57.6 0 17.287 7.615 32.795 19.674 43.353l0.067 0.057 114.368 114.432c-11.41-2.313-65.557 15.364-112.766 43.477-17.899 8.308-31.194 27.866-31.194 50.529 0 31.317 25.387 56.704 56.704 56.704 10.973 0 21.217-3.117 29.897-8.513l-0.241 0.716c37.661-23.891 83.526-38.074 132.704-38.074s95.043 14.182 133.729 38.68l-1.025-0.606c8.547 5.415 18.954 8.629 30.112 8.629 31.399 0 56.853-25.454 56.853-56.853 0-20.241-10.578-38.012-26.508-48.086zM510.592 444.992c-108.23 0-195.968 87.738-195.968 195.968s87.738 195.968 195.968 195.968c108.23 0 195.968-87.738 195.968-195.968s-87.738-195.968-195.968-195.968zM510.592 723.392c-45.526 0-82.432-36.906-82.432-82.432s36.906-82.432 82.432-82.432c45.526 0 82.432 36.906 82.432 82.432-0.109 45.443-36.973 82.24-82.432 82.24 0 0 0 0 0 0z" />
<glyph unicode="&#xe927;" d="M1024 448c0-282.77-229.23-512-512-512s-512 229.23-512 512c0 282.77 229.23 512 512 512s512-229.23 512-512z" />
<glyph unicode="&#xe928;" d="M774.016 640h-134.016c-35.346 0-64-28.654-64-64v-64h192l-14.016-128h-177.984v-320h-128v320h-128v128h128v128c0 70.692 57.308 128 128 128h178.112l20.032-128z" />
<glyph unicode="&#xe929;" glyph-name="pencil" horiz-adv-x="1088" d="M989.12 583.744l-525.824-525.312-402.24-60.352 64.384 398.208 525.76 525.312c23.827 23.842 56.751 38.59 93.12 38.59s69.293-14.748 93.119-38.589l151.681-151.681c23.823-23.823 38.558-56.735 38.558-93.088s-14.735-69.265-38.558-93.088zM152.704 89.6v0zM665.216 834.496l40.512 40.512-506.496-505.984-24.64-148.096 109.376-109.376 148.096 24.704 69.76 69.824 296.96 296.64-46.464 46.528-355.52-355.2-46.592 46.592 355.584 355.136-46.592 46.528-355.584-355.136-46.528 46.528 355.584 355.136-46.528 46.592 42.496 40.512 231.68-231.68 57.6 57.6z" />
<glyph unicode="&#xe92a;" glyph-name="arrow-left" horiz-adv-x="647" d="M548.487-49.987l-497.987 497.987 497.987 497.987 53.895-53.895-444.093-444.093 444.093-444.093z" />
<glyph unicode="&#xe92b;" glyph-name="arrow-right" horiz-adv-x="647" d="M96.687-49.987l497.987 497.987-497.987 497.987-53.895-53.895 444.093-444.093-444.093-444.093z" />
<glyph unicode="&#xe92c;" horiz-adv-x="1138" d="M170.667-64c-94.257 0-170.667 76.41-170.667 170.667v512c0 94.257 76.41 170.667 170.667 170.667h81.408l58.368 86.016c26.471 50.726 78.684 84.759 138.846 84.759 2.048 0 4.086-0.039 6.114-0.118l227.263 0.009c1.689 0.065 3.672 0.103 5.663 0.103 60.082 0 112.234-33.956 138.311-83.725l58.891-87.045h81.579c94.257 0 170.667-76.41 170.667-170.667v-512c0-94.257-76.41-170.667-170.667-170.667h-796.444z" />
<glyph unicode="&#xe92d;" horiz-adv-x="1138" d="M170.667-64h796.444c94.257 0 170.667 76.41 170.667 170.667v512c0 94.257-76.41 170.667-170.667 170.667h-81.579l-58.891 87.045c-26.077 49.769-78.229 83.725-138.311 83.725-1.992 0-3.975-0.037-5.663-0.103l-227.263-0.009c-2.028 0.078-4.067 0.118-6.114 0.118-60.162 0-112.375-34.034-138.846-84.759l-58.368-86.016h-81.408c-94.257 0-170.667-76.41-170.667-170.667v-512c0-94.257 76.41-170.667 170.667-170.667zM967.111-7.111h-796.444c-62.838 0-113.778 50.94-113.778 113.778v512c0 62.838 50.94 113.778 113.778 113.778h111.502l75.321 110.933c16.054 35.575 51.215 59.887 92.054 59.887 1.958 0 3.904-0.056 5.834-0.166l227.288 0.012c1.613 0.092 3.501 0.145 5.4 0.145 40.836 0 75.994-24.308 91.794-59.244l75.52-111.567h111.73c62.838 0 113.778-50.94 113.778-113.778v-512c0-62.838-50.94-113.778-113.778-113.778z" />
<glyph unicode="&#xe92e;" glyph-name="arrow-big-left" horiz-adv-x="1252" d="M1251.556 391.111h-1016.092l377.685-377.685-76.060-76.060-510.635 510.635 510.635 510.635 76.060-76.060-377.685-377.685h1016.092v-113.778z" />
<glyph unicode="&#xe92f;" glyph-name="arrow-big-right" horiz-adv-x="1252" d="M0.74 391.111h1016.092l-377.685-377.685 76.060-76.060 510.635 510.635-510.635 510.635-76.060-76.060 377.685-377.685h-1016.092v-113.778z" />
<glyph unicode="&#xe930;" glyph-name="tw" d="M137.158 99.231c30.523-34.544 47.957-48.267-2.607 1.092 0.831-0.326 1.663-0.65 2.495-0.972-85.035 91.409-137.046 213.955-137.046 348.649 0 282.77 229.23 512 512 512s512-229.23 512-512c0-282.77-229.23-512-512-512-148.017 0-281.364 62.81-374.842 163.231zM137.158 99.231c-0.037 0.040-0.074 0.080-0.112 0.12 56.526-21.844 117.961-33.822 182.195-33.822 279.235 0 505.6 226.365 505.6 505.6 0 1.015-0.003 2.029-0.008 2.887 0 7.723 0.17 15.662 0.511 23.818 56.498 41.347 100.606 98.622 90.183 92.74-41.453-18.76-87.127-29.835-104.647-29.070l0.803 0.45c41.582 25.158 72.114 66.742 79.523 99.329-47.207-28.503-101.534-46.408-115.355-44.389-32.616 34.695-78.933 56.363-130.31 56.363-98.757 0-178.816-80.059-178.816-178.816 0-14.349 1.69-28.303 3.403-40.406-151.487 7.826-285.404 82.093-366.693 187.544-15.608-26.583-24.557-57.546-24.557-90.6 0-61.751 31.235-116.208 79.116-148.827-30.877 0.983-59.767 9.836-80.681 22.329v-2.242c0.017-86.194 61.019-158.137 144.621-174.93-15.353-4.283-31.536-6.572-48.254-6.572-11.924 0-23.576 1.164-33.349 1.933 23.32-70.56 89.296-121.708 167.655-122.302-59.436-46.531-133.936-74.703-206.721-77.167 11.933-16.057 24.78-31.393 35.893-43.97z" />
<glyph unicode="&#xe931;" d="M1024 448c0-282.77-229.23-512-512-512s-512 229.23-512 512c0 282.77 229.23 512 512 512s512-229.23 512-512z" />
<glyph unicode="&#xe932;" d="M810.88 661.504c17.52-0.765 63.194 10.31 104.647 29.070 10.423 5.882-33.685-51.393-90.183-92.74q-0.511-12.234-0.511-23.818c0.005-0.858 0.008-1.872 0.008-2.887 0-279.235-226.365-505.6-505.6-505.6-65.18 0-127.478 12.334-184.69 34.794 68.974-67.329 11.422-17.282-33.286 42.878 72.785 2.464 147.285 30.636 206.721 77.167-78.359 0.594-144.335 51.742-167.655 122.302 9.773-0.769 21.425-1.933 33.349-1.933 16.718 0 32.901 2.289 48.254 6.572-83.602 16.793-144.604 88.736-144.621 174.93 0 0.77 0 1.474 0 2.242 20.914-12.493 49.804-21.346 80.681-22.329-47.881 32.619-79.116 87.076-79.116 148.827 0 33.054 8.949 64.017 24.557 90.6 81.289-105.451 215.206-179.718 366.693-187.544-1.713 12.103-3.403 26.057-3.403 40.406 0 98.757 80.059 178.816 178.816 178.816 51.377 0 97.694-21.668 130.31-56.363 13.821-2.019 68.148 15.886 115.355 44.389-7.409-32.587-37.941-74.171-79.523-99.329z" />
<glyph unicode="&#xe933;" horiz-adv-x="960" d="M505.6 511.104l-88.896-179.84-91.84 179.84h-68.864v-319.424h59.392v231.744l77.44-165.184h42.368l78.080 165.184v-231.808h62.272v319.488z" />
<glyph unicode="&#xe934;" horiz-adv-x="960" d="M692.954 659.656l9.132-7.863 193.914 198.959v-210.752h64v320h-320v-64h210.752l-194.869-204.426 10.888-9.375c-69.936 55.187-156.438 85.801-247.571 85.801-220.914 0-400-179.086-400-400s179.086-400 400-400c220.914 0 400 179.086 400 400 0 112.168-46.485 216.808-126.246 291.656v0zM692.954 659.656l-26.183 22.543c2.772-2.188 5.518-4.414 8.238-6.678 6.155-5.125 12.138-10.416 17.945-15.865v0zM83.2 368c0 185.568 150.432 336 336 336 79.642 0 154.927-27.759 214.856-77.661 76.239-63.483 121.144-157.211 121.144-258.339 0-185.568-150.432-336-336-336s-336 150.432-336 336z" />
</font>
</defs>
</svg>
